<svg width="87" height="60" viewBox="0 0 87 60" fill="none" xmlns="http://www.w3.org/2000/svg">
<path d="M25.6389 30.2534L24.4082 25.5282L8.03205 46.3433L28.4448 41.0268M32.792 39.8945L28.4448 41.0268M28.4448 41.0268L26.6726 34.2225L31.5954 53.1232" stroke="#C4C4C4" stroke-width="2"/>
<path d="M57.3921 21.9832L56.1614 17.2581L80.6108 27.4401L60.198 32.7566M55.8508 33.8889L60.198 32.7566M60.198 32.7566L58.4258 25.9524L63.3485 44.8531" stroke="#C4C4C4" stroke-width="2"/>
<path d="M51.3607 27.5907C52.7855 33.0614 52.9834 38.2478 52.1937 42.1924C51.3891 46.2115 49.6508 48.5983 47.5153 49.1545C45.3798 49.7107 42.6979 48.4751 40.0351 45.3592C37.4215 42.3009 35.0642 37.6769 33.6394 32.2062C32.2145 26.7355 32.0166 21.5491 32.8063 17.6044C33.6109 13.5854 35.3492 11.1986 37.4847 10.6424C39.6202 10.0862 42.3021 11.3218 44.965 14.4377C47.5786 17.496 49.9358 22.1199 51.3607 27.5907Z" fill="white" stroke="#C4C4C4" stroke-width="2"/>
<path d="M27.199 54.0664L30.471 49.5813L35.5153 51.9004" stroke="#C4C4C4" stroke-width="2"/>
<path d="M59.1904 45.9362L62.4625 41.4511L67.5067 43.7702" stroke="#C4C4C4" stroke-width="2"/>
</svg>
