<svg width="73" height="76" viewBox="0 0 73 76" fill="none" xmlns="http://www.w3.org/2000/svg">
<path d="M27.7222 28.87L30.0726 22.7218L8.50904 37.5916L22.3634 42.8879M25.3139 44.0158L22.3634 42.8879M22.3634 42.8879L25.7479 34.0345L16.3465 58.6273" stroke="#C4C4C4" stroke-width="2"/>
<path d="M49.2735 37.1088L51.6238 30.9606L57.769 56.423L43.9147 51.1267M40.9642 49.9988L43.9147 51.1267M43.9147 51.1267L47.2992 42.2733L37.8977 66.8661" stroke="#C4C4C4" stroke-width="2"/>
<path d="M42.3541 40.101C39.5969 47.3134 36.3709 53.5276 33.4035 57.7426C31.9153 59.8565 30.5252 61.42 29.3274 62.3606C28.0719 63.3466 27.3084 63.4386 26.9151 63.2883C26.5218 63.1379 26.0144 62.56 25.7368 60.9879C25.472 59.4882 25.4793 57.3961 25.7807 54.8285C26.3818 49.7089 28.1238 42.9274 30.881 35.7151C33.6382 28.5027 36.8642 22.2885 39.8316 18.0735C41.3198 15.9596 42.7099 14.3961 43.9077 13.4555C45.1632 12.4695 45.9267 12.3775 46.32 12.5278C46.7133 12.6782 47.2207 13.2561 47.4983 14.8282C47.7631 16.3279 47.7558 18.42 47.4544 20.9876C46.8533 26.1072 45.1113 32.8887 42.3541 40.101Z" fill="white" stroke="#C4C4C4" stroke-width="2"/>
<path d="M13.49 57.2536L18.0045 53.9058L19.1344 59.4114" stroke="#C4C4C4" stroke-width="2"/>
<path d="M35.0756 65.7872L39.59 62.4394L40.7199 67.9449" stroke="#C4C4C4" stroke-width="2"/>
</svg>
