<svg width="934" height="322" viewBox="0 0 934 322" fill="none" xmlns="http://www.w3.org/2000/svg">
<rect width="934" height="322" fill="#B4DAE7"/>
<rect width="934" height="322" fill="url(#paint0_linear)" fill-opacity="0.6"/>
<g filter="url(#filter0_d)">
<g filter="url(#filter1_d)">
<path d="M473.5 104.897L543 255.897H404L473.5 104.897Z" fill="#6CC8A1"/>
</g>
<g filter="url(#filter2_d)">
<path d="M451.842 197.638L444.396 167.273L474.633 98.1243L496.462 151.501L507.153 177.645L484.146 199.078L469.748 175.977L451.842 197.638Z" fill="white"/>
<path d="M451.842 197.638L444.396 167.273L474.633 98.1243L496.462 151.501L507.153 177.645L484.146 199.078L469.748 175.977L451.842 197.638Z" stroke="white"/>
</g>
<g filter="url(#filter3_d)">
<mask id="path-4-inside-1" fill="white">
<path fill-rule="evenodd" clip-rule="evenodd" d="M444.078 208.897L429.191 160.897L414.303 208.897H425V227.157H432.934V208.897H444.078Z"/>
</mask>
<path fill-rule="evenodd" clip-rule="evenodd" d="M444.078 208.897L429.191 160.897L414.303 208.897H425V227.157H432.934V208.897H444.078Z" fill="#F8EE94"/>
<path d="M429.191 160.897L431.101 160.304L429.191 154.145L427.28 160.304L429.191 160.897ZM444.078 208.897V210.897H446.792L445.988 208.304L444.078 208.897ZM414.303 208.897L412.393 208.304L411.589 210.897H414.303V208.897ZM425 208.897H427V206.897H425V208.897ZM425 227.157H423V229.157H425V227.157ZM432.934 227.157V229.157H434.934V227.157H432.934ZM432.934 208.897V206.897H430.934V208.897H432.934ZM427.28 161.489L442.168 209.489L445.988 208.304L431.101 160.304L427.28 161.489ZM416.213 209.489L431.101 161.489L427.28 160.304L412.393 208.304L416.213 209.489ZM425 206.897H414.303V210.897H425V206.897ZM427 227.157V208.897H423V227.157H427ZM432.934 225.157H425V229.157H432.934V225.157ZM430.934 208.897V227.157H434.934V208.897H430.934ZM444.078 206.897H432.934V210.897H444.078V206.897Z" fill="white" mask="url(#path-4-inside-1)"/>
</g>
<g filter="url(#filter4_d)">
<mask id="path-6-inside-2" fill="white">
<path fill-rule="evenodd" clip-rule="evenodd" d="M542.775 228.147L527.887 204.897L513 228.147H524V239.897H532V228.147H542.775Z"/>
</mask>
<path fill-rule="evenodd" clip-rule="evenodd" d="M542.775 228.147L527.887 204.897L513 228.147H524V239.897H532V228.147H542.775Z" fill="#A74AF0"/>
<path d="M527.887 204.897L529.572 203.818L527.887 201.188L526.203 203.818L527.887 204.897ZM542.775 228.147V230.147H546.431L544.459 227.068L542.775 228.147ZM513 228.147L511.316 227.068L509.344 230.147H513V228.147ZM524 228.147H526V226.147H524V228.147ZM524 239.897H522V241.897H524V239.897ZM532 239.897V241.897H534V239.897H532ZM532 228.147V226.147H530V228.147H532ZM526.203 205.975L541.091 229.225L544.459 227.068L529.572 203.818L526.203 205.975ZM514.684 229.225L529.572 205.975L526.203 203.818L511.316 227.068L514.684 229.225ZM524 226.147H513V230.147H524V226.147ZM526 239.897V228.147H522V239.897H526ZM532 237.897H524V241.897H532V237.897ZM530 228.147V239.897H534V228.147H530ZM542.775 226.147H532V230.147H542.775V226.147Z" fill="white" mask="url(#path-6-inside-2)"/>
</g>
</g>
<g filter="url(#filter5_d)">
<ellipse cx="276" cy="77" rx="50" ry="40" fill="#F8EE94"/>
</g>
<g filter="url(#filter6_d)">
<path fill-rule="evenodd" clip-rule="evenodd" d="M155.341 238H79.6585C71.0106 238 64 232.305 64 225.28C64 218.255 71.0106 212.56 79.6585 212.56H80.3163C79.8869 211.205 79.6585 209.784 79.6585 208.32C79.6585 198.953 89.006 191.36 100.537 191.36C104.823 191.36 108.808 192.409 112.123 194.209C116.307 188.667 123.581 185 131.854 185C144.826 185 155.341 194.017 155.341 205.14C155.341 207.76 154.758 210.264 153.696 212.56H155.341C163.989 212.56 171 218.255 171 225.28C171 232.305 163.989 238 155.341 238Z" fill="white"/>
</g>
<g filter="url(#filter7_d)">
<path fill-rule="evenodd" clip-rule="evenodd" d="M615 124.5C615 144.658 636.49 161 663 161H727C750.748 161 770 149.136 770 134.5C770 119.864 750.748 108 727 108C719.995 108 713.382 109.032 707.538 110.863C700.434 97.4599 683.17 88 663 88C636.49 88 615 104.342 615 124.5Z" fill="white"/>
</g>
<defs>
<filter id="filter0_d" x="400" y="91.6612" width="151" height="174.235" filterUnits="userSpaceOnUse" color-interpolation-filters="sRGB">
<feFlood flood-opacity="0" result="BackgroundImageFix"/>
<feColorMatrix in="SourceAlpha" type="matrix" values="0 0 0 0 0 0 0 0 0 0 0 0 0 0 0 0 0 0 127 0"/>
<feOffset dx="2" dy="4"/>
<feGaussianBlur stdDeviation="3"/>
<feColorMatrix type="matrix" values="0 0 0 0 0 0 0 0 0 0 0 0 0 0 0 0 0 0 0.25 0"/>
<feBlend mode="normal" in2="BackgroundImageFix" result="effect1_dropShadow"/>
<feBlend mode="normal" in="SourceGraphic" in2="effect1_dropShadow" result="shape"/>
</filter>
<filter id="filter1_d" x="398" y="102.897" width="151" height="163" filterUnits="userSpaceOnUse" color-interpolation-filters="sRGB">
<feFlood flood-opacity="0" result="BackgroundImageFix"/>
<feColorMatrix in="SourceAlpha" type="matrix" values="0 0 0 0 0 0 0 0 0 0 0 0 0 0 0 0 0 0 127 0"/>
<feOffset dy="4"/>
<feGaussianBlur stdDeviation="3"/>
<feColorMatrix type="matrix" values="0 0 0 0 0 0 0 0 0 0 0 0 0 0 0 0 0 0 0.25 0"/>
<feBlend mode="normal" in2="BackgroundImageFix" result="effect1_dropShadow"/>
<feBlend mode="normal" in="SourceGraphic" in2="effect1_dropShadow" result="shape"/>
</filter>
<filter id="filter2_d" x="427.288" y="91.6612" width="89.3991" height="123.829" filterUnits="userSpaceOnUse" color-interpolation-filters="sRGB">
<feFlood flood-opacity="0" result="BackgroundImageFix"/>
<feColorMatrix in="SourceAlpha" type="matrix" values="0 0 0 0 0 0 0 0 0 0 0 0 0 0 0 0 0 0 127 0"/>
<feOffset dy="4"/>
<feGaussianBlur stdDeviation="3"/>
<feColorMatrix type="matrix" values="0 0 0 0 0 0 0 0 0 0 0 0 0 0 0 0 0 0 0.25 0"/>
<feBlend mode="normal" in2="BackgroundImageFix" result="effect1_dropShadow"/>
<feBlend mode="normal" in="SourceGraphic" in2="effect1_dropShadow" result="shape"/>
</filter>
<filter id="filter3_d" x="410.303" y="158.897" width="41.775" height="78.2609" filterUnits="userSpaceOnUse" color-interpolation-filters="sRGB">
<feFlood flood-opacity="0" result="BackgroundImageFix"/>
<feColorMatrix in="SourceAlpha" type="matrix" values="0 0 0 0 0 0 0 0 0 0 0 0 0 0 0 0 0 0 127 0"/>
<feOffset dx="2" dy="4"/>
<feGaussianBlur stdDeviation="3"/>
<feColorMatrix type="matrix" values="0 0 0 0 0 0 0 0 0 0 0 0 0 0 0 0 0 0 0.25 0"/>
<feBlend mode="normal" in2="BackgroundImageFix" result="effect1_dropShadow"/>
<feBlend mode="normal" in="SourceGraphic" in2="effect1_dropShadow" result="shape"/>
</filter>
<filter id="filter4_d" x="509" y="202.897" width="41.775" height="47" filterUnits="userSpaceOnUse" color-interpolation-filters="sRGB">
<feFlood flood-opacity="0" result="BackgroundImageFix"/>
<feColorMatrix in="SourceAlpha" type="matrix" values="0 0 0 0 0 0 0 0 0 0 0 0 0 0 0 0 0 0 127 0"/>
<feOffset dx="2" dy="4"/>
<feGaussianBlur stdDeviation="3"/>
<feColorMatrix type="matrix" values="0 0 0 0 0 0 0 0 0 0 0 0 0 0 0 0 0 0 0.25 0"/>
<feBlend mode="normal" in2="BackgroundImageFix" result="effect1_dropShadow"/>
<feBlend mode="normal" in="SourceGraphic" in2="effect1_dropShadow" result="shape"/>
</filter>
<filter id="filter5_d" x="222" y="35" width="112" height="92" filterUnits="userSpaceOnUse" color-interpolation-filters="sRGB">
<feFlood flood-opacity="0" result="BackgroundImageFix"/>
<feColorMatrix in="SourceAlpha" type="matrix" values="0 0 0 0 0 0 0 0 0 0 0 0 0 0 0 0 0 0 127 0"/>
<feOffset dx="2" dy="4"/>
<feGaussianBlur stdDeviation="3"/>
<feColorMatrix type="matrix" values="0 0 0 0 0 0 0 0 0 0 0 0 0 0 0 0 0 0 0.25 0"/>
<feBlend mode="normal" in2="BackgroundImageFix" result="effect1_dropShadow"/>
<feBlend mode="normal" in="SourceGraphic" in2="effect1_dropShadow" result="shape"/>
</filter>
<filter id="filter6_d" x="60" y="183" width="119" height="65" filterUnits="userSpaceOnUse" color-interpolation-filters="sRGB">
<feFlood flood-opacity="0" result="BackgroundImageFix"/>
<feColorMatrix in="SourceAlpha" type="matrix" values="0 0 0 0 0 0 0 0 0 0 0 0 0 0 0 0 0 0 127 0"/>
<feOffset dx="2" dy="4"/>
<feGaussianBlur stdDeviation="3"/>
<feColorMatrix type="matrix" values="0 0 0 0 0 0 0 0 0 0 0 0 0 0 0 0 0 0 0.25 0"/>
<feBlend mode="normal" in2="BackgroundImageFix" result="effect1_dropShadow"/>
<feBlend mode="normal" in="SourceGraphic" in2="effect1_dropShadow" result="shape"/>
</filter>
<filter id="filter7_d" x="611" y="86" width="167" height="85" filterUnits="userSpaceOnUse" color-interpolation-filters="sRGB">
<feFlood flood-opacity="0" result="BackgroundImageFix"/>
<feColorMatrix in="SourceAlpha" type="matrix" values="0 0 0 0 0 0 0 0 0 0 0 0 0 0 0 0 0 0 127 0"/>
<feOffset dx="2" dy="4"/>
<feGaussianBlur stdDeviation="3"/>
<feColorMatrix type="matrix" values="0 0 0 0 0 0 0 0 0 0 0 0 0 0 0 0 0 0 0.25 0"/>
<feBlend mode="normal" in2="BackgroundImageFix" result="effect1_dropShadow"/>
<feBlend mode="normal" in="SourceGraphic" in2="effect1_dropShadow" result="shape"/>
</filter>
<linearGradient id="paint0_linear" x1="467" y1="0" x2="467" y2="322" gradientUnits="userSpaceOnUse">
<stop stop-color="white"/>
<stop offset="1" stop-color="white" stop-opacity="0"/>
</linearGradient>
</defs>
</svg>
