<svg width="84" height="83" viewBox="0 0 84 83" fill="none" xmlns="http://www.w3.org/2000/svg">
<mask id="path-1-inside-1" fill="white">
<path fill-rule="evenodd" clip-rule="evenodd" d="M53.5105 52.4231C47.3632 59.6209 39.1764 62.8535 32.9473 59.7967C26.8672 56.813 24.3857 48.6878 26.0672 39.6838L16.7102 35.2439C14.2921 34.0965 14.4697 30.5953 16.9913 29.7025L33.4225 23.8848C39.6197 16.2738 48.0823 12.7791 54.4798 15.9186C60.4704 18.8584 62.9676 26.7894 61.4314 35.6345L66.8982 53.2061C67.675 55.7028 65.1132 57.9286 62.7522 56.8083L53.5105 52.4231Z"/>
</mask>
<path fill-rule="evenodd" clip-rule="evenodd" d="M53.5105 52.4231C47.3632 59.6209 39.1764 62.8535 32.9473 59.7967C26.8672 56.813 24.3857 48.6878 26.0672 39.6838L16.7102 35.2439C14.2921 34.0965 14.4697 30.5953 16.9913 29.7025L33.4225 23.8848C39.6197 16.2738 48.0823 12.7791 54.4798 15.9186C60.4704 18.8584 62.9676 26.7894 61.4314 35.6345L66.8982 53.2061C67.675 55.7028 65.1132 57.9286 62.7522 56.8083L53.5105 52.4231Z" fill="white"/>
<path d="M53.5105 52.4231L54.3678 50.6162L52.9842 49.9596L51.9896 51.1242L53.5105 52.4231ZM26.0672 39.6838L28.0332 40.051L28.316 38.5371L26.9246 37.8769L26.0672 39.6838ZM16.7102 35.2439L15.8528 37.0508L15.8528 37.0508L16.7102 35.2439ZM16.9913 29.7025L17.6588 31.5878L17.6588 31.5878L16.9913 29.7025ZM33.4225 23.8848L34.09 25.7701L34.619 25.5828L34.9734 25.1476L33.4225 23.8848ZM61.4314 35.6345L59.4609 35.2923L59.3783 35.7678L59.5217 36.2287L61.4314 35.6345ZM66.8982 53.2061L64.9885 53.8002L64.9885 53.8002L66.8982 53.2061ZM62.7522 56.8083L61.8949 58.6152L61.8949 58.6152L62.7522 56.8083ZM32.0662 61.5921C39.5233 65.2516 48.6489 61.1951 55.0313 53.7219L51.9896 51.1242C46.0775 58.0468 38.8294 60.4554 33.8284 58.0012L32.0662 61.5921ZM24.1012 39.3166C22.352 48.6828 24.7875 58.0202 32.0662 61.5921L33.8284 58.0012C28.947 55.6057 26.4193 48.6929 28.0332 40.051L24.1012 39.3166ZM15.8528 37.0508L25.2098 41.4907L26.9246 37.8769L17.5676 33.437L15.8528 37.0508ZM16.3238 27.8171C12.1161 29.3069 11.8275 35.1408 15.8528 37.0508L17.5676 33.437C16.7567 33.0522 16.8233 31.8836 17.6588 31.5878L16.3238 27.8171ZM32.7549 21.9995L16.3238 27.8171L17.6588 31.5878L34.09 25.7701L32.7549 21.9995ZM55.3609 14.1231C47.7021 10.3647 38.2928 14.7358 31.8715 22.622L34.9734 25.1476C40.9465 17.8118 48.4624 15.1935 53.5987 17.714L55.3609 14.1231ZM63.4019 35.9768C65.0018 26.7649 62.5324 17.6424 55.3609 14.1231L53.5987 17.714C58.4084 20.0743 60.9335 26.8139 59.4609 35.2923L63.4019 35.9768ZM68.8079 52.6119L63.3411 35.0404L59.5217 36.2287L64.9885 53.8002L68.8079 52.6119ZM61.8949 58.6152C65.8343 60.4845 70.1012 56.7687 68.8079 52.6119L64.9885 53.8002C65.2488 54.637 64.3922 55.3727 63.6096 55.0014L61.8949 58.6152ZM52.6531 54.23L61.8949 58.6152L63.6096 55.0014L54.3678 50.6162L52.6531 54.23Z" fill="#B4DAE7" mask="url(#path-1-inside-1)"/>
<line x1="27.4707" y1="57.1091" x2="23.9407" y2="64.3023" stroke="#F8EE94" stroke-width="2"/>
<line x1="39.4695" y1="62.9973" x2="35.9395" y2="70.1904" stroke="#F8EE94" stroke-width="2"/>
<line x1="36.4697" y1="61.5253" x2="32.9398" y2="68.7184" stroke="#F8EE94" stroke-width="2"/>
<line x1="30.4704" y1="58.5812" x2="26.9404" y2="65.7743" stroke="#F8EE94" stroke-width="2"/>
<path d="M51.2826 34.759C48.6971 28.9198 46.259 27.661 40.0337 29.2388L43.0469 38.2201L51.2826 34.759Z" stroke="#FD983A" stroke-width="2"/>
<path d="M60.6486 29.6562C59.5604 31.8737 56.6444 32.8251 54.0522 31.553C51.46 30.2809 50.4284 27.3923 51.5166 25.1748C52.6048 22.9574 55.5208 22.006 58.113 23.2781C60.7052 24.5501 61.7368 27.4388 60.6486 29.6562Z" fill="white" stroke="#C4C4C4" stroke-width="2"/>
<ellipse cx="56.5805" cy="27.2136" rx="2.86408" ry="2.8044" transform="rotate(26.1388 56.5805 27.2136)" fill="black"/>
<path d="M61.4316 25.4547C62.896 26.7611 63.8291 26.4034 65.666 24.0856" stroke="black" stroke-width="2"/>
<path d="M62.1872 27.3027C63.6516 28.6091 64.5847 28.2514 66.4215 25.9336" stroke="black" stroke-width="2"/>
<path d="M38.018 18.5506C36.9412 20.7448 38.0078 23.6795 40.7143 25.0076C43.4208 26.3358 46.3946 25.3839 47.4714 23.1897C48.5482 20.9955 47.4816 18.0609 44.7751 16.7327C42.0686 15.4045 39.0948 16.3564 38.018 18.5506Z" fill="white" stroke="#C4C4C4" stroke-width="2"/>
<ellipse rx="2.92375" ry="2.8044" transform="matrix(-0.897729 -0.440548 -0.440548 0.897729 42.9212 20.5106)" fill="black"/>
<path d="M41.1837 15.5183C39.2544 15.1592 38.9664 14.2024 39.6759 11.3313" stroke="black" stroke-width="2"/>
<path d="M39.2596 16.0514C37.3303 15.6923 37.0423 14.7354 37.7518 11.8644" stroke="black" stroke-width="2"/>
</svg>
