<svg width="89" height="89" viewBox="0 0 89 89" fill="none" xmlns="http://www.w3.org/2000/svg">
<mask id="path-1-inside-1" fill="white">
<path fill-rule="evenodd" clip-rule="evenodd" d="M63.6464 44.7917C64.3283 56.5562 59.9395 66.407 52.0011 68.8513C44.2525 71.2371 35.3311 65.8866 29.2792 56.2271L15.9182 60.5427C13.3998 61.3562 11.1385 58.7476 12.3011 56.3702L22.4714 35.5706C21.4882 23.3857 25.8971 13.0628 34.0503 10.5523C41.6849 8.20159 50.458 13.3612 56.5032 22.7529L77.3686 35.1201C79.5914 36.4375 79.2198 39.7614 76.7611 40.5556L63.6464 44.7917Z"/>
</mask>
<path fill-rule="evenodd" clip-rule="evenodd" d="M63.6464 44.7917C64.3283 56.5562 59.9395 66.407 52.0011 68.8513C44.2525 71.2371 35.3311 65.8866 29.2792 56.2271L15.9182 60.5427C13.3998 61.3562 11.1385 58.7476 12.3011 56.3702L22.4714 35.5706C21.4882 23.3857 25.8971 13.0628 34.0503 10.5523C41.6849 8.20159 50.458 13.3612 56.5032 22.7529L77.3686 35.1201C79.5914 36.4375 79.2198 39.7614 76.7611 40.5556L63.6464 44.7917Z" fill="#B4DAE7"/>
<path d="M63.6464 44.7917L63.0317 42.8885L61.5603 43.3637L61.6498 44.9074L63.6464 44.7917ZM29.2792 56.2271L30.974 55.1653L30.1469 53.8451L28.6644 54.324L29.2792 56.2271ZM15.9182 60.5427L16.5329 62.4459L16.5329 62.4459L15.9182 60.5427ZM12.3011 56.3702L14.0978 57.2487L14.0978 57.2487L12.3011 56.3702ZM22.4714 35.5706L24.2682 36.4492L24.5091 35.9564L24.465 35.4098L22.4714 35.5706ZM56.5032 22.7529L54.8215 23.8354L55.0771 24.2325L55.4834 24.4734L56.5032 22.7529ZM77.3686 35.1201L78.3884 33.3996L77.3686 35.1201ZM76.7611 40.5556L76.1463 38.6524L76.7611 40.5556ZM52.5896 70.7627C57.2251 69.3354 60.6848 65.7812 62.8645 61.1715C65.0403 56.57 65.9992 50.8191 65.6431 44.6759L61.6498 44.9074C61.9756 50.5287 61.0811 55.5856 59.2483 59.4616C57.4194 63.3296 54.7155 65.9228 51.4125 66.9399L52.5896 70.7627ZM27.5843 57.289C33.8022 67.2134 43.5159 73.5566 52.5896 70.7627L51.4125 66.9399C44.9891 68.9177 36.8599 64.5598 30.974 55.1653L27.5843 57.289ZM16.5329 62.4459L29.8939 58.1303L28.6644 54.324L15.3035 58.6396L16.5329 62.4459ZM10.5043 55.4916C8.56681 59.4541 12.3357 63.8017 16.5329 62.4459L15.3035 58.6396C14.464 58.9107 13.7103 58.0412 14.0978 57.2487L10.5043 55.4916ZM20.6747 34.6921L10.5043 55.4916L14.0978 57.2487L24.2682 36.4492L20.6747 34.6921ZM33.4618 8.64088C28.6998 10.1071 25.1809 13.8161 23.0125 18.6092C20.8471 23.3958 19.965 29.3742 20.4779 35.7315L24.465 35.4098C23.9947 29.5821 24.8254 24.3066 26.657 20.2579C28.4856 16.2157 31.2477 13.5079 34.6389 12.4638L33.4618 8.64088ZM58.1849 21.6704C51.9677 12.0114 42.4023 5.88802 33.4618 8.64088L34.6389 12.4638C40.9674 10.5152 48.9484 14.7111 54.8215 23.8354L58.1849 21.6704ZM78.3884 33.3996L57.523 21.0324L55.4834 24.4734L76.3489 36.8406L78.3884 33.3996ZM77.3758 42.4588C81.4737 41.1351 82.093 35.5953 78.3884 33.3996L76.3489 36.8406C77.0898 37.2797 76.9659 38.3877 76.1463 38.6524L77.3758 42.4588ZM64.2612 46.6948L77.3758 42.4588L76.1463 38.6524L63.0317 42.8885L64.2612 46.6948Z" fill="#B4DAE7" mask="url(#path-1-inside-1)"/>
<line x1="44.8331" y1="71.0584" x2="47.7759" y2="80.6156" stroke="#F8EE94" stroke-width="2"/>
<line x1="60.1247" y1="66.35" x2="63.0674" y2="75.9072" stroke="#F8EE94" stroke-width="2"/>
<line x1="56.3018" y1="67.527" x2="59.2445" y2="77.0842" stroke="#F8EE94" stroke-width="2"/>
<line x1="48.656" y1="69.8813" x2="51.5988" y2="79.4385" stroke="#F8EE94" stroke-width="2"/>
<path d="M46.9916 30.4938C39.8862 27.3237 36.727 28.2234 32.6558 34.9079L42.751 40.595L46.9916 30.4938Z" fill="#FD983A" stroke="#FD983A" stroke-width="2"/>
<path d="M51.5078 17.733C52.5587 21.1461 50.5353 24.8336 46.9354 25.9421C43.3355 27.0505 39.5882 25.1398 38.5373 21.7267C37.4864 18.3137 39.5099 14.6261 43.1098 13.5177C46.7097 12.4093 50.4569 14.32 51.5078 17.733Z" fill="white" stroke="#C4C4C4"/>
<ellipse cx="45.285" cy="19.1259" rx="3.42857" ry="3.5" transform="rotate(-17.114 45.285 19.1259)" fill="black"/>
<path d="M48.0162 13.4321C50.3724 13.3956 50.8816 12.2827 50.5386 8.61445" stroke="black"/>
<path d="M50.2108 14.4882C52.567 14.4516 53.0762 13.3387 52.7332 9.67048" stroke="black"/>
<path d="M21.3344 27.0237C22.3814 30.4241 26.2108 32.3233 29.9372 31.1759C33.6636 30.0286 35.7615 26.3042 34.7145 22.9038C33.6675 19.5035 29.838 17.6042 26.1116 18.7516C22.3852 19.899 20.2874 23.6233 21.3344 27.0237Z" fill="white" stroke="#C4C4C4"/>
<circle r="3.5" transform="matrix(-0.955721 0.294274 0.294274 0.955721 27.8773 24.4858)" fill="black"/>
<path d="M22.2117 21.3776C20.243 22.6727 19.196 22.039 17.4162 18.8131" stroke="black" stroke-width="2"/>
<path d="M20.9913 23.4851C19.0225 24.7803 17.9756 24.1465 16.1958 20.9207" stroke="black" stroke-width="2"/>
</svg>
