<svg width="200" height="200" viewBox="0 0 200 200" fill="none" xmlns="http://www.w3.org/2000/svg">
<circle cx="100" cy="100" r="100" fill="#D573C5"/>
<g filter="url(#filter0_d)">
<path d="M31.1124 138.952C33.989 134.238 39.8064 133.228 44.106 136.696L53.7118 144.444C58.0114 147.912 59.165 154.546 56.2884 159.26L54.6986 161.865C51.822 166.58 46.0033 167.589 41.7037 164.121C38.4029 161.458 35.4013 159.037 32.1004 156.374C27.8008 152.906 26.646 146.272 29.5226 141.558L31.1124 138.952Z" fill="black"/>
<path d="M31.5016 139.266C34.2344 134.788 39.7609 133.828 43.8456 137.123L53.4514 144.871C57.536 148.166 58.6319 154.467 55.8991 158.946L54.3094 161.551C51.5767 166.03 46.0489 166.989 41.9642 163.694L41.9448 163.678L41.9255 163.663L41.9062 163.647L41.8869 163.631L41.8676 163.616L41.8483 163.6L41.829 163.585L41.8097 163.569L41.7904 163.554L41.7711 163.538L41.7518 163.523L41.7326 163.507L41.7133 163.491L41.6941 163.476L41.6748 163.46L41.6556 163.445L41.6363 163.429L41.6171 163.414L41.5979 163.398L41.5787 163.383L41.5595 163.367L41.5403 163.352L41.5211 163.336L41.5019 163.321L41.4827 163.305L41.4635 163.29L41.4444 163.275L41.4252 163.259L41.4061 163.244L41.3869 163.228L41.3678 163.213L41.3486 163.197L41.3295 163.182L41.3104 163.166L41.2912 163.151L41.2721 163.136L41.253 163.12L41.2339 163.105L41.2148 163.089L41.1957 163.074L41.1766 163.059L41.1576 163.043L41.1385 163.028L41.1194 163.012L41.1004 162.997L41.0813 162.982L41.0622 162.966L41.0432 162.951L41.0242 162.936L41.0051 162.92L40.9861 162.905L40.9671 162.89L40.9481 162.874L40.929 162.859L40.91 162.844L40.891 162.828L40.872 162.813L40.853 162.798L40.8341 162.782L40.8151 162.767L40.7961 162.752L40.7771 162.736L40.7582 162.721L40.7392 162.706L40.7203 162.69L40.7013 162.675L40.6824 162.66L40.6634 162.645L40.6445 162.629L40.6256 162.614L40.6066 162.599L40.5877 162.584L40.5688 162.568L40.5499 162.553L40.531 162.538L40.5121 162.523L40.4932 162.507L40.4743 162.492L40.4554 162.477L40.4365 162.462L40.4176 162.446L40.3988 162.431L40.3799 162.416L40.361 162.401L40.3422 162.386L40.3233 162.37L40.3045 162.355L40.2856 162.34L40.2668 162.325L40.248 162.31L40.2291 162.294L40.2103 162.279L40.1915 162.264L40.1727 162.249L40.1539 162.234L40.1351 162.218L40.1162 162.203L40.0974 162.188L40.0787 162.173L40.0599 162.158L40.0411 162.143L40.0223 162.127L40.0035 162.112L39.9847 162.097L39.966 162.082L39.9472 162.067L39.9284 162.052L39.9097 162.037L39.8909 162.022L39.8722 162.006L39.8534 161.991L39.8347 161.976L39.8159 161.961L39.7972 161.946L39.7785 161.931L39.7597 161.916L39.741 161.901L39.7223 161.886L39.7036 161.87L39.6849 161.855L39.6662 161.84L39.6474 161.825L39.6287 161.81L39.61 161.795L39.5913 161.78L39.5727 161.765L39.554 161.75L39.5353 161.735L39.5166 161.72L39.4979 161.705L39.4792 161.689L39.4606 161.674L39.4419 161.659L39.4232 161.644L39.4046 161.629L39.3859 161.614L39.3673 161.599L39.3486 161.584L39.33 161.569L39.3113 161.554L39.2927 161.539L39.274 161.524L39.2554 161.509L39.2368 161.494L39.2181 161.479L39.1995 161.464L39.1809 161.449L39.1623 161.434L39.1436 161.419L39.125 161.404L39.1064 161.389L39.0878 161.374L39.0692 161.359L39.0506 161.344L39.032 161.329L39.0134 161.314L38.9948 161.299L38.9762 161.284L38.9576 161.269L38.939 161.254L38.9204 161.239L38.9019 161.224L38.8833 161.209L38.8647 161.194L38.8461 161.179L38.8275 161.164L38.809 161.149L38.7904 161.134L38.7718 161.119L38.7533 161.104L38.7347 161.089L38.7161 161.074L38.6976 161.059L38.679 161.044L38.6605 161.029L38.6419 161.014L38.6234 160.999L38.6048 160.984L38.5863 160.969L38.5677 160.954L38.5492 160.939L38.5307 160.924L38.5121 160.909L38.4936 160.894L38.4751 160.879L38.4565 160.865L38.438 160.85L38.4195 160.835L38.401 160.82L38.3824 160.805L38.3639 160.79L38.3454 160.775L38.3269 160.76L38.3084 160.745L38.2898 160.73L38.2713 160.715L38.2528 160.7L38.2343 160.685L38.2158 160.67L38.1973 160.655L38.1788 160.64L38.1603 160.626L38.1418 160.611L38.1233 160.596L38.1048 160.581L38.0863 160.566L38.0678 160.551L38.0493 160.536L38.0308 160.521L38.0123 160.506L37.9938 160.491L37.9753 160.476L37.9568 160.461L37.9383 160.447L37.9199 160.432L37.9014 160.417L37.8829 160.402L37.8644 160.387L37.8459 160.372L37.8274 160.357L37.809 160.342L37.7905 160.327L37.772 160.312L37.7535 160.297L37.735 160.283L37.7166 160.268L37.6981 160.253L37.6796 160.238L37.6611 160.223L37.6427 160.208L37.6242 160.193L37.6057 160.178L37.5872 160.163L37.5688 160.148L37.5503 160.134L37.5318 160.119L37.5134 160.104L37.4949 160.089L37.4764 160.074L37.458 160.059L37.4395 160.044L37.421 160.029L37.4026 160.014L37.3841 159.999L37.3656 159.985L37.3472 159.97L37.3287 159.955L37.3102 159.94L37.2918 159.925L37.2733 159.91L37.2548 159.895L37.2364 159.88L37.2179 159.865L37.1994 159.851L37.181 159.836L37.1625 159.821L37.144 159.806L37.1256 159.791L37.1071 159.776L37.0887 159.761L37.0702 159.746L37.0517 159.731L37.0333 159.716L37.0148 159.702L36.9963 159.687L36.9779 159.672L36.9594 159.657L36.9409 159.642L36.9225 159.627L36.904 159.612L36.8855 159.597L36.8671 159.582L36.8486 159.568L36.8301 159.553L36.8117 159.538L36.7932 159.523L36.7747 159.508L36.7563 159.493L36.7378 159.478L36.7193 159.463L36.7008 159.448L36.6824 159.433L36.6639 159.419L36.6454 159.404L36.6269 159.389L36.6085 159.374L36.59 159.359L36.5715 159.344L36.553 159.329L36.5346 159.314L36.5161 159.299L36.4976 159.284L36.4791 159.27L36.4606 159.255L36.4421 159.24L36.4237 159.225L36.4052 159.21L36.3867 159.195L36.3682 159.18L36.3497 159.165L36.3312 159.15L36.3127 159.135L36.2942 159.12L36.2757 159.105L36.2572 159.091L36.2387 159.076L36.2202 159.061L36.2017 159.046L36.1832 159.031L36.1647 159.016L36.1462 159.001L36.1277 158.986L36.1092 158.971L36.0907 158.956L36.0722 158.941L36.0537 158.926L36.0352 158.911L36.0167 158.896L35.9982 158.882L35.9796 158.867L35.9611 158.852L35.9426 158.837L35.9241 158.822L35.9055 158.807L35.887 158.792L35.8685 158.777L35.85 158.762L35.8314 158.747L35.8129 158.732L35.7944 158.717L35.7758 158.702L35.7573 158.687L35.7387 158.672L35.7202 158.657L35.7016 158.642L35.6831 158.627L35.6645 158.612L35.646 158.598L35.6274 158.583L35.6089 158.568L35.5903 158.553L35.5718 158.538L35.5532 158.523L35.5346 158.508L35.5161 158.493L35.4975 158.478L35.4789 158.463L35.4603 158.448L35.4418 158.433L35.4232 158.418L35.4046 158.403L35.386 158.388L35.3674 158.373L35.3488 158.358L35.3302 158.343L35.3116 158.328L35.293 158.313L35.2744 158.298L35.2558 158.283L35.2372 158.268L35.2186 158.253L35.2 158.238L35.1814 158.223L35.1628 158.208L35.1441 158.193L35.1255 158.178L35.1069 158.163L35.0883 158.148L35.0696 158.133L35.051 158.118L35.0323 158.103L35.0137 158.087L34.9951 158.072L34.9764 158.057L34.9578 158.042L34.9391 158.027L34.9204 158.012L34.9018 157.997L34.8831 157.982L34.8645 157.967L34.8458 157.952L34.8271 157.937L34.8084 157.922L34.7897 157.907L34.7711 157.892L34.7524 157.877L34.7337 157.862L34.715 157.847L34.6963 157.831L34.6776 157.816L34.6589 157.801L34.6402 157.786L34.6215 157.771L34.6027 157.756L34.584 157.741L34.5653 157.726L34.5466 157.711L34.5278 157.696L34.5091 157.68L34.4904 157.665L34.4716 157.65L34.4529 157.635L34.4341 157.62L34.4154 157.605L34.3966 157.59L34.3778 157.575L34.3591 157.559L34.3403 157.544L34.3215 157.529L34.3027 157.514L34.284 157.499L34.2652 157.484L34.2464 157.469L34.2276 157.453L34.2088 157.438L34.19 157.423L34.1712 157.408L34.1524 157.393L34.1335 157.378L34.1147 157.362L34.0959 157.347L34.0771 157.332L34.0582 157.317L34.0394 157.302L34.0205 157.286L34.0017 157.271L33.9828 157.256L33.964 157.241L33.9451 157.226L33.9262 157.21L33.9074 157.195L33.8885 157.18L33.8696 157.165L33.8507 157.149L33.8318 157.134L33.8129 157.119L33.794 157.104L33.7751 157.088L33.7562 157.073L33.7373 157.058L33.7184 157.043L33.6995 157.027L33.6805 157.012L33.6616 156.997L33.6427 156.982L33.6237 156.966L33.6048 156.951L33.5858 156.936L33.5669 156.92L33.5479 156.905L33.5289 156.89L33.51 156.875L33.491 156.859L33.472 156.844L33.453 156.829L33.434 156.813L33.415 156.798L33.396 156.783L33.377 156.767L33.358 156.752L33.3389 156.737L33.3199 156.721L33.3009 156.706L33.2818 156.691L33.2628 156.675L33.2437 156.66L33.2247 156.644L33.2056 156.629L33.1865 156.614L33.1675 156.598L33.1484 156.583L33.1293 156.568L33.1102 156.552L33.0911 156.537L33.072 156.521L33.0529 156.506L33.0338 156.49L33.0147 156.475L32.9955 156.46L32.9764 156.444L32.9573 156.429L32.9381 156.413L32.919 156.398L32.8998 156.382L32.8807 156.367L32.8615 156.351L32.8423 156.336L32.8231 156.321L32.8039 156.305L32.7847 156.29L32.7655 156.274L32.7463 156.259L32.7271 156.243L32.7079 156.228L32.6887 156.212L32.6695 156.197L32.6502 156.181L32.631 156.166L32.6117 156.15L32.5925 156.134L32.5732 156.119L32.5539 156.103L32.5346 156.088L32.5154 156.072L32.4961 156.057L32.4768 156.041L32.4575 156.026L32.4382 156.01L32.4188 155.994L32.3995 155.979L32.3802 155.963L32.3609 155.948C28.2762 152.653 27.1792 146.35 29.9119 141.872L31.5016 139.266Z" stroke="white"/>
</g>
<rect x="0.128995" y="0.741005" width="31.4361" height="96.7955" transform="matrix(0.778434 0.628079 -0.520444 0.85393 84.2457 52.4087)" fill="#FD983A" stroke="white"/>
<path d="M83.9476 52.9034L109.438 41.3048L108.629 72.8183L83.9476 52.9034Z" fill="#C4C4C4" stroke="white"/>
<path d="M102.707 44.035L109.221 41.0548L109.001 49.1133L102.707 44.035Z" fill="black" stroke="white"/>
<path d="M120.767 74.9397C123.051 71.4168 126.823 70.9944 131.213 71.1988C132.151 71.2425 133.106 71.3137 134.074 71.386C134.231 71.3977 134.389 71.4095 134.548 71.4212C135.675 71.5045 136.816 71.5831 137.947 71.6128C140.204 71.6722 142.448 71.5381 144.502 70.8426C144.817 70.7359 145.126 70.6278 145.427 70.5224C146.019 70.3151 146.581 70.1187 147.098 69.9651C147.484 69.8505 147.83 69.7649 148.128 69.7197C148.431 69.6736 148.655 69.6742 148.809 69.7087C148.956 69.7417 148.99 69.7926 149 69.8098C149.017 69.8394 149.062 69.9487 149.029 70.2333C148.961 70.8177 148.605 71.8016 147.781 73.3556C144.509 79.532 134.48 93.6132 111.086 123.973C99.3944 139.145 91.5481 148.33 86.6503 153.009C85.4273 154.178 84.3956 155.058 83.5397 155.679C82.677 156.304 82.0203 156.645 81.5439 156.767C81.0668 156.89 80.8825 156.772 80.8003 156.672C80.6842 156.531 80.5684 156.199 80.5843 155.523C80.6153 154.201 81.1336 152.091 82.0825 149.329C83.0245 146.586 84.3693 143.26 86.0093 139.527C89.2887 132.064 93.7351 123.009 98.4645 113.817C107.279 96.6862 115.018 83.8066 120.767 74.9397Z" fill="#7AFFDF" stroke="white"/>
<path fill-rule="evenodd" clip-rule="evenodd" d="M148.823 57.7911C151.401 55.9686 154.255 52.7852 156.737 48.7124C161.578 40.7702 163.174 32.453 160.303 30.1355C158.643 28.7955 155.853 29.7546 152.859 32.3371C147.847 31.9731 140.082 32.4805 136.517 38.3252C132.053 45.6446 133.244 54.4772 133.846 57.5289C133.988 58.2445 134.384 58.8633 134.918 59.2943L144.764 67.243C146.684 68.7936 149.248 67.2788 149.131 64.6628L148.823 57.7911Z" fill="#F4A5E8"/>
<path d="M124.361 69.8474C126.099 63.535 127.057 59.9737 131.763 57.7009" stroke="#7AFFDF" stroke-width="3"/>
<path d="M152.708 43.7812C153.404 49.7679 151.543 51.31 147.031 53.097" stroke="white" stroke-width="2"/>
<defs>
<filter id="filter0_d" x="23.9403" y="134.634" width="37.9307" height="39.5484" filterUnits="userSpaceOnUse" color-interpolation-filters="sRGB">
<feFlood flood-opacity="0" result="BackgroundImageFix"/>
<feColorMatrix in="SourceAlpha" type="matrix" values="0 0 0 0 0 0 0 0 0 0 0 0 0 0 0 0 0 0 127 0"/>
<feOffset dy="4"/>
<feGaussianBlur stdDeviation="2"/>
<feColorMatrix type="matrix" values="0 0 0 0 0 0 0 0 0 0 0 0 0 0 0 0 0 0 0.25 0"/>
<feBlend mode="normal" in2="BackgroundImageFix" result="effect1_dropShadow"/>
<feBlend mode="normal" in="SourceGraphic" in2="effect1_dropShadow" result="shape"/>
</filter>
</defs>
</svg>
