<svg width="160" height="160" viewBox="0 0 160 160" fill="none" xmlns="http://www.w3.org/2000/svg">
<ellipse cx="74.0741" cy="83.8095" rx="74.0741" ry="76.1905" fill="#D573C5"/>
<g filter="url(#filter0_d)">
<path d="M21.1124 118.952C23.989 114.238 29.8064 113.228 34.106 116.696L43.7118 124.444C48.0114 127.912 49.165 134.546 46.2884 139.26L44.6986 141.865C41.822 146.58 36.0033 147.589 31.7037 144.121C28.4029 141.458 25.4013 139.037 22.1004 136.374C17.8008 132.906 16.646 126.272 19.5226 121.558L21.1124 118.952Z" fill="black"/>
<path d="M33.8456 117.123L43.4514 124.871C47.536 128.166 48.6319 134.467 45.8991 138.946L44.3094 141.551C41.5767 146.03 36.0489 146.989 31.9642 143.694L31.9448 143.678L31.9255 143.663L31.9062 143.647L31.8869 143.631L31.8676 143.616L31.8483 143.6L31.829 143.585L31.8097 143.569L31.7904 143.554L31.7711 143.538L31.7518 143.523L31.7326 143.507L31.7133 143.491L31.6941 143.476L31.6748 143.46L31.6556 143.445L31.6363 143.429L31.6171 143.414L31.5979 143.398L31.5787 143.383L31.5595 143.367L31.5403 143.352L31.5211 143.336L31.5019 143.321L31.4827 143.305L31.4635 143.29L31.4444 143.275L31.4252 143.259L31.4061 143.244L31.3869 143.228L31.3678 143.213L31.3486 143.197L31.3295 143.182L31.3104 143.166L31.2912 143.151L31.2721 143.136L31.253 143.12L31.2339 143.105L31.2148 143.089L31.1957 143.074L31.1766 143.059L31.1576 143.043L31.1385 143.028L31.1194 143.012L31.1004 142.997L31.0813 142.982L31.0622 142.966L31.0432 142.951L31.0242 142.936L31.0051 142.92L30.9861 142.905L30.9671 142.89L30.9481 142.874L30.929 142.859L30.91 142.844L30.891 142.828L30.872 142.813L30.853 142.798L30.8341 142.782L30.8151 142.767L30.7961 142.752L30.7771 142.736L30.7582 142.721L30.7392 142.706L30.7203 142.69L30.7013 142.675L30.6824 142.66L30.6634 142.645L30.6445 142.629L30.6256 142.614L30.6066 142.599L30.5877 142.584L30.5688 142.568L30.5499 142.553L30.531 142.538L30.5121 142.523L30.4932 142.507L30.4743 142.492L30.4554 142.477L30.4365 142.462L30.4176 142.446L30.3988 142.431L30.3799 142.416L30.361 142.401L30.3422 142.386L30.3233 142.37L30.3045 142.355L30.2856 142.34L30.2668 142.325L30.248 142.31L30.2291 142.294L30.2103 142.279L30.1915 142.264L30.1727 142.249L30.1539 142.234L30.1351 142.218L30.1162 142.203L30.0974 142.188L30.0787 142.173L30.0599 142.158L30.0411 142.143L30.0223 142.127L30.0035 142.112L29.9847 142.097L29.966 142.082L29.9472 142.067L29.9284 142.052L29.9097 142.037L29.8909 142.022L29.8722 142.006L29.8534 141.991L29.8347 141.976L29.8159 141.961L29.7972 141.946L29.7785 141.931L29.7597 141.916L29.741 141.901L29.7223 141.886L29.7036 141.87L29.6849 141.855L29.6662 141.84L29.6474 141.825L29.6287 141.81L29.61 141.795L29.5913 141.78L29.5727 141.765L29.554 141.75L29.5353 141.735L29.5166 141.72L29.4979 141.705L29.4792 141.689L29.4606 141.674L29.4419 141.659L29.4232 141.644L29.4046 141.629L29.3859 141.614L29.3673 141.599L29.3486 141.584L29.33 141.569L29.3113 141.554L29.2927 141.539L29.274 141.524L29.2554 141.509L29.2368 141.494L29.2181 141.479L29.1995 141.464L29.1809 141.449L29.1623 141.434L29.1436 141.419L29.125 141.404L29.1064 141.389L29.0878 141.374L29.0692 141.359L29.0506 141.344L29.032 141.329L29.0134 141.314L28.9948 141.299L28.9762 141.284L28.9576 141.269L28.939 141.254L28.9204 141.239L28.9019 141.224L28.8833 141.209L28.8647 141.194L28.8461 141.179L28.8275 141.164L28.809 141.149L28.7904 141.134L28.7718 141.119L28.7533 141.104L28.7347 141.089L28.7161 141.074L28.6976 141.059L28.679 141.044L28.6605 141.029L28.6419 141.014L28.6234 140.999L28.6048 140.984L28.5863 140.969L28.5677 140.954L28.5492 140.939L28.5307 140.924L28.5121 140.909L28.4936 140.894L28.4751 140.879L28.4565 140.865L28.438 140.85L28.4195 140.835L28.401 140.82L28.3824 140.805L28.3639 140.79L28.3454 140.775L28.3269 140.76L28.3084 140.745L28.2898 140.73L28.2713 140.715L28.2528 140.7L28.2343 140.685L28.2158 140.67L28.1973 140.655L28.1788 140.64L28.1603 140.626L28.1418 140.611L28.1233 140.596L28.1048 140.581L28.0863 140.566L28.0678 140.551L28.0493 140.536L28.0308 140.521L28.0123 140.506L27.9938 140.491L27.9753 140.476L27.9568 140.461L27.9383 140.447L27.9199 140.432L27.9014 140.417L27.8829 140.402L27.8644 140.387L27.8459 140.372L27.8274 140.357L27.809 140.342L27.7905 140.327L27.772 140.312L27.7535 140.297L27.735 140.283L27.7166 140.268L27.6981 140.253L27.6796 140.238L27.6611 140.223L27.6427 140.208L27.6242 140.193L27.6057 140.178L27.5872 140.163L27.5688 140.148L27.5503 140.134L27.5318 140.119L27.5134 140.104L27.4949 140.089L27.4764 140.074L27.458 140.059L27.4395 140.044L27.421 140.029L27.4026 140.014L27.3841 139.999L27.3656 139.985L27.3472 139.97L27.3287 139.955L27.3102 139.94L27.2918 139.925L27.2733 139.91L27.2548 139.895L27.2364 139.88L27.2179 139.865L27.1994 139.851L27.181 139.836L27.1625 139.821L27.144 139.806L27.1256 139.791L27.1071 139.776L27.0887 139.761L27.0702 139.746L27.0517 139.731L27.0333 139.716L27.0148 139.702L26.9963 139.687L26.9779 139.672L26.9594 139.657L26.9409 139.642L26.9225 139.627L26.904 139.612L26.8855 139.597L26.8671 139.582L26.8486 139.568L26.8301 139.553L26.8117 139.538L26.7932 139.523L26.7747 139.508L26.7563 139.493L26.7378 139.478L26.7193 139.463L26.7008 139.448L26.6824 139.433L26.6639 139.419L26.6454 139.404L26.6269 139.389L26.6085 139.374L26.59 139.359L26.5715 139.344L26.553 139.329L26.5346 139.314L26.5161 139.299L26.4976 139.284L26.4791 139.27L26.4606 139.255L26.4421 139.24L26.4237 139.225L26.4052 139.21L26.3867 139.195L26.3682 139.18L26.3497 139.165L26.3312 139.15L26.3127 139.135L26.2942 139.12L26.2757 139.105L26.2572 139.091L26.2387 139.076L26.2202 139.061L26.2017 139.046L26.1832 139.031L26.1647 139.016L26.1462 139.001L26.1277 138.986L26.1092 138.971L26.0907 138.956L26.0722 138.941L26.0537 138.926L26.0352 138.911L26.0167 138.896L25.9982 138.882L25.9796 138.867L25.9611 138.852L25.9426 138.837L25.9241 138.822L25.9055 138.807L25.887 138.792L25.8685 138.777L25.85 138.762L25.8314 138.747L25.8129 138.732L25.7944 138.717L25.7758 138.702L25.7573 138.687L25.7387 138.672L25.7202 138.657L25.7016 138.642L25.6831 138.627L25.6645 138.612L25.646 138.598L25.6274 138.583L25.6089 138.568L25.5903 138.553L25.5718 138.538L25.5532 138.523L25.5346 138.508L25.5161 138.493L25.4975 138.478L25.4789 138.463L25.4603 138.448L25.4418 138.433L25.4232 138.418L25.4046 138.403L25.386 138.388L25.3674 138.373L25.3488 138.358L25.3302 138.343L25.3116 138.328L25.293 138.313L25.2744 138.298L25.2558 138.283L25.2372 138.268L25.2186 138.253L25.2 138.238L25.1814 138.223L25.1628 138.208L25.1441 138.193L25.1255 138.178L25.1069 138.163L25.0883 138.148L25.0696 138.133L25.051 138.118L25.0323 138.103L25.0137 138.087L24.9951 138.072L24.9764 138.057L24.9578 138.042L24.9391 138.027L24.9204 138.012L24.9018 137.997L24.8831 137.982L24.8645 137.967L24.8458 137.952L24.8271 137.937L24.8084 137.922L24.7897 137.907L24.7711 137.892L24.7524 137.877L24.7337 137.862L24.715 137.847L24.6963 137.831L24.6776 137.816L24.6589 137.801L24.6402 137.786L24.6215 137.771L24.6027 137.756L24.584 137.741L24.5653 137.726L24.5466 137.711L24.5278 137.696L24.5091 137.68L24.4904 137.665L24.4716 137.65L24.4529 137.635L24.4341 137.62L24.4154 137.605L24.3966 137.59L24.3778 137.575L24.3591 137.559L24.3403 137.544L24.3215 137.529L24.3027 137.514L24.284 137.499L24.2652 137.484L24.2464 137.469L24.2276 137.453L24.2088 137.438L24.19 137.423L24.1712 137.408L24.1524 137.393L24.1335 137.378L24.1147 137.362L24.0959 137.347L24.0771 137.332L24.0582 137.317L24.0394 137.302L24.0205 137.286L24.0017 137.271L23.9828 137.256L23.964 137.241L23.9451 137.226L23.9262 137.21L23.9074 137.195L23.8885 137.18L23.8696 137.165L23.8507 137.149L23.8318 137.134L23.8129 137.119L23.794 137.104L23.7751 137.088L23.7562 137.073L23.7373 137.058L23.7184 137.043L23.6995 137.027L23.6805 137.012L23.6616 136.997L23.6427 136.982L23.6237 136.966L23.6048 136.951L23.5858 136.936L23.5669 136.92L23.5479 136.905L23.5289 136.89L23.51 136.875L23.491 136.859L23.472 136.844L23.453 136.829L23.434 136.813L23.415 136.798L23.396 136.783L23.377 136.767L23.358 136.752L23.3389 136.737L23.3199 136.721L23.3009 136.706L23.2818 136.691L23.2628 136.675L23.2437 136.66L23.2247 136.644L23.2056 136.629L23.1865 136.614L23.1675 136.598L23.1484 136.583L23.1293 136.568L23.1102 136.552L23.0911 136.537L23.072 136.521L23.0529 136.506L23.0338 136.49L23.0147 136.475L22.9955 136.46L22.9764 136.444L22.9573 136.429L22.9381 136.413L22.919 136.398L22.8998 136.382L22.8807 136.367L22.8615 136.351L22.8423 136.336L22.8231 136.321L22.8039 136.305L22.7847 136.29L22.7655 136.274L22.7463 136.259L22.7271 136.243L22.7079 136.228L22.6887 136.212L22.6695 136.197L22.6502 136.181L22.631 136.166L22.6117 136.15L22.5925 136.134L22.5732 136.119L22.5539 136.103L22.5346 136.088L22.5154 136.072L22.4961 136.057L22.4768 136.041L22.4575 136.026L22.4382 136.01L22.4188 135.994L22.3995 135.979L22.3802 135.963L22.3609 135.948C18.2762 132.653 17.1792 126.35 19.9119 121.872L21.5016 119.266C24.2344 114.788 29.7609 113.828 33.8456 117.123Z" stroke="white"/>
</g>
<rect x="0.128995" y="0.741005" width="31.4361" height="96.7955" transform="matrix(0.778434 0.628079 -0.520444 0.85393 74.2457 32.4087)" fill="#FD983A" stroke="white"/>
<path d="M73.9476 32.9034L99.4383 21.3048L98.6289 52.8183L73.9476 32.9034Z" fill="#C4C4C4" stroke="white"/>
<path d="M92.7071 24.035L99.221 21.0548L99.0008 29.1133L92.7071 24.035Z" fill="black" stroke="white"/>
<path d="M134.502 50.8426C134.817 50.7359 135.126 50.6278 135.427 50.5224C136.019 50.3151 136.581 50.1187 137.098 49.9651C137.484 49.8505 137.83 49.7649 138.128 49.7197C138.431 49.6736 138.655 49.6742 138.809 49.7087C138.956 49.7417 138.99 49.7926 139 49.8098C139.017 49.8394 139.062 49.9487 139.029 50.2333C138.961 50.8177 138.605 51.8016 137.781 53.3556C134.509 59.532 124.48 73.6132 101.086 103.973C89.3944 119.145 81.5481 128.33 76.6503 133.009C75.4273 134.178 74.3956 135.058 73.5396 135.679C72.677 136.304 72.0203 136.645 71.5439 136.767C71.0668 136.89 70.8825 136.772 70.8003 136.672C70.6842 136.531 70.5684 136.199 70.5843 135.523C70.6153 134.201 71.1336 132.091 72.0825 129.329C73.0245 126.586 74.3693 123.26 76.0093 119.527C79.2887 112.064 83.7351 103.009 88.4645 93.8171C97.2787 76.6862 105.018 63.8066 110.767 54.9397C113.051 51.4168 116.823 50.9944 121.213 51.1988C122.151 51.2425 123.106 51.3137 124.074 51.386C124.231 51.3977 124.389 51.4095 124.548 51.4212C125.675 51.5045 126.816 51.5831 127.947 51.6128C130.204 51.6722 132.448 51.5381 134.502 50.8426Z" fill="#7AFFDF" stroke="white"/>
<path fill-rule="evenodd" clip-rule="evenodd" d="M138.823 37.7911C141.401 35.9686 144.255 32.7852 146.737 28.7124C151.578 20.7702 153.174 12.453 150.303 10.1355C148.643 8.79552 145.853 9.75455 142.859 12.3371C137.847 11.9731 130.082 12.4805 126.517 18.3252C122.053 25.6446 123.244 34.4772 123.846 37.5289C123.988 38.2445 124.384 38.8633 124.918 39.2943L134.764 47.243C136.684 48.7936 139.248 47.2788 139.131 44.6628L138.823 37.7911Z" fill="#F4A5E8"/>
<path d="M114.361 49.8474C116.099 43.535 117.057 39.9737 121.763 37.7009" stroke="#7AFFDF" stroke-width="3"/>
<path d="M142.708 23.7812C143.404 29.7679 141.543 31.31 137.031 33.097" stroke="white" stroke-width="2"/>
<defs>
<filter id="filter0_d" x="13.9403" y="114.634" width="37.9307" height="39.5484" filterUnits="userSpaceOnUse" color-interpolation-filters="sRGB">
<feFlood flood-opacity="0" result="BackgroundImageFix"/>
<feColorMatrix in="SourceAlpha" type="matrix" values="0 0 0 0 0 0 0 0 0 0 0 0 0 0 0 0 0 0 127 0"/>
<feOffset dy="4"/>
<feGaussianBlur stdDeviation="2"/>
<feColorMatrix type="matrix" values="0 0 0 0 0 0 0 0 0 0 0 0 0 0 0 0 0 0 0.25 0"/>
<feBlend mode="normal" in2="BackgroundImageFix" result="effect1_dropShadow"/>
<feBlend mode="normal" in="SourceGraphic" in2="effect1_dropShadow" result="shape"/>
</filter>
</defs>
</svg>
