<svg width="120" height="120" viewBox="0 0 120 120" fill="none" xmlns="http://www.w3.org/2000/svg">
<ellipse cx="55.5556" cy="62.8571" rx="55.5556" ry="57.1429" fill="#D573C5"/>
<g filter="url(#filter0_d)">
<path d="M15.233 90.1975C17.7169 86.1188 22.7455 85.241 26.4646 88.2369L31.8885 92.6061C35.6077 95.602 36.6091 101.337 34.1252 105.416V105.416C31.6413 109.494 26.6127 110.372 22.8935 107.376C21.053 105.894 19.3102 104.49 17.4697 103.007C13.7505 100.011 12.7491 94.2762 15.233 90.1975V90.1975Z" fill="black"/>
<path d="M26.2045 88.664L31.6284 93.0331C35.1325 95.8558 36.076 101.259 33.7357 105.102C31.3955 108.945 26.6577 109.772 23.1536 106.949L23.1428 106.941L23.132 106.932L23.1212 106.923L23.1105 106.915L23.0997 106.906L23.0889 106.897L23.0782 106.888L23.0674 106.88L23.0566 106.871L23.0459 106.862L23.0351 106.854L23.0243 106.845L23.0136 106.836L23.0028 106.828L22.9921 106.819L22.9813 106.81L22.9706 106.802L22.9598 106.793L22.9491 106.785L22.9383 106.776L22.9276 106.767L22.9169 106.759L22.9061 106.75L22.8954 106.741L22.8847 106.733L22.8739 106.724L22.8632 106.715L22.8525 106.707L22.8418 106.698L22.831 106.689L22.8203 106.681L22.8096 106.672L22.7989 106.664L22.7882 106.655L22.7775 106.646L22.7667 106.638L22.756 106.629L22.7453 106.62L22.7346 106.612L22.7239 106.603L22.7132 106.595L22.7025 106.586L22.6918 106.577L22.6811 106.569L22.6704 106.56L22.6597 106.551L22.6491 106.543L22.6384 106.534L22.6277 106.526L22.617 106.517L22.6063 106.508L22.5956 106.5L22.585 106.491L22.5743 106.483L22.5636 106.474L22.5529 106.465L22.5423 106.457L22.5316 106.448L22.5209 106.44L22.5102 106.431L22.4996 106.422L22.4889 106.414L22.4783 106.405L22.4676 106.397L22.4569 106.388L22.4463 106.379L22.4356 106.371L22.425 106.362L22.4143 106.354L22.4037 106.345L22.393 106.337L22.3824 106.328L22.3717 106.319L22.3611 106.311L22.3504 106.302L22.3398 106.294L22.3292 106.285L22.3185 106.277L22.3079 106.268L22.2973 106.259L22.2866 106.251L22.276 106.242L22.2654 106.234L22.2547 106.225L22.2441 106.217L22.2335 106.208L22.2229 106.2L22.2122 106.191L22.2016 106.182L22.191 106.174L22.1804 106.165L22.1698 106.157L22.1592 106.148L22.1485 106.14L22.1379 106.131L22.1273 106.123L22.1167 106.114L22.1061 106.105L22.0955 106.097L22.0849 106.088L22.0743 106.08L22.0637 106.071L22.0531 106.063L22.0425 106.054L22.0319 106.046L22.0213 106.037L22.0107 106.029L22.0001 106.02L21.9895 106.012L21.9789 106.003L21.9683 105.994L21.9577 105.986L21.9472 105.977L21.9366 105.969L21.926 105.96L21.9154 105.952L21.9048 105.943L21.8942 105.935L21.8836 105.926L21.8731 105.918L21.8625 105.909L21.8519 105.901L21.8413 105.892L21.8308 105.884L21.8202 105.875L21.8096 105.867L21.799 105.858L21.7885 105.85L21.7779 105.841L21.7673 105.833L21.7568 105.824L21.7462 105.816L21.7356 105.807L21.7251 105.799L21.7145 105.79L21.704 105.782L21.6934 105.773L21.6828 105.764L21.6723 105.756L21.6617 105.747L21.6512 105.739L21.6406 105.73L21.6301 105.722L21.6195 105.713L21.6089 105.705L21.5984 105.696L21.5878 105.688L21.5773 105.679L21.5668 105.671L21.5562 105.662L21.5457 105.654L21.5351 105.645L21.5246 105.637L21.514 105.629L21.5035 105.62L21.4929 105.612L21.4824 105.603L21.4719 105.595L21.4613 105.586L21.4508 105.578L21.4402 105.569L21.4297 105.561L21.4192 105.552L21.4086 105.544L21.3981 105.535L21.3876 105.527L21.377 105.518L21.3665 105.51L21.356 105.501L21.3454 105.493L21.3349 105.484L21.3244 105.476L21.3138 105.467L21.3033 105.459L21.2928 105.45L21.2823 105.442L21.2717 105.433L21.2612 105.425L21.2507 105.416L21.2402 105.408L21.2296 105.399L21.2191 105.391L21.2086 105.382L21.1981 105.374L21.1876 105.366L21.177 105.357L21.1665 105.349L21.156 105.34L21.1455 105.332L21.135 105.323L21.1245 105.315L21.1139 105.306L21.1034 105.298L21.0929 105.289L21.0824 105.281L21.0719 105.272L21.0614 105.264L21.0508 105.255L21.0403 105.247L21.0298 105.238L21.0193 105.23L21.0088 105.222L20.9983 105.213L20.9878 105.205L20.9773 105.196L20.9668 105.188L20.9563 105.179L20.9457 105.171L20.9352 105.162L20.9247 105.154L20.9142 105.145L20.9037 105.137L20.8932 105.128L20.8827 105.12L20.8722 105.112L20.8617 105.103L20.8512 105.095L20.8407 105.086L20.8302 105.078L20.8197 105.069L20.8092 105.061L20.7987 105.052L20.7882 105.044L20.7777 105.035L20.7672 105.027L20.7567 105.018L20.7462 105.01L20.7357 105.002L20.7252 104.993L20.7147 104.985L20.7042 104.976L20.6937 104.968L20.6832 104.959L20.6727 104.951L20.6622 104.942L20.6517 104.934L20.6412 104.925L20.6307 104.917L20.6202 104.908L20.6097 104.9L20.5992 104.892L20.5887 104.883L20.5782 104.875L20.5677 104.866L20.5572 104.858L20.5467 104.849L20.5362 104.841L20.5257 104.832L20.5152 104.824L20.5047 104.815L20.4942 104.807L20.4837 104.799L20.4732 104.79L20.4627 104.782L20.4522 104.773L20.4417 104.765L20.4312 104.756L20.4207 104.748L20.4102 104.739L20.3997 104.731L20.3892 104.722L20.3787 104.714L20.3682 104.706L20.3577 104.697L20.3472 104.689L20.3367 104.68L20.3262 104.672L20.3157 104.663L20.3052 104.655L20.2947 104.646L20.2842 104.638L20.2737 104.629L20.2632 104.621L20.2527 104.612L20.2422 104.604L20.2317 104.596L20.2212 104.587L20.2107 104.579L20.2002 104.57L20.1897 104.562L20.1792 104.553L20.1687 104.545L20.1582 104.536L20.1477 104.528L20.1372 104.519L20.1267 104.511L20.1162 104.503L20.1057 104.494L20.0952 104.486L20.0847 104.477L20.0742 104.469L20.0637 104.46L20.0532 104.452L20.0427 104.443L20.0322 104.435L20.0217 104.426L20.0112 104.418L20.0007 104.409L19.9902 104.401L19.9796 104.393L19.9691 104.384L19.9586 104.376L19.9481 104.367L19.9376 104.359L19.9271 104.35L19.9166 104.342L19.9061 104.333L19.8956 104.325L19.8851 104.316L19.8746 104.308L19.8641 104.299L19.8535 104.291L19.843 104.282L19.8325 104.274L19.822 104.266L19.8115 104.257L19.801 104.249L19.7905 104.24L19.7799 104.232L19.7694 104.223L19.7589 104.215L19.7484 104.206L19.7379 104.198L19.7274 104.189L19.7168 104.181L19.7063 104.172L19.6958 104.164L19.6853 104.155L19.6748 104.147L19.6642 104.138L19.6537 104.13L19.6432 104.121L19.6327 104.113L19.6221 104.105L19.6116 104.096L19.6011 104.088L19.5906 104.079L19.58 104.071L19.5695 104.062L19.559 104.054L19.5485 104.045L19.5379 104.037L19.5274 104.028L19.5169 104.02L19.5063 104.011L19.4958 104.003L19.4853 103.994L19.4747 103.986L19.4642 103.977L19.4537 103.969L19.4431 103.96L19.4326 103.952L19.422 103.943L19.4115 103.935L19.401 103.926L19.3904 103.918L19.3799 103.909L19.3693 103.901L19.3588 103.892L19.3483 103.884L19.3377 103.875L19.3272 103.867L19.3166 103.858L19.3061 103.85L19.2955 103.841L19.285 103.833L19.2744 103.824L19.2639 103.816L19.2533 103.807L19.2428 103.799L19.2322 103.79L19.2216 103.782L19.2111 103.773L19.2005 103.765L19.19 103.756L19.1794 103.748L19.1688 103.739L19.1583 103.731L19.1477 103.722L19.1372 103.714L19.1266 103.705L19.116 103.697L19.1055 103.688L19.0949 103.68L19.0843 103.671L19.0737 103.663L19.0632 103.654L19.0526 103.646L19.042 103.637L19.0315 103.629L19.0209 103.62L19.0103 103.612L18.9997 103.603L18.9891 103.595L18.9786 103.586L18.968 103.578L18.9574 103.569L18.9468 103.561L18.9362 103.552L18.9256 103.543L18.915 103.535L18.9044 103.526L18.8939 103.518L18.8833 103.509L18.8727 103.501L18.8621 103.492L18.8515 103.484L18.8409 103.475L18.8303 103.467L18.8197 103.458L18.8091 103.45L18.7985 103.441L18.7879 103.432L18.7773 103.424L18.7667 103.415L18.756 103.407L18.7454 103.398L18.7348 103.39L18.7242 103.381L18.7136 103.373L18.703 103.364L18.6924 103.356L18.6817 103.347L18.6711 103.338L18.6605 103.33L18.6499 103.321L18.6392 103.313L18.6286 103.304L18.618 103.296L18.6074 103.287L18.5967 103.279L18.5861 103.27L18.5755 103.261L18.5648 103.253L18.5542 103.244L18.5436 103.236L18.5329 103.227L18.5223 103.219L18.5116 103.21L18.501 103.201L18.4903 103.193L18.4797 103.184L18.469 103.176L18.4584 103.167L18.4477 103.159L18.4371 103.15L18.4264 103.141L18.4158 103.133L18.4051 103.124L18.3944 103.116L18.3838 103.107L18.3731 103.098L18.3625 103.09L18.3518 103.081L18.3411 103.073L18.3304 103.064L18.3198 103.055L18.3091 103.047L18.2984 103.038L18.2877 103.03L18.2771 103.021L18.2664 103.012L18.2557 103.004L18.245 102.995L18.2343 102.987L18.2236 102.978L18.2129 102.969L18.2022 102.961L18.1915 102.952L18.1808 102.944L18.1701 102.935L18.1594 102.926L18.1487 102.918L18.138 102.909L18.1273 102.9L18.1166 102.892L18.1059 102.883L18.0952 102.875L18.0845 102.866L18.0738 102.857L18.0631 102.849L18.0523 102.84L18.0416 102.831L18.0309 102.823L18.0202 102.814L18.0094 102.805L17.9987 102.797L17.988 102.788L17.9772 102.78L17.9665 102.771L17.9558 102.762L17.945 102.754L17.9343 102.745L17.9235 102.736L17.9128 102.728L17.902 102.719L17.8913 102.71L17.8805 102.702L17.8698 102.693L17.859 102.684L17.8483 102.676L17.8375 102.667L17.8267 102.658L17.816 102.65L17.8052 102.641L17.7944 102.632L17.7837 102.624L17.7729 102.615L17.7621 102.606L17.7513 102.598L17.7406 102.589L17.7298 102.58C14.2257 99.7575 13.2822 94.354 15.6224 90.5112C17.9627 86.6684 22.7005 85.8413 26.2045 88.664Z" stroke="white"/>
</g>
<rect x="0.129352" y="0.740707" width="23.3329" height="72.3485" transform="matrix(0.778913 0.627296 -0.52021 0.854118 55.7712 24.313)" fill="#FD983A" stroke="white"/>
<path d="M55.6991 24.7235L74.4495 16.1713L73.8701 39.3623L55.6991 24.7235Z" fill="#C4C4C4" stroke="white"/>
<path d="M69.7702 18.0638L74.2913 15.9903L74.1424 21.586L69.7702 18.0638Z" fill="black" stroke="white"/>
<path d="M100.914 38.2494C101.153 38.1684 101.385 38.0867 101.612 38.0074C102.054 37.8522 102.471 37.706 102.857 37.5913C103.145 37.5058 103.399 37.4429 103.616 37.4098C103.838 37.3759 103.991 37.3782 104.089 37.3999C104.124 37.4077 104.144 37.416 104.154 37.4216C104.16 37.4442 104.171 37.5078 104.155 37.6402C104.108 38.0498 103.852 38.7681 103.235 39.9332C100.787 44.5543 93.275 55.108 75.7271 77.8883C66.9595 89.2701 61.0798 96.1547 57.4133 99.6594C56.4981 100.534 55.7283 101.191 55.0918 101.653C54.4485 102.119 53.9687 102.366 53.6302 102.453C53.291 102.541 53.2057 102.446 53.187 102.423C53.1342 102.36 53.0463 102.157 53.0578 101.66C53.0802 100.693 53.4616 99.1293 54.1728 97.0576C54.8772 95.0057 55.8838 92.5144 57.1126 89.7167C59.5697 84.1225 62.9021 77.3334 66.4478 70.4396C73.0548 57.5937 78.856 47.9358 83.1649 41.2877C84.8406 38.7024 87.6128 38.3776 90.9062 38.5286C91.6079 38.5608 92.3227 38.6136 93.049 38.6673C93.1674 38.6761 93.2861 38.6848 93.4052 38.6935C94.2511 38.7554 95.1094 38.8139 95.9601 38.8357C97.6586 38.8792 99.3557 38.7777 100.914 38.2494ZM104.163 37.4282C104.163 37.4283 104.162 37.4274 104.16 37.4252C104.163 37.427 104.164 37.4281 104.163 37.4282Z" fill="#7AFFDF" stroke="white"/>
<path fill-rule="evenodd" clip-rule="evenodd" d="M104.123 28.3428C106.056 26.9743 108.195 24.5856 110.056 21.5303C113.685 15.5714 114.879 9.33356 112.724 7.59761C111.456 6.57614 109.311 7.34104 107.02 9.35774C106.785 9.26506 106.529 9.20968 106.255 9.19941C102.517 9.05963 97.3513 9.69599 94.8817 13.7521C91.6627 19.0389 92.3729 25.3729 92.8351 27.8818C92.9673 28.5992 93.3647 29.2174 93.8989 29.6478L99.9192 34.4986C101.841 36.0471 104.404 34.53 104.285 31.9144L104.123 28.3428Z" fill="#F4A5E8"/>
<path d="M85.7709 37.3855C87.0741 32.6517 87.7926 29.981 91.3225 28.2749" stroke="#7AFFDF" stroke-width="3"/>
<path d="M107.03 17.8359C107.554 22.3248 106.158 23.4819 102.773 24.8238" stroke="white" stroke-width="2"/>
<defs>
<filter id="filter0_d" x="9.86841" y="86.4581" width="29.6214" height="30.697" filterUnits="userSpaceOnUse" color-interpolation-filters="sRGB">
<feFlood flood-opacity="0" result="BackgroundImageFix"/>
<feColorMatrix in="SourceAlpha" type="matrix" values="0 0 0 0 0 0 0 0 0 0 0 0 0 0 0 0 0 0 127 0"/>
<feOffset dy="4"/>
<feGaussianBlur stdDeviation="2"/>
<feColorMatrix type="matrix" values="0 0 0 0 0 0 0 0 0 0 0 0 0 0 0 0 0 0 0.25 0"/>
<feBlend mode="normal" in2="BackgroundImageFix" result="effect1_dropShadow"/>
<feBlend mode="normal" in="SourceGraphic" in2="effect1_dropShadow" result="shape"/>
</filter>
</defs>
</svg>
