<svg width="160" height="160" viewBox="0 0 160 160" fill="none" xmlns="http://www.w3.org/2000/svg">
<circle cx="80" cy="80" r="80" fill="#FD983A"/>
<rect x="17.5" y="27.1" width="125" height="73.5902" rx="8.5" fill="black" stroke="white" stroke-width="3"/>
<mask id="path-3-inside-1" fill="white">
<path fill-rule="evenodd" clip-rule="evenodd" d="M89.1429 102.19H72.7819V119.599C60.5741 121.62 51.609 128.326 51.609 136.289C51.609 145.849 64.5356 153.6 80.4812 153.6C96.4269 153.6 109.353 145.849 109.353 136.289C109.353 128.537 100.857 121.976 89.1429 119.77V102.19Z"/>
</mask>
<path fill-rule="evenodd" clip-rule="evenodd" d="M89.1429 102.19H72.7819V119.599C60.5741 121.62 51.609 128.326 51.609 136.289C51.609 145.849 64.5356 153.6 80.4812 153.6C96.4269 153.6 109.353 145.849 109.353 136.289C109.353 128.537 100.857 121.976 89.1429 119.77V102.19Z" fill="black"/>
<path d="M72.7819 102.19V99.1902H69.7819V102.19H72.7819ZM89.1429 102.19H92.1429V99.1902H89.1429V102.19ZM72.7819 119.599L73.2717 122.559L75.7819 122.144V119.599H72.7819ZM89.1429 119.77H86.1429V122.257L88.5877 122.718L89.1429 119.77ZM72.7819 105.19H89.1429V99.1902H72.7819V105.19ZM75.7819 119.599V102.19H69.7819V119.599H75.7819ZM54.609 136.289C54.609 133.522 56.1593 130.646 59.4572 128.086C62.748 125.531 67.5453 123.507 73.2717 122.559L72.2921 116.64C65.8107 117.712 60.0215 120.052 55.7779 123.346C51.5413 126.635 48.609 131.092 48.609 136.289H54.609ZM80.4812 150.6C72.9583 150.6 66.2928 148.766 61.6082 145.957C56.8636 143.112 54.609 139.6 54.609 136.289H48.609C48.609 142.538 52.8177 147.682 58.5228 151.103C64.2879 154.559 72.0585 156.6 80.4812 156.6V150.6ZM106.353 136.289C106.353 139.6 104.099 143.112 99.3542 145.957C94.6696 148.766 88.0042 150.6 80.4812 150.6V156.6C88.9039 156.6 96.6746 154.559 102.44 151.103C108.145 147.682 112.353 142.538 112.353 136.289H106.353ZM88.5877 122.718C94.0752 123.751 98.6395 125.778 101.761 128.288C104.885 130.799 106.353 133.594 106.353 136.289H112.353C112.353 131.232 109.573 126.87 105.521 123.611C101.465 120.351 95.9243 117.994 89.6981 116.821L88.5877 122.718ZM86.1429 102.19V119.77H92.1429V102.19H86.1429Z" fill="white" mask="url(#path-3-inside-1)"/>
<rect width="6.84928" height="41.3686" transform="matrix(0.891429 0.45316 -0.393274 0.919421 86.8512 43.2108)" fill="white"/>
<path d="M65.0827 48.6819L45.8346 59.7585L60.2707 78.059" stroke="white" stroke-width="5"/>
<path d="M65.0827 48.6819L45.8346 59.7585L60.2707 78.059" stroke="white" stroke-width="5"/>
<path d="M98.7669 79.1082L118.015 68.0316L103.579 49.7312" stroke="white" stroke-width="5"/>
</svg>
