<svg width="120" height="120" viewBox="0 0 120 120" fill="none" xmlns="http://www.w3.org/2000/svg">
<circle cx="60" cy="60" r="60" fill="#FD983A"/>
<rect x="13.5" y="20.7" width="93" height="54.4426" rx="8.5" fill="black" stroke="white" stroke-width="3"/>
<mask id="path-3-inside-1" fill="white">
<path fill-rule="evenodd" clip-rule="evenodd" d="M66.8571 76.6426H54.5865V89.6996C45.4306 91.2147 38.7068 96.2448 38.7068 102.216C38.7068 109.387 48.4017 115.2 60.3609 115.2C72.3202 115.2 82.015 109.387 82.015 102.216C82.015 96.4028 75.6425 91.4817 66.8571 89.8272V76.6426Z"/>
</mask>
<path fill-rule="evenodd" clip-rule="evenodd" d="M66.8571 76.6426H54.5865V89.6996C45.4306 91.2147 38.7068 96.2448 38.7068 102.216C38.7068 109.387 48.4017 115.2 60.3609 115.2C72.3202 115.2 82.015 109.387 82.015 102.216C82.015 96.4028 75.6425 91.4817 66.8571 89.8272V76.6426Z" fill="black"/>
<path d="M54.5865 76.6426V73.6426H51.5865V76.6426H54.5865ZM66.8571 76.6426H69.8571V73.6426H66.8571V76.6426ZM54.5865 89.6996L55.0763 92.6593L57.5865 92.2439V89.6996H54.5865ZM66.8571 89.8272H63.8571V92.315L66.3019 92.7754L66.8571 89.8272ZM54.5865 79.6426H66.8571V73.6426H54.5865V79.6426ZM57.5865 89.6996V76.6426H51.5865V89.6996H57.5865ZM41.7068 102.216C41.7068 100.446 42.6968 98.4855 45.0528 96.6566C47.4018 94.833 50.8758 93.3544 55.0763 92.6593L54.0967 86.7398C49.1412 87.5599 44.6753 89.3539 41.3735 91.917C38.0787 94.4748 35.7068 98.0156 35.7068 102.216H41.7068ZM60.3609 112.2C54.8312 112.2 49.9702 110.85 46.5918 108.824C43.1534 106.763 41.7068 104.333 41.7068 102.216H35.7068C35.7068 107.271 39.1076 111.333 43.5064 113.97C47.9653 116.644 53.9314 118.2 60.3609 118.2V112.2ZM79.015 102.216C79.015 104.333 77.5684 106.763 74.13 108.824C70.7516 110.85 65.8906 112.2 60.3609 112.2V118.2C66.7904 118.2 72.7565 116.644 77.2154 113.97C81.6142 111.333 85.015 107.271 85.015 102.216H79.015ZM66.3019 92.7754C70.3252 93.533 73.6264 95.0118 75.8508 96.8002C78.0777 98.5905 79.015 100.491 79.015 102.216H85.015C85.015 98.1283 82.7661 94.6613 79.6104 92.1241C76.4521 89.5849 72.1744 87.7758 67.4123 86.879L66.3019 92.7754ZM63.8571 76.6426V89.8272H69.8571V76.6426H63.8571Z" fill="white" mask="url(#path-3-inside-1)"/>
<rect width="5.13696" height="31.0265" transform="matrix(0.891429 0.45316 -0.393274 0.919421 65.1384 32.4081)" fill="white"/>
<path d="M48.812 36.5115L34.3759 44.8189L45.203 58.5443" stroke="white" stroke-width="5"/>
<path d="M48.812 36.5115L34.3759 44.8189L45.203 58.5443" stroke="white" stroke-width="5"/>
<path d="M74.0752 59.3312L88.5113 51.0237L77.6842 37.2984" stroke="white" stroke-width="5"/>
</svg>
