<svg width="220" height="51" viewBox="0 0 220 51" fill="none" xmlns="http://www.w3.org/2000/svg">
<g style="mix-blend-mode:screen">
<rect width="220" height="51" rx="8" fill="#6CC8A1"/>
</g>
<g style="mix-blend-mode:darken">
<path d="M59.4549 20.8L54.5429 32H52.9589L48.0309 20.8H49.7589L53.7909 30L57.8549 20.8H59.4549ZM60.8831 20.8H62.4831V32H60.8831V20.8ZM73.9643 30.608V32H65.8363V20.8H73.7403V22.192H67.4363V25.632H73.0523V26.992H67.4363V30.608H73.9643ZM92.2228 20.8L88.4788 32H86.7988L83.7428 23.056L80.6868 32H78.9748L75.2308 20.8H76.8788L79.9028 29.904L83.0548 20.8H84.5268L87.6148 29.952L90.7028 20.8H92.2228ZM103.079 20.8C104.53 20.8 105.671 21.1467 106.503 21.84C107.335 22.5333 107.751 23.488 107.751 24.704C107.751 25.92 107.335 26.8747 106.503 27.568C105.671 28.2613 104.53 28.608 103.079 28.608H100.311V32H98.7113V20.8H103.079ZM103.031 27.216C104.045 27.216 104.818 27.0027 105.351 26.576C105.885 26.1387 106.151 25.5147 106.151 24.704C106.151 23.8933 105.885 23.2747 105.351 22.848C104.818 22.4107 104.045 22.192 103.031 22.192H100.311V27.216H103.031ZM117.59 32L115.174 28.56C114.875 28.5813 114.641 28.592 114.47 28.592H111.702V32H110.102V20.8H114.47C115.921 20.8 117.062 21.1467 117.894 21.84C118.726 22.5333 119.142 23.488 119.142 24.704C119.142 25.568 118.929 26.304 118.502 26.912C118.075 27.52 117.467 27.9627 116.678 28.24L119.334 32H117.59ZM114.422 27.232C115.435 27.232 116.209 27.0133 116.742 26.576C117.275 26.1387 117.542 25.5147 117.542 24.704C117.542 23.8933 117.275 23.2747 116.742 22.848C116.209 22.4107 115.435 22.192 114.422 22.192H111.702V27.232H114.422ZM126.783 32.128C125.652 32.128 124.634 31.8827 123.727 31.392C122.82 30.8907 122.106 30.2027 121.583 29.328C121.071 28.4533 120.815 27.4773 120.815 26.4C120.815 25.3227 121.071 24.3467 121.583 23.472C122.106 22.5973 122.82 21.9147 123.727 21.424C124.634 20.9227 125.652 20.672 126.783 20.672C127.903 20.672 128.916 20.9227 129.823 21.424C130.73 21.9147 131.439 22.5973 131.951 23.472C132.463 24.336 132.719 25.312 132.719 26.4C132.719 27.488 132.463 28.4693 131.951 29.344C131.439 30.208 130.73 30.8907 129.823 31.392C128.916 31.8827 127.903 32.128 126.783 32.128ZM126.783 30.704C127.604 30.704 128.34 30.5173 128.991 30.144C129.652 29.7707 130.17 29.2587 130.543 28.608C130.927 27.9467 131.119 27.2107 131.119 26.4C131.119 25.5893 130.927 24.8587 130.543 24.208C130.17 23.5467 129.652 23.0293 128.991 22.656C128.34 22.2827 127.604 22.096 126.783 22.096C125.962 22.096 125.215 22.2827 124.543 22.656C123.882 23.0293 123.359 23.5467 122.975 24.208C122.602 24.8587 122.415 25.5893 122.415 26.4C122.415 27.2107 122.602 27.9467 122.975 28.608C123.359 29.2587 123.882 29.7707 124.543 30.144C125.215 30.5173 125.962 30.704 126.783 30.704ZM136.37 32.128C135.698 32.128 135.074 31.9893 134.498 31.712C133.922 31.424 133.458 31.024 133.106 30.512L134.034 29.424C134.653 30.3093 135.431 30.752 136.37 30.752C136.999 30.752 137.474 30.56 137.794 30.176C138.125 29.792 138.29 29.2267 138.29 28.48V22.192H134.242V20.8H139.874V28.4C139.874 29.6373 139.575 30.5707 138.978 31.2C138.391 31.8187 137.522 32.128 136.37 32.128ZM151.261 30.608V32H143.133V20.8H151.037V22.192H144.733V25.632H150.349V26.992H144.733V30.608H151.261ZM158.813 32.128C157.693 32.128 156.68 31.8827 155.773 31.392C154.877 30.8907 154.173 30.208 153.661 29.344C153.149 28.4693 152.893 27.488 152.893 26.4C152.893 25.312 153.149 24.336 153.661 23.472C154.173 22.5973 154.882 21.9147 155.789 21.424C156.696 20.9227 157.709 20.672 158.829 20.672C159.704 20.672 160.504 20.8213 161.229 21.12C161.954 21.408 162.573 21.84 163.085 22.416L162.045 23.424C161.202 22.5387 160.152 22.096 158.893 22.096C158.061 22.096 157.309 22.2827 156.637 22.656C155.965 23.0293 155.437 23.5467 155.053 24.208C154.68 24.8587 154.493 25.5893 154.493 26.4C154.493 27.2107 154.68 27.9467 155.053 28.608C155.437 29.2587 155.965 29.7707 156.637 30.144C157.309 30.5173 158.061 30.704 158.893 30.704C160.141 30.704 161.192 30.256 162.045 29.36L163.085 30.368C162.573 30.944 161.949 31.3813 161.213 31.68C160.488 31.9787 159.688 32.128 158.813 32.128ZM167.467 22.192H163.627V20.8H172.891V22.192H169.051V32H167.467V22.192Z" fill="#6CC8A1"/>
</g>
</svg>
