<svg width="934" height="500" viewBox="0 0 934 500" fill="none" xmlns="http://www.w3.org/2000/svg">
<g filter="url(#filter0_d)">
<path d="M191 228H227V263H191V228Z" fill="#F8EE94"/>
<path d="M197 211H208V228H197V211Z" fill="#F8EE94"/>
<path d="M197 199.5C197 203.09 194.314 206 191 206C187.686 206 185 203.09 185 199.5C185 195.91 187.686 193 191 193C194.314 193 197 195.91 197 199.5Z" fill="#F8EE94"/>
<path d="M178 189.5C178 191.433 176.209 193 174 193C171.791 193 170 191.433 170 189.5C170 187.567 171.791 186 174 186C176.209 186 178 187.567 178 189.5Z" fill="#F8EE94"/>
<path d="M203 245H215V262H203V245Z" fill="#F8EE94"/>
<path d="M207.5 208L230.45 232H184.55L207.5 208Z" fill="#F8EE94"/>
<path d="M191 227H190.715L196 221.473V227H191ZM186.89 231L190 227.748V228V231H186.89ZM198 227V219.382L205.059 212H207V227H198ZM202.291 212L198 216.488V212H202.291ZM208 210H206.971L207.5 209.447L208.029 210H208ZM209 211.016L224.285 227H209V211.016ZM208 229H209H226V231H192V229H196H197H208ZM228 231V230.885L228.11 231H228ZM192 233H226V262H216V245V244H215H203H202V245V262H192V233ZM214 246V261H204V246H214ZM196 199.5C196 202.614 193.688 205 191 205C188.312 205 186 202.614 186 199.5C186 196.386 188.312 194 191 194C193.688 194 196 196.386 196 199.5ZM177 189.5C177 190.759 175.786 192 174 192C172.214 192 171 190.759 171 189.5C171 188.241 172.214 187 174 187C175.786 187 177 188.241 177 189.5Z" stroke="white" stroke-width="2"/>
</g>
<path d="M814.84 307.25L832 280.759L849.16 307.25H814.84Z" fill="#4FC7ED" stroke="white" stroke-width="3"/>
<path d="M187.573 231L208 212.046L228.427 231H187.573Z" fill="#F8EE94" stroke="white" stroke-width="3"/>
<rect width="934" height="500" fill="#B4DAE7"/>
<rect width="934" height="500" fill="url(#paint0_linear)" fill-opacity="0.6"/>
<g filter="url(#filter1_d)">
<path d="M507.708 146.459L632.415 378.209H383L507.708 146.459Z" fill="#6CC8A1"/>
</g>
<path d="M483.602 230.874L476.482 203.274L509.957 139.302L531.677 187.613L542.315 211.275L517.582 231.426L502.97 210.636L483.602 230.874Z" fill="white" stroke="white"/>
<g filter="url(#filter2_d)">
<path d="M756.708 146.459L881.415 378.209H632L756.708 146.459Z" fill="#6CC8A1"/>
</g>
<path d="M732.602 230.874L725.482 203.274L758.957 139.302L780.677 187.613L791.315 211.275L766.582 231.426L751.97 210.636L732.602 230.874Z" fill="white" stroke="white"/>
<g filter="url(#filter3_d)">
<path d="M255.708 146.459L380.415 378.209H131L255.708 146.459Z" fill="#6CC8A1"/>
</g>
<path d="M231.602 230.874L224.482 203.274L257.957 139.302L279.677 187.613L290.315 211.275L265.582 231.426L250.97 210.636L231.602 230.874Z" fill="white" stroke="white"/>
<g filter="url(#filter4_d)">
<mask id="path-12-inside-1" fill="white">
<path fill-rule="evenodd" clip-rule="evenodd" d="M337.388 291.75L320.5 240L303.613 291.75H316V309H325V291.75H337.388Z"/>
</mask>
<path fill-rule="evenodd" clip-rule="evenodd" d="M337.388 291.75L320.5 240L303.613 291.75H316V309H325V291.75H337.388Z" fill="#D573C5"/>
<path d="M320.5 240L322.401 239.38L320.5 233.553L318.599 239.38L320.5 240ZM337.388 291.75V293.75H340.144L339.289 291.13L337.388 291.75ZM303.613 291.75L301.711 291.13L300.856 293.75H303.613V291.75ZM316 291.75H318V289.75H316V291.75ZM316 309H314V311H316V309ZM325 309V311H327V309H325ZM325 291.75V289.75H323V291.75H325ZM318.599 240.62L335.486 292.37L339.289 291.13L322.401 239.38L318.599 240.62ZM305.514 292.37L322.401 240.62L318.599 239.38L301.711 291.13L305.514 292.37ZM316 289.75H303.613V293.75H316V289.75ZM318 309V291.75H314V309H318ZM325 307H316V311H325V307ZM323 291.75V309H327V291.75H323ZM337.388 289.75H325V293.75H337.388V289.75Z" fill="white" mask="url(#path-12-inside-1)"/>
</g>
<g filter="url(#filter5_d)">
<mask id="path-14-inside-2" fill="white">
<path fill-rule="evenodd" clip-rule="evenodd" d="M798.775 286.25L783.887 257L769 286.25H779.92V296H787.855V286.25H798.775Z"/>
</mask>
<path fill-rule="evenodd" clip-rule="evenodd" d="M798.775 286.25L783.887 257L769 286.25H779.92V296H787.855V286.25H798.775Z" fill="#F4A5E8"/>
<path d="M783.887 257L785.67 256.093L783.887 252.591L782.105 256.093L783.887 257ZM798.775 286.25V288.25H802.037L800.557 285.343L798.775 286.25ZM769 286.25L767.218 285.343L765.738 288.25H769V286.25ZM779.92 286.25H781.92V284.25H779.92V286.25ZM779.92 296H777.92V298H779.92V296ZM787.855 296V298H789.855V296H787.855ZM787.855 286.25V284.25H785.855V286.25H787.855ZM782.105 257.907L796.993 287.157L800.557 285.343L785.67 256.093L782.105 257.907ZM770.782 287.157L785.67 257.907L782.105 256.093L767.218 285.343L770.782 287.157ZM779.92 284.25H769V288.25H779.92V284.25ZM781.92 296V286.25H777.92V296H781.92ZM787.855 294H779.92V298H787.855V294ZM785.855 286.25V296H789.855V286.25H785.855ZM798.775 284.25H787.855V288.25H798.775V284.25Z" fill="white" mask="url(#path-14-inside-2)"/>
</g>
<g filter="url(#filter6_d)">
<mask id="path-16-inside-3" fill="white">
<path fill-rule="evenodd" clip-rule="evenodd" d="M250.775 327.5L235.887 296L221 327.5H231.92V338H239.855V327.5H250.775Z"/>
</mask>
<path fill-rule="evenodd" clip-rule="evenodd" d="M250.775 327.5L235.887 296L221 327.5H231.92V338H239.855V327.5H250.775Z" fill="#4FC7ED"/>
<path d="M235.887 296L237.696 295.145L235.887 291.319L234.079 295.145L235.887 296ZM250.775 327.5V329.5H253.932L252.583 326.645L250.775 327.5ZM221 327.5L219.192 326.645L217.843 329.5H221V327.5ZM231.92 327.5H233.92V325.5H231.92V327.5ZM231.92 338H229.92V340H231.92V338ZM239.855 338V340H241.855V338H239.855ZM239.855 327.5V325.5H237.855V327.5H239.855ZM234.079 296.855L248.967 328.355L252.583 326.645L237.696 295.145L234.079 296.855ZM222.808 328.355L237.696 296.855L234.079 295.145L219.192 326.645L222.808 328.355ZM231.92 325.5H221V329.5H231.92V325.5ZM233.92 338V327.5H229.92V338H233.92ZM239.855 336H231.92V340H239.855V336ZM237.855 327.5V338H241.855V327.5H237.855ZM250.775 325.5H239.855V329.5H250.775V325.5Z" fill="white" mask="url(#path-16-inside-3)"/>
</g>
<g filter="url(#filter7_d)">
<mask id="path-18-inside-4" fill="white">
<path fill-rule="evenodd" clip-rule="evenodd" d="M475.775 234L460.887 186L446 234H456.92V250H464.855V234H475.775Z"/>
</mask>
<path fill-rule="evenodd" clip-rule="evenodd" d="M475.775 234L460.887 186L446 234H456.92V250H464.855V234H475.775Z" fill="#F8EE94"/>
<path d="M460.887 186L462.798 185.408L460.887 179.249L458.977 185.408L460.887 186ZM475.775 234V236H478.489L477.685 233.408L475.775 234ZM446 234L444.09 233.408L443.286 236H446V234ZM456.92 234H458.92V232H456.92V234ZM456.92 250H454.92V252H456.92V250ZM464.855 250V252H466.855V250H464.855ZM464.855 234V232H462.855V234H464.855ZM458.977 186.592L473.865 234.592L477.685 233.408L462.798 185.408L458.977 186.592ZM447.91 234.592L462.798 186.592L458.977 185.408L444.09 233.408L447.91 234.592ZM456.92 232H446V236H456.92V232ZM458.92 250V234H454.92V250H458.92ZM464.855 248H456.92V252H464.855V248ZM462.855 234V250H466.855V234H462.855ZM475.775 232H464.855V236H475.775V232Z" fill="white" mask="url(#path-18-inside-4)"/>
</g>
<g filter="url(#filter8_d)">
<mask id="path-20-inside-5" fill="white">
<path fill-rule="evenodd" clip-rule="evenodd" d="M748 347.25L728.5 309L709 347.25H723.304V360H733.696V347.25H748Z"/>
</mask>
<path fill-rule="evenodd" clip-rule="evenodd" d="M748 347.25L728.5 309L709 347.25H723.304V360H733.696V347.25H748Z" fill="#7AFFDF"/>
<path d="M728.5 309L730.282 308.092L728.5 304.597L726.718 308.092L728.5 309ZM748 347.25V349.25H751.265L749.782 346.342L748 347.25ZM709 347.25L707.218 346.342L705.735 349.25H709V347.25ZM723.304 347.25H725.304V345.25H723.304V347.25ZM723.304 360H721.304V362H723.304V360ZM733.696 360V362H735.696V360H733.696ZM733.696 347.25V345.25H731.696V347.25H733.696ZM726.718 309.908L746.218 348.158L749.782 346.342L730.282 308.092L726.718 309.908ZM710.782 348.158L730.282 309.908L726.718 308.092L707.218 346.342L710.782 348.158ZM723.304 345.25H709V349.25H723.304V345.25ZM725.304 360V347.25H721.304V360H725.304ZM733.696 358H723.304V362H733.696V358ZM731.696 347.25V360H735.696V347.25H731.696ZM748 345.25H733.696V349.25H748V345.25Z" fill="white" mask="url(#path-20-inside-5)"/>
</g>
<g filter="url(#filter9_d)">
<mask id="path-22-inside-6" fill="white">
<path fill-rule="evenodd" clip-rule="evenodd" d="M587.775 263.25L572.887 240L558 263.25H569V275H577V263.25H587.775Z"/>
</mask>
<path fill-rule="evenodd" clip-rule="evenodd" d="M587.775 263.25L572.887 240L558 263.25H569V275H577V263.25H587.775Z" fill="#A74AF0"/>
<path d="M572.887 240L574.572 238.922L572.887 236.291L571.203 238.922L572.887 240ZM587.775 263.25V265.25H591.431L589.459 262.172L587.775 263.25ZM558 263.25L556.316 262.172L554.344 265.25H558V263.25ZM569 263.25H571V261.25H569V263.25ZM569 275H567V277H569V275ZM577 275V277H579V275H577ZM577 263.25V261.25H575V263.25H577ZM571.203 241.078L586.091 264.328L589.459 262.172L574.572 238.922L571.203 241.078ZM559.684 264.328L574.572 241.078L571.203 238.922L556.316 262.172L559.684 264.328ZM569 261.25H558V265.25H569V261.25ZM571 275V263.25H567V275H571ZM577 273H569V277H577V273ZM575 263.25V275H579V263.25H575ZM587.775 261.25H577V265.25H587.775V261.25Z" fill="white" mask="url(#path-22-inside-6)"/>
</g>
<g filter="url(#filter10_d)">
<mask id="path-24-inside-7" fill="white">
<path fill-rule="evenodd" clip-rule="evenodd" d="M537.775 320L522.887 296L508 320H519V343H527V320H537.775Z"/>
</mask>
<path fill-rule="evenodd" clip-rule="evenodd" d="M537.775 320L522.887 296L508 320H519V343H527V320H537.775Z" fill="#FD983A"/>
<path d="M522.887 296L524.587 294.946L522.887 292.206L521.188 294.946L522.887 296ZM537.775 320V322H541.369L539.475 318.946L537.775 320ZM508 320L506.3 318.946L504.406 322H508V320ZM519 320H521V318H519V320ZM519 343H517V345H519V343ZM527 343V345H529V343H527ZM527 320V318H525V320H527ZM521.188 297.054L536.075 321.054L539.475 318.946L524.587 294.946L521.188 297.054ZM509.7 321.054L524.587 297.054L521.188 294.946L506.3 318.946L509.7 321.054ZM519 318H508V322H519V318ZM521 343V320H517V343H521ZM527 341H519V345H527V341ZM525 320V343H529V320H525ZM537.775 318H527V322H537.775V318Z" fill="white" mask="url(#path-24-inside-7)"/>
</g>
<path d="M844 306.5H845.5H848.5V338.5H839.5V322V320.5H838H826H824.5V322V338.5H815.5V306.5H831.5H833H844ZM836.5 323.5V337.5H827.5V323.5H836.5ZM834.5 289.5H842.5V303.5H834.5V289.5ZM850 281.5C847.626 281.5 845.5 279.377 845.5 276.5C845.5 273.623 847.626 271.5 850 271.5C852.374 271.5 854.5 273.623 854.5 276.5C854.5 279.377 852.374 281.5 850 281.5ZM867 268.5C865.425 268.5 864.5 267.423 864.5 266.5C864.5 265.577 865.425 264.5 867 264.5C868.575 264.5 869.5 265.577 869.5 266.5C869.5 267.423 868.575 268.5 867 268.5ZM882.5 255C882.5 255.015 882.496 255.11 882.331 255.243C882.162 255.378 881.874 255.5 881.5 255.5C881.126 255.5 880.838 255.378 880.669 255.243C880.504 255.11 880.5 255.015 880.5 255C880.5 254.985 880.504 254.89 880.669 254.757C880.838 254.622 881.126 254.5 881.5 254.5C881.874 254.5 882.162 254.622 882.331 254.757C882.496 254.89 882.5 254.985 882.5 255Z" fill="#4FC7ED" stroke="white" stroke-width="3"/>
<g filter="url(#filter11_d)">
<path d="M850 305H814V340H850V305Z" fill="#4FC7ED"/>
<path d="M844 288H833V305H844V288Z" fill="#4FC7ED"/>
<path d="M844 276.5C844 280.09 846.686 283 850 283C853.314 283 856 280.09 856 276.5C856 272.91 853.314 270 850 270C846.686 270 844 272.91 844 276.5Z" fill="#4FC7ED"/>
<path d="M863 266.5C863 268.433 864.791 270 867 270C869.209 270 871 268.433 871 266.5C871 264.567 869.209 263 867 263C864.791 263 863 264.567 863 266.5Z" fill="#4FC7ED"/>
<path d="M838 322H826V339H838V322Z" fill="#4FC7ED"/>
<path d="M884 255C884 256.105 882.881 257 881.5 257C880.119 257 879 256.105 879 255C879 253.895 880.119 253 881.5 253C882.881 253 884 253.895 884 255Z" fill="#4FC7ED"/>
<path d="M844 306.5H845.5H848.5V338.5H839.5V322V320.5H838H826H824.5V322V338.5H815.5V306.5H831.5H833H844ZM836.5 323.5V337.5H827.5V323.5H836.5ZM834.5 289.5H842.5V303.5H834.5V289.5ZM850 281.5C847.626 281.5 845.5 279.377 845.5 276.5C845.5 273.623 847.626 271.5 850 271.5C852.374 271.5 854.5 273.623 854.5 276.5C854.5 279.377 852.374 281.5 850 281.5ZM867 268.5C865.425 268.5 864.5 267.423 864.5 266.5C864.5 265.577 865.425 264.5 867 264.5C868.575 264.5 869.5 265.577 869.5 266.5C869.5 267.423 868.575 268.5 867 268.5ZM882.5 255C882.5 255.015 882.496 255.11 882.331 255.243C882.162 255.378 881.874 255.5 881.5 255.5C881.126 255.5 880.838 255.378 880.669 255.243C880.504 255.11 880.5 255.015 880.5 255C880.5 254.985 880.504 254.89 880.669 254.757C880.838 254.622 881.126 254.5 881.5 254.5C881.874 254.5 882.162 254.622 882.331 254.757C882.496 254.89 882.5 254.985 882.5 255Z" stroke="white" stroke-width="3"/>
</g>
<g filter="url(#filter12_d)">
<path d="M187.75 228H216.036V263H187.75V228Z" fill="#F8EE94"/>
<path d="M192.464 211H201.107V228H192.464V211Z" fill="#F8EE94"/>
<path d="M192.464 199.5C192.464 203.09 190.354 206 187.75 206C185.146 206 183.036 203.09 183.036 199.5C183.036 195.91 185.146 193 187.75 193C190.354 193 192.464 195.91 192.464 199.5Z" fill="#F8EE94"/>
<path d="M177.536 189.5C177.536 191.433 176.129 193 174.393 193C172.657 193 171.25 191.433 171.25 189.5C171.25 187.567 172.657 186 174.393 186C176.129 186 177.536 187.567 177.536 189.5Z" fill="#F8EE94"/>
<path d="M197.179 245H206.607V262H197.179V245Z" fill="#F8EE94"/>
<path d="M193.964 226.5H199.607V212.5H193.964V226.5ZM192.464 229.5H190.964H189.25V261.5H195.679V245V243.5H197.179H206.607H208.107V245V261.5H214.536V229.5H202.607H201.107H192.464ZM198.679 246.5V260.5H205.107V246.5H198.679ZM187.75 204.5C188.452 204.5 189.22 204.111 189.869 203.216C190.517 202.322 190.964 201.013 190.964 199.5C190.964 197.987 190.517 196.678 189.869 195.784C189.22 194.889 188.452 194.5 187.75 194.5C187.048 194.5 186.28 194.889 185.631 195.784C184.983 196.678 184.536 197.987 184.536 199.5C184.536 201.013 184.983 202.322 185.631 203.216C186.28 204.111 187.048 204.5 187.75 204.5ZM174.393 191.5C175.152 191.5 176.036 190.76 176.036 189.5C176.036 188.24 175.152 187.5 174.393 187.5C173.633 187.5 172.75 188.24 172.75 189.5C172.75 190.76 173.633 191.5 174.393 191.5Z" stroke="white" stroke-width="3"/>
</g>
<g filter="url(#filter13_d)">
<ellipse cx="312" cy="67" rx="50" ry="40" fill="#F8EE94"/>
</g>
<g filter="url(#filter14_d)">
<path fill-rule="evenodd" clip-rule="evenodd" d="M132.78 225H59.2195C50.814 225 44 219.627 44 213C44 206.373 50.814 201 59.2195 201H59.8588C59.4415 199.722 59.2195 198.381 59.2195 197C59.2195 188.163 68.3049 181 79.5122 181C83.6785 181 87.5516 181.99 90.7737 183.688C94.8408 178.46 101.911 175 109.951 175C122.559 175 132.78 183.507 132.78 194C132.78 196.472 132.213 198.834 131.181 201H132.78C141.186 201 148 206.373 148 213C148 219.627 141.186 225 132.78 225Z" fill="white"/>
</g>
<g filter="url(#filter15_d)">
<path fill-rule="evenodd" clip-rule="evenodd" d="M588 116.5C588 136.658 609.49 153 636 153H700C723.748 153 743 141.136 743 126.5C743 111.864 723.748 100 700 100C692.995 100 686.382 101.032 680.538 102.863C673.434 89.4599 656.17 80 636 80C609.49 80 588 96.3416 588 116.5Z" fill="white"/>
</g>
<path d="M186.298 231L202.5 212.291L218.702 231H186.298Z" fill="#F8EE94" stroke="white" stroke-width="3"/>
<path d="M811.456 310L831.5 291.064L851.544 310H811.456Z" fill="#4FC7ED" stroke="white" stroke-width="3"/>
<path d="M400.776 402.2V419H399.024V411.248H388.512V419H386.736V402.2H388.512V409.688H399.024V402.2H400.776ZM416.891 413.216H406.331C406.427 414.528 406.931 415.592 407.843 416.408C408.755 417.208 409.907 417.608 411.299 417.608C412.083 417.608 412.803 417.472 413.459 417.2C414.115 416.912 414.683 416.496 415.163 415.952L416.123 417.056C415.563 417.728 414.859 418.24 414.011 418.592C413.179 418.944 412.259 419.12 411.251 419.12C409.955 419.12 408.803 418.848 407.795 418.304C406.803 417.744 406.027 416.976 405.467 416C404.907 415.024 404.627 413.92 404.627 412.688C404.627 411.456 404.891 410.352 405.419 409.376C405.963 408.4 406.699 407.64 407.627 407.096C408.571 406.552 409.627 406.28 410.795 406.28C411.963 406.28 413.011 406.552 413.939 407.096C414.867 407.64 415.595 408.4 416.123 409.376C416.651 410.336 416.915 411.44 416.915 412.688L416.891 413.216ZM410.795 407.744C409.579 407.744 408.555 408.136 407.723 408.92C406.907 409.688 406.443 410.696 406.331 411.944H415.283C415.171 410.696 414.699 409.688 413.867 408.92C413.051 408.136 412.027 407.744 410.795 407.744ZM420.384 401.192H422.088V419H420.384V401.192ZM426.829 401.192H428.533V419H426.829V401.192ZM438.434 419.12C437.218 419.12 436.122 418.848 435.146 418.304C434.17 417.744 433.402 416.976 432.842 416C432.282 415.024 432.002 413.92 432.002 412.688C432.002 411.456 432.282 410.352 432.842 409.376C433.402 408.4 434.17 407.64 435.146 407.096C436.122 406.552 437.218 406.28 438.434 406.28C439.65 406.28 440.746 406.552 441.722 407.096C442.698 407.64 443.458 408.4 444.002 409.376C444.562 410.352 444.842 411.456 444.842 412.688C444.842 413.92 444.562 415.024 444.002 416C443.458 416.976 442.698 417.744 441.722 418.304C440.746 418.848 439.65 419.12 438.434 419.12ZM438.434 417.608C439.33 417.608 440.13 417.408 440.834 417.008C441.554 416.592 442.114 416.008 442.514 415.256C442.914 414.504 443.114 413.648 443.114 412.688C443.114 411.728 442.914 410.872 442.514 410.12C442.114 409.368 441.554 408.792 440.834 408.392C440.13 407.976 439.33 407.768 438.434 407.768C437.538 407.768 436.73 407.976 436.01 408.392C435.306 408.792 434.746 409.368 434.33 410.12C433.93 410.872 433.73 411.728 433.73 412.688C433.73 413.648 433.93 414.504 434.33 415.256C434.746 416.008 435.306 416.592 436.01 417.008C436.73 417.408 437.538 417.608 438.434 417.608ZM448.162 416.504C448.53 416.504 448.834 416.632 449.074 416.888C449.314 417.128 449.434 417.432 449.434 417.8C449.434 417.992 449.402 418.2 449.338 418.424C449.29 418.648 449.21 418.904 449.098 419.192L448.09 422.504H446.938L447.754 419.024C447.498 418.944 447.29 418.8 447.13 418.592C446.97 418.368 446.89 418.104 446.89 417.8C446.89 417.432 447.01 417.128 447.25 416.888C447.49 416.632 447.794 416.504 448.162 416.504ZM386.736 431.2H388.512V448H386.736V431.2ZM393.81 430.072C394.178 430.072 394.482 430.2 394.722 430.456C394.962 430.696 395.082 431 395.082 431.368C395.082 431.56 395.05 431.768 394.986 431.992C394.938 432.2 394.866 432.448 394.77 432.736L393.738 436.048H392.586L393.426 432.592C393.154 432.512 392.938 432.368 392.778 432.16C392.618 431.936 392.538 431.672 392.538 431.368C392.538 430.984 392.658 430.672 392.898 430.432C393.138 430.192 393.442 430.072 393.81 430.072ZM414.448 435.28C416.032 435.28 417.272 435.736 418.168 436.648C419.08 437.56 419.536 438.904 419.536 440.68V448H417.832V440.848C417.832 439.536 417.512 438.536 416.872 437.848C416.248 437.16 415.36 436.816 414.208 436.816C412.896 436.816 411.864 437.224 411.112 438.04C410.36 438.84 409.984 439.952 409.984 441.376V448H408.28V440.848C408.28 439.536 407.96 438.536 407.32 437.848C406.696 437.16 405.8 436.816 404.632 436.816C403.336 436.816 402.304 437.224 401.536 438.04C400.784 438.84 400.408 439.952 400.408 441.376V448H398.704V435.376H400.336V437.68C400.784 436.912 401.408 436.32 402.208 435.904C403.008 435.488 403.928 435.28 404.968 435.28C406.024 435.28 406.936 435.504 407.704 435.952C408.488 436.4 409.072 437.064 409.456 437.944C409.92 437.112 410.584 436.464 411.448 436C412.328 435.52 413.328 435.28 414.448 435.28ZM397.272 472.512H387.912L385.896 477H384.048L391.728 460.2H393.48L401.16 477H399.288L397.272 472.512ZM396.624 471.072L392.592 462.048L388.56 471.072H396.624ZM428.388 464.376L423.612 477H422.004L418.02 466.656L414.036 477H412.428L407.676 464.376H409.308L413.268 475.104L417.324 464.376H418.788L422.82 475.104L426.828 464.376H428.388ZM441.595 471.216H431.035C431.131 472.528 431.635 473.592 432.547 474.408C433.459 475.208 434.611 475.608 436.003 475.608C436.787 475.608 437.507 475.472 438.163 475.2C438.819 474.912 439.387 474.496 439.867 473.952L440.827 475.056C440.267 475.728 439.563 476.24 438.715 476.592C437.883 476.944 436.963 477.12 435.955 477.12C434.659 477.12 433.507 476.848 432.499 476.304C431.507 475.744 430.731 474.976 430.171 474C429.611 473.024 429.331 471.92 429.331 470.688C429.331 469.456 429.595 468.352 430.123 467.376C430.667 466.4 431.403 465.64 432.331 465.096C433.275 464.552 434.331 464.28 435.499 464.28C436.667 464.28 437.715 464.552 438.643 465.096C439.571 465.64 440.299 466.4 440.827 467.376C441.355 468.336 441.619 469.44 441.619 470.688L441.595 471.216ZM435.499 465.744C434.283 465.744 433.259 466.136 432.427 466.92C431.611 467.688 431.147 468.696 431.035 469.944H439.987C439.875 468.696 439.403 467.688 438.571 466.92C437.755 466.136 436.731 465.744 435.499 465.744ZM451.591 464.28C452.775 464.28 453.847 464.552 454.807 465.096C455.767 465.624 456.519 466.376 457.063 467.352C457.607 468.328 457.879 469.44 457.879 470.688C457.879 471.936 457.607 473.048 457.063 474.024C456.519 475 455.767 475.76 454.807 476.304C453.847 476.848 452.775 477.12 451.591 477.12C450.535 477.12 449.583 476.896 448.735 476.448C447.903 476 447.231 475.352 446.719 474.504V477H445.087V459.192H446.791V466.776C447.319 465.96 447.991 465.344 448.807 464.928C449.639 464.496 450.567 464.28 451.591 464.28ZM451.471 475.608C452.351 475.608 453.151 475.408 453.871 475.008C454.591 474.592 455.151 474.008 455.551 473.256C455.967 472.504 456.175 471.648 456.175 470.688C456.175 469.728 455.967 468.872 455.551 468.12C455.151 467.368 454.591 466.792 453.871 466.392C453.151 465.976 452.351 465.768 451.471 465.768C450.575 465.768 449.767 465.976 449.047 466.392C448.343 466.792 447.783 467.368 447.367 468.12C446.967 468.872 446.767 469.728 446.767 470.688C446.767 471.648 446.967 472.504 447.367 473.256C447.783 474.008 448.343 474.592 449.047 475.008C449.767 475.408 450.575 475.608 451.471 475.608ZM479.154 459.192V477H477.522V474.504C477.01 475.352 476.33 476 475.482 476.448C474.65 476.896 473.706 477.12 472.65 477.12C471.466 477.12 470.394 476.848 469.434 476.304C468.474 475.76 467.722 475 467.178 474.024C466.634 473.048 466.362 471.936 466.362 470.688C466.362 469.44 466.634 468.328 467.178 467.352C467.722 466.376 468.474 465.624 469.434 465.096C470.394 464.552 471.466 464.28 472.65 464.28C473.674 464.28 474.594 464.496 475.41 464.928C476.242 465.344 476.922 465.96 477.45 466.776V459.192H479.154ZM472.794 475.608C473.674 475.608 474.466 475.408 475.17 475.008C475.89 474.592 476.45 474.008 476.85 473.256C477.266 472.504 477.474 471.648 477.474 470.688C477.474 469.728 477.266 468.872 476.85 468.12C476.45 467.368 475.89 466.792 475.17 466.392C474.466 465.976 473.674 465.768 472.794 465.768C471.898 465.768 471.09 465.976 470.37 466.392C469.666 466.792 469.106 467.368 468.69 468.12C468.29 468.872 468.09 469.728 468.09 470.688C468.09 471.648 468.29 472.504 468.69 473.256C469.106 474.008 469.666 474.592 470.37 475.008C471.09 475.408 471.898 475.608 472.794 475.608ZM494.891 471.216H484.331C484.427 472.528 484.931 473.592 485.843 474.408C486.755 475.208 487.907 475.608 489.299 475.608C490.083 475.608 490.803 475.472 491.459 475.2C492.115 474.912 492.683 474.496 493.163 473.952L494.123 475.056C493.563 475.728 492.859 476.24 492.011 476.592C491.179 476.944 490.259 477.12 489.251 477.12C487.955 477.12 486.803 476.848 485.795 476.304C484.803 475.744 484.027 474.976 483.467 474C482.907 473.024 482.627 471.92 482.627 470.688C482.627 469.456 482.891 468.352 483.419 467.376C483.963 466.4 484.699 465.64 485.627 465.096C486.571 464.552 487.627 464.28 488.795 464.28C489.963 464.28 491.011 464.552 491.939 465.096C492.867 465.64 493.595 466.4 494.123 467.376C494.651 468.336 494.915 469.44 494.915 470.688L494.891 471.216ZM488.795 465.744C487.579 465.744 486.555 466.136 485.723 466.92C484.907 467.688 484.443 468.696 484.331 469.944H493.283C493.171 468.696 492.699 467.688 491.867 466.92C491.051 466.136 490.027 465.744 488.795 465.744ZM501.768 477.12C500.744 477.12 499.76 476.976 498.816 476.688C497.888 476.384 497.16 476.008 496.632 475.56L497.4 474.216C497.928 474.632 498.592 474.976 499.392 475.248C500.192 475.504 501.024 475.632 501.888 475.632C503.04 475.632 503.888 475.456 504.432 475.104C504.992 474.736 505.272 474.224 505.272 473.568C505.272 473.104 505.12 472.744 504.816 472.488C504.512 472.216 504.128 472.016 503.664 471.888C503.2 471.744 502.584 471.608 501.816 471.48C500.792 471.288 499.968 471.096 499.344 470.904C498.72 470.696 498.184 470.352 497.736 469.872C497.304 469.392 497.088 468.728 497.088 467.88C497.088 466.824 497.528 465.96 498.408 465.288C499.288 464.616 500.512 464.28 502.08 464.28C502.896 464.28 503.712 464.392 504.528 464.616C505.344 464.824 506.016 465.104 506.544 465.456L505.8 466.824C504.76 466.104 503.52 465.744 502.08 465.744C500.992 465.744 500.168 465.936 499.608 466.32C499.064 466.704 498.792 467.208 498.792 467.832C498.792 468.312 498.944 468.696 499.248 468.984C499.568 469.272 499.96 469.488 500.424 469.632C500.888 469.76 501.528 469.896 502.344 470.04C503.352 470.232 504.16 470.424 504.768 470.616C505.376 470.808 505.896 471.136 506.328 471.6C506.76 472.064 506.976 472.704 506.976 473.52C506.976 474.624 506.512 475.504 505.584 476.16C504.672 476.8 503.4 477.12 501.768 477.12ZM510.126 464.376H511.83V477H510.126V464.376ZM510.99 461.616C510.638 461.616 510.342 461.496 510.102 461.256C509.862 461.016 509.742 460.728 509.742 460.392C509.742 460.072 509.862 459.792 510.102 459.552C510.342 459.312 510.638 459.192 510.99 459.192C511.342 459.192 511.638 459.312 511.878 459.552C512.118 459.776 512.238 460.048 512.238 460.368C512.238 460.72 512.118 461.016 511.878 461.256C511.638 461.496 511.342 461.616 510.99 461.616ZM528.259 464.376V475.464C528.259 477.608 527.731 479.192 526.675 480.216C525.635 481.256 524.059 481.776 521.947 481.776C520.779 481.776 519.667 481.6 518.611 481.248C517.571 480.912 516.723 480.44 516.067 479.832L516.931 478.536C517.539 479.08 518.275 479.504 519.139 479.808C520.019 480.112 520.939 480.264 521.899 480.264C523.499 480.264 524.675 479.888 525.427 479.136C526.179 478.4 526.555 477.248 526.555 475.68V474.072C526.027 474.872 525.331 475.48 524.467 475.896C523.619 476.312 522.675 476.52 521.635 476.52C520.451 476.52 519.371 476.264 518.395 475.752C517.435 475.224 516.675 474.496 516.115 473.568C515.571 472.624 515.299 471.56 515.299 470.376C515.299 469.192 515.571 468.136 516.115 467.208C516.675 466.28 517.435 465.56 518.395 465.048C519.355 464.536 520.435 464.28 521.635 464.28C522.707 464.28 523.675 464.496 524.539 464.928C525.403 465.36 526.099 465.984 526.627 466.8V464.376H528.259ZM521.803 475.008C522.715 475.008 523.539 474.816 524.275 474.432C525.011 474.032 525.579 473.48 525.979 472.776C526.395 472.072 526.603 471.272 526.603 470.376C526.603 469.48 526.395 468.688 525.979 468C525.579 467.296 525.011 466.752 524.275 466.368C523.555 465.968 522.731 465.768 521.803 465.768C520.891 465.768 520.067 465.96 519.331 466.344C518.611 466.728 518.043 467.272 517.627 467.976C517.227 468.68 517.027 469.48 517.027 470.376C517.027 471.272 517.227 472.072 517.627 472.776C518.043 473.48 518.611 474.032 519.331 474.432C520.067 474.816 520.891 475.008 521.803 475.008ZM539.456 464.28C541.04 464.28 542.296 464.744 543.224 465.672C544.168 466.584 544.64 467.92 544.64 469.68V477H542.936V469.848C542.936 468.536 542.608 467.536 541.952 466.848C541.296 466.16 540.36 465.816 539.144 465.816C537.784 465.816 536.704 466.224 535.904 467.04C535.12 467.84 534.728 468.952 534.728 470.376V477H533.024V464.376H534.656V466.704C535.12 465.936 535.76 465.344 536.576 464.928C537.408 464.496 538.368 464.28 539.456 464.28ZM560.306 471.216H549.746C549.842 472.528 550.346 473.592 551.258 474.408C552.17 475.208 553.322 475.608 554.714 475.608C555.498 475.608 556.218 475.472 556.874 475.2C557.53 474.912 558.098 474.496 558.578 473.952L559.538 475.056C558.978 475.728 558.274 476.24 557.426 476.592C556.594 476.944 555.674 477.12 554.666 477.12C553.37 477.12 552.218 476.848 551.21 476.304C550.218 475.744 549.442 474.976 548.882 474C548.322 473.024 548.042 471.92 548.042 470.688C548.042 469.456 548.306 468.352 548.834 467.376C549.378 466.4 550.114 465.64 551.042 465.096C551.986 464.552 553.042 464.28 554.21 464.28C555.378 464.28 556.426 464.552 557.354 465.096C558.282 465.64 559.01 466.4 559.538 467.376C560.066 468.336 560.33 469.44 560.33 470.688L560.306 471.216ZM554.21 465.744C552.994 465.744 551.97 466.136 551.138 466.92C550.322 467.688 549.858 468.696 549.746 469.944H558.698C558.586 468.696 558.114 467.688 557.282 466.92C556.466 466.136 555.442 465.744 554.21 465.744ZM565.43 466.848C565.83 466 566.422 465.36 567.206 464.928C568.006 464.496 568.99 464.28 570.158 464.28V465.936L569.75 465.912C568.422 465.912 567.382 466.32 566.63 467.136C565.878 467.952 565.502 469.096 565.502 470.568V477H563.798V464.376H565.43V466.848ZM592.096 477.264L589.768 474.864C588.344 476.384 586.472 477.144 584.152 477.144C583.064 477.144 582.088 476.968 581.224 476.616C580.376 476.248 579.712 475.744 579.232 475.104C578.752 474.448 578.512 473.704 578.512 472.872C578.512 471.864 578.832 470.96 579.472 470.16C580.112 469.36 581.2 468.52 582.736 467.64C581.936 466.808 581.384 466.104 581.08 465.528C580.776 464.936 580.624 464.312 580.624 463.656C580.624 462.584 581.008 461.72 581.776 461.064C582.544 460.408 583.576 460.08 584.872 460.08C586.072 460.08 587.024 460.376 587.728 460.968C588.432 461.56 588.784 462.376 588.784 463.416C588.784 464.248 588.504 465 587.944 465.672C587.384 466.328 586.416 467.056 585.04 467.856L589.648 472.608C590.16 471.696 590.536 470.616 590.776 469.368L592.168 469.8C591.864 471.304 591.368 472.592 590.68 473.664L593.08 476.136L592.096 477.264ZM584.872 461.352C584.04 461.352 583.384 461.56 582.904 461.976C582.44 462.392 582.208 462.944 582.208 463.632C582.208 464.128 582.336 464.6 582.592 465.048C582.848 465.496 583.352 466.104 584.104 466.872C585.32 466.168 586.16 465.568 586.624 465.072C587.088 464.576 587.32 464.032 587.32 463.44C587.32 462.8 587.104 462.296 586.672 461.928C586.24 461.544 585.64 461.352 584.872 461.352ZM584.248 475.728C586.104 475.728 587.608 475.096 588.76 473.832L583.696 468.624C582.368 469.376 581.448 470.056 580.936 470.664C580.44 471.272 580.192 471.952 580.192 472.704C580.192 473.616 580.56 474.352 581.296 474.912C582.048 475.456 583.032 475.728 584.248 475.728ZM613.568 459.192V477H611.936V474.504C611.424 475.352 610.744 476 609.896 476.448C609.064 476.896 608.12 477.12 607.064 477.12C605.88 477.12 604.808 476.848 603.848 476.304C602.888 475.76 602.136 475 601.592 474.024C601.048 473.048 600.776 471.936 600.776 470.688C600.776 469.44 601.048 468.328 601.592 467.352C602.136 466.376 602.888 465.624 603.848 465.096C604.808 464.552 605.88 464.28 607.064 464.28C608.088 464.28 609.008 464.496 609.824 464.928C610.656 465.344 611.336 465.96 611.864 466.776V459.192H613.568ZM607.208 475.608C608.088 475.608 608.88 475.408 609.584 475.008C610.304 474.592 610.864 474.008 611.264 473.256C611.68 472.504 611.888 471.648 611.888 470.688C611.888 469.728 611.68 468.872 611.264 468.12C610.864 467.368 610.304 466.792 609.584 466.392C608.88 465.976 608.088 465.768 607.208 465.768C606.312 465.768 605.504 465.976 604.784 466.392C604.08 466.792 603.52 467.368 603.104 468.12C602.704 468.872 602.504 469.728 602.504 470.688C602.504 471.648 602.704 472.504 603.104 473.256C603.52 474.008 604.08 474.592 604.784 475.008C605.504 475.408 606.312 475.608 607.208 475.608ZM629.306 471.216H618.746C618.842 472.528 619.346 473.592 620.258 474.408C621.17 475.208 622.322 475.608 623.714 475.608C624.498 475.608 625.218 475.472 625.874 475.2C626.53 474.912 627.098 474.496 627.578 473.952L628.538 475.056C627.978 475.728 627.274 476.24 626.426 476.592C625.594 476.944 624.674 477.12 623.666 477.12C622.37 477.12 621.218 476.848 620.21 476.304C619.218 475.744 618.442 474.976 617.882 474C617.322 473.024 617.042 471.92 617.042 470.688C617.042 469.456 617.306 468.352 617.834 467.376C618.378 466.4 619.114 465.64 620.042 465.096C620.986 464.552 622.042 464.28 623.21 464.28C624.378 464.28 625.426 464.552 626.354 465.096C627.282 465.64 628.01 466.4 628.538 467.376C629.066 468.336 629.33 469.44 629.33 470.688L629.306 471.216ZM623.21 465.744C621.994 465.744 620.97 466.136 620.138 466.92C619.322 467.688 618.858 468.696 618.746 469.944H627.698C627.586 468.696 627.114 467.688 626.282 466.92C625.466 466.136 624.442 465.744 623.21 465.744ZM643.172 464.376L637.556 477H635.804L630.212 464.376H631.988L636.716 475.128L641.492 464.376H643.172ZM656.212 471.216H645.652C645.748 472.528 646.252 473.592 647.164 474.408C648.076 475.208 649.228 475.608 650.62 475.608C651.404 475.608 652.124 475.472 652.78 475.2C653.436 474.912 654.004 474.496 654.484 473.952L655.444 475.056C654.884 475.728 654.18 476.24 653.332 476.592C652.5 476.944 651.58 477.12 650.572 477.12C649.276 477.12 648.124 476.848 647.116 476.304C646.124 475.744 645.348 474.976 644.788 474C644.228 473.024 643.948 471.92 643.948 470.688C643.948 469.456 644.212 468.352 644.74 467.376C645.284 466.4 646.02 465.64 646.948 465.096C647.892 464.552 648.948 464.28 650.116 464.28C651.284 464.28 652.332 464.552 653.26 465.096C654.188 465.64 654.916 466.4 655.444 467.376C655.972 468.336 656.236 469.44 656.236 470.688L656.212 471.216ZM650.116 465.744C648.9 465.744 647.876 466.136 647.044 466.92C646.228 467.688 645.764 468.696 645.652 469.944H654.604C654.492 468.696 654.02 467.688 653.188 466.92C652.372 466.136 651.348 465.744 650.116 465.744ZM659.704 459.192H661.408V477H659.704V459.192ZM671.309 477.12C670.093 477.12 668.997 476.848 668.021 476.304C667.045 475.744 666.277 474.976 665.717 474C665.157 473.024 664.877 471.92 664.877 470.688C664.877 469.456 665.157 468.352 665.717 467.376C666.277 466.4 667.045 465.64 668.021 465.096C668.997 464.552 670.093 464.28 671.309 464.28C672.525 464.28 673.621 464.552 674.597 465.096C675.573 465.64 676.333 466.4 676.877 467.376C677.437 468.352 677.717 469.456 677.717 470.688C677.717 471.92 677.437 473.024 676.877 474C676.333 474.976 675.573 475.744 674.597 476.304C673.621 476.848 672.525 477.12 671.309 477.12ZM671.309 475.608C672.205 475.608 673.005 475.408 673.709 475.008C674.429 474.592 674.989 474.008 675.389 473.256C675.789 472.504 675.989 471.648 675.989 470.688C675.989 469.728 675.789 468.872 675.389 468.12C674.989 467.368 674.429 466.792 673.709 466.392C673.005 465.976 672.205 465.768 671.309 465.768C670.413 465.768 669.605 465.976 668.885 466.392C668.181 466.792 667.621 467.368 667.205 468.12C666.805 468.872 666.605 469.728 666.605 470.688C666.605 471.648 666.805 472.504 667.205 473.256C667.621 474.008 668.181 474.592 668.885 475.008C669.605 475.408 670.413 475.608 671.309 475.608ZM687.7 464.28C688.884 464.28 689.956 464.552 690.916 465.096C691.876 465.624 692.628 466.376 693.172 467.352C693.716 468.328 693.988 469.44 693.988 470.688C693.988 471.952 693.716 473.072 693.172 474.048C692.628 475.024 691.876 475.784 690.916 476.328C689.972 476.856 688.9 477.12 687.7 477.12C686.676 477.12 685.748 476.912 684.916 476.496C684.1 476.064 683.428 475.44 682.9 474.624V481.656H681.196V464.376H682.828V466.872C683.34 466.04 684.012 465.4 684.844 464.952C685.692 464.504 686.644 464.28 687.7 464.28ZM687.58 475.608C688.46 475.608 689.26 475.408 689.98 475.008C690.7 474.592 691.26 474.008 691.66 473.256C692.076 472.504 692.284 471.648 692.284 470.688C692.284 469.728 692.076 468.88 691.66 468.144C691.26 467.392 690.7 466.808 689.98 466.392C689.26 465.976 688.46 465.768 687.58 465.768C686.684 465.768 685.876 465.976 685.156 466.392C684.452 466.808 683.892 467.392 683.476 468.144C683.076 468.88 682.876 469.728 682.876 470.688C682.876 471.648 683.076 472.504 683.476 473.256C683.892 474.008 684.452 474.592 685.156 475.008C685.876 475.408 686.684 475.608 687.58 475.608ZM708.454 471.216H697.894C697.99 472.528 698.494 473.592 699.406 474.408C700.318 475.208 701.47 475.608 702.862 475.608C703.646 475.608 704.366 475.472 705.022 475.2C705.678 474.912 706.246 474.496 706.726 473.952L707.686 475.056C707.126 475.728 706.422 476.24 705.574 476.592C704.742 476.944 703.822 477.12 702.814 477.12C701.518 477.12 700.366 476.848 699.358 476.304C698.366 475.744 697.59 474.976 697.03 474C696.47 473.024 696.19 471.92 696.19 470.688C696.19 469.456 696.454 468.352 696.982 467.376C697.526 466.4 698.262 465.64 699.19 465.096C700.134 464.552 701.19 464.28 702.358 464.28C703.526 464.28 704.574 464.552 705.502 465.096C706.43 465.64 707.158 466.4 707.686 467.376C708.214 468.336 708.478 469.44 708.478 470.688L708.454 471.216ZM702.358 465.744C701.142 465.744 700.118 466.136 699.286 466.92C698.47 467.688 698.006 468.696 697.894 469.944H706.846C706.734 468.696 706.262 467.688 705.43 466.92C704.614 466.136 703.59 465.744 702.358 465.744ZM713.578 466.848C713.978 466 714.57 465.36 715.354 464.928C716.154 464.496 717.138 464.28 718.306 464.28V465.936L717.898 465.912C716.57 465.912 715.53 466.32 714.778 467.136C714.026 467.952 713.65 469.096 713.65 470.568V477H711.946V464.376H713.578V466.848Z" fill="#706B6B"/>
<path d="M432.935 448.24C431.863 448.24 430.871 448.032 429.959 447.616C429.063 447.184 428.327 446.584 427.75 445.816L429.527 443.68C430.455 444.96 431.567 445.6 432.863 445.6C434.607 445.6 435.479 444.568 435.479 442.504V433.816H429.503V431.2H438.599V442.336C438.599 444.304 438.119 445.784 437.159 446.776C436.199 447.752 434.791 448.24 432.935 448.24ZM455.095 435.184V448H452.239V446.368C451.759 446.944 451.159 447.392 450.439 447.712C449.719 448.016 448.943 448.168 448.111 448.168C446.399 448.168 445.047 447.696 444.055 446.752C443.079 445.792 442.591 444.376 442.591 442.504V435.184H445.591V442.096C445.591 443.248 445.847 444.112 446.359 444.688C446.887 445.248 447.631 445.528 448.591 445.528C449.663 445.528 450.511 445.2 451.135 444.544C451.775 443.872 452.095 442.912 452.095 441.664V435.184H455.095ZM459.023 430.192H462.023V448H459.023V430.192ZM465.96 435.184H468.96V448H465.96V435.184ZM467.472 433.072C466.928 433.072 466.472 432.904 466.104 432.568C465.736 432.216 465.552 431.784 465.552 431.272C465.552 430.76 465.736 430.336 466.104 430C466.472 429.648 466.928 429.472 467.472 429.472C468.016 429.472 468.472 429.64 468.84 429.976C469.208 430.296 469.392 430.704 469.392 431.2C469.392 431.728 469.208 432.176 468.84 432.544C468.488 432.896 468.032 433.072 467.472 433.072ZM484.946 441.664C484.946 441.872 484.93 442.168 484.898 442.552H474.842C475.018 443.496 475.474 444.248 476.21 444.808C476.962 445.352 477.89 445.624 478.994 445.624C480.402 445.624 481.562 445.16 482.474 444.232L484.082 446.08C483.506 446.768 482.778 447.288 481.898 447.64C481.018 447.992 480.026 448.168 478.922 448.168C477.514 448.168 476.274 447.888 475.202 447.328C474.13 446.768 473.298 445.992 472.706 445C472.13 443.992 471.842 442.856 471.842 441.592C471.842 440.344 472.122 439.224 472.682 438.232C473.258 437.224 474.05 436.44 475.058 435.88C476.066 435.32 477.202 435.04 478.466 435.04C479.714 435.04 480.826 435.32 481.802 435.88C482.794 436.424 483.562 437.2 484.106 438.208C484.666 439.2 484.946 440.352 484.946 441.664ZM478.466 437.44C477.506 437.44 476.69 437.728 476.018 438.304C475.362 438.864 474.962 439.616 474.818 440.56H482.09C481.962 439.632 481.57 438.88 480.914 438.304C480.258 437.728 479.442 437.44 478.466 437.44ZM506.22 439.408H509.172V446.104C508.308 446.792 507.3 447.32 506.148 447.688C504.996 448.056 503.812 448.24 502.596 448.24C500.884 448.24 499.34 447.872 497.964 447.136C496.588 446.384 495.508 445.352 494.724 444.04C493.94 442.728 493.548 441.248 493.548 439.6C493.548 437.952 493.94 436.472 494.724 435.16C495.508 433.848 496.588 432.824 497.964 432.088C499.356 431.336 500.916 430.96 502.644 430.96C504.052 430.96 505.332 431.192 506.484 431.656C507.636 432.12 508.604 432.8 509.388 433.696L507.42 435.616C506.14 434.336 504.596 433.696 502.788 433.696C501.604 433.696 500.548 433.944 499.62 434.44C498.708 434.936 497.988 435.632 497.46 436.528C496.948 437.424 496.692 438.448 496.692 439.6C496.692 440.72 496.948 441.728 497.46 442.624C497.988 443.52 498.708 444.224 499.62 444.736C500.548 445.248 501.596 445.504 502.764 445.504C504.076 445.504 505.228 445.216 506.22 444.64V439.408ZM515.855 437.056C516.719 435.712 518.239 435.04 520.415 435.04V437.896C520.159 437.848 519.927 437.824 519.719 437.824C518.551 437.824 517.639 438.168 516.983 438.856C516.327 439.528 515.999 440.504 515.999 441.784V448H512.999V435.184H515.855V437.056ZM534.891 441.664C534.891 441.872 534.875 442.168 534.843 442.552H524.787C524.963 443.496 525.419 444.248 526.155 444.808C526.907 445.352 527.835 445.624 528.939 445.624C530.347 445.624 531.507 445.16 532.419 444.232L534.027 446.08C533.451 446.768 532.723 447.288 531.843 447.64C530.963 447.992 529.971 448.168 528.867 448.168C527.459 448.168 526.219 447.888 525.147 447.328C524.075 446.768 523.243 445.992 522.651 445C522.075 443.992 521.787 442.856 521.787 441.592C521.787 440.344 522.067 439.224 522.627 438.232C523.203 437.224 523.995 436.44 525.003 435.88C526.011 435.32 527.147 435.04 528.411 435.04C529.659 435.04 530.771 435.32 531.747 435.88C532.739 436.424 533.507 437.2 534.051 438.208C534.611 439.2 534.891 440.352 534.891 441.664ZM528.411 437.44C527.451 437.44 526.635 437.728 525.963 438.304C525.307 438.864 524.907 439.616 524.763 440.56H532.035C531.907 439.632 531.515 438.88 530.859 438.304C530.203 437.728 529.387 437.44 528.411 437.44ZM549.821 441.664C549.821 441.872 549.805 442.168 549.773 442.552H539.717C539.893 443.496 540.349 444.248 541.085 444.808C541.837 445.352 542.765 445.624 543.869 445.624C545.277 445.624 546.437 445.16 547.349 444.232L548.957 446.08C548.381 446.768 547.653 447.288 546.773 447.64C545.893 447.992 544.901 448.168 543.797 448.168C542.389 448.168 541.149 447.888 540.077 447.328C539.005 446.768 538.173 445.992 537.581 445C537.005 443.992 536.717 442.856 536.717 441.592C536.717 440.344 536.997 439.224 537.557 438.232C538.133 437.224 538.925 436.44 539.933 435.88C540.941 435.32 542.077 435.04 543.341 435.04C544.589 435.04 545.701 435.32 546.677 435.88C547.669 436.424 548.437 437.2 548.981 438.208C549.541 439.2 549.821 440.352 549.821 441.664ZM543.341 437.44C542.381 437.44 541.565 437.728 540.893 438.304C540.237 438.864 539.837 439.616 539.693 440.56H546.965C546.837 439.632 546.445 438.88 545.789 438.304C545.133 437.728 544.317 437.44 543.341 437.44ZM559.974 435.04C561.59 435.04 562.886 435.512 563.862 436.456C564.838 437.4 565.326 438.8 565.326 440.656V448H562.326V441.04C562.326 439.92 562.062 439.08 561.534 438.52C561.006 437.944 560.254 437.656 559.278 437.656C558.174 437.656 557.302 437.992 556.662 438.664C556.022 439.32 555.702 440.272 555.702 441.52V448H552.702V435.184H555.558V436.84C556.054 436.248 556.678 435.8 557.43 435.496C558.182 435.192 559.03 435.04 559.974 435.04ZM581.297 441.664C581.297 441.872 581.281 442.168 581.249 442.552H571.193C571.369 443.496 571.825 444.248 572.561 444.808C573.313 445.352 574.241 445.624 575.345 445.624C576.753 445.624 577.913 445.16 578.825 444.232L580.433 446.08C579.857 446.768 579.129 447.288 578.249 447.64C577.369 447.992 576.377 448.168 575.273 448.168C573.865 448.168 572.625 447.888 571.553 447.328C570.481 446.768 569.649 445.992 569.057 445C568.481 443.992 568.193 442.856 568.193 441.592C568.193 440.344 568.473 439.224 569.033 438.232C569.609 437.224 570.401 436.44 571.409 435.88C572.417 435.32 573.553 435.04 574.817 435.04C576.065 435.04 577.177 435.32 578.153 435.88C579.145 436.424 579.913 437.2 580.457 438.208C581.017 439.2 581.297 440.352 581.297 441.664ZM574.817 437.44C573.857 437.44 573.041 437.728 572.369 438.304C571.713 438.864 571.313 439.616 571.169 440.56H578.441C578.313 439.632 577.921 438.88 577.265 438.304C576.609 437.728 575.793 437.44 574.817 437.44ZM583.795 431.2H587.347L586.747 442.432H584.371L583.795 431.2ZM585.571 448.168C585.011 448.168 584.547 447.992 584.179 447.64C583.811 447.272 583.627 446.824 583.627 446.296C583.627 445.768 583.811 445.328 584.179 444.976C584.547 444.624 585.011 444.448 585.571 444.448C586.115 444.448 586.563 444.624 586.915 444.976C587.283 445.328 587.467 445.768 587.467 446.296C587.467 446.824 587.283 447.272 586.915 447.64C586.563 447.992 586.115 448.168 585.571 448.168Z" fill="#D573C5"/>
<defs>
<filter id="filter0_d" x="166" y="184" width="72.4497" height="89" filterUnits="userSpaceOnUse" color-interpolation-filters="sRGB">
<feFlood flood-opacity="0" result="BackgroundImageFix"/>
<feColorMatrix in="SourceAlpha" type="matrix" values="0 0 0 0 0 0 0 0 0 0 0 0 0 0 0 0 0 0 127 0"/>
<feOffset dx="2" dy="4"/>
<feGaussianBlur stdDeviation="3"/>
<feColorMatrix type="matrix" values="0 0 0 0 0 0 0 0 0 0 0 0 0 0 0 0 0 0 0.25 0"/>
<feBlend mode="normal" in2="BackgroundImageFix" result="effect1_dropShadow"/>
<feBlend mode="normal" in="SourceGraphic" in2="effect1_dropShadow" result="shape"/>
</filter>
<filter id="filter1_d" x="377" y="144.459" width="261.415" height="243.75" filterUnits="userSpaceOnUse" color-interpolation-filters="sRGB">
<feFlood flood-opacity="0" result="BackgroundImageFix"/>
<feColorMatrix in="SourceAlpha" type="matrix" values="0 0 0 0 0 0 0 0 0 0 0 0 0 0 0 0 0 0 127 0"/>
<feOffset dy="4"/>
<feGaussianBlur stdDeviation="3"/>
<feColorMatrix type="matrix" values="0 0 0 0 0 0 0 0 0 0 0 0 0 0 0 0 0 0 0.25 0"/>
<feBlend mode="normal" in2="BackgroundImageFix" result="effect1_dropShadow"/>
<feBlend mode="normal" in="SourceGraphic" in2="effect1_dropShadow" result="shape"/>
</filter>
<filter id="filter2_d" x="626" y="144.459" width="261.415" height="243.75" filterUnits="userSpaceOnUse" color-interpolation-filters="sRGB">
<feFlood flood-opacity="0" result="BackgroundImageFix"/>
<feColorMatrix in="SourceAlpha" type="matrix" values="0 0 0 0 0 0 0 0 0 0 0 0 0 0 0 0 0 0 127 0"/>
<feOffset dy="4"/>
<feGaussianBlur stdDeviation="3"/>
<feColorMatrix type="matrix" values="0 0 0 0 0 0 0 0 0 0 0 0 0 0 0 0 0 0 0.25 0"/>
<feBlend mode="normal" in2="BackgroundImageFix" result="effect1_dropShadow"/>
<feBlend mode="normal" in="SourceGraphic" in2="effect1_dropShadow" result="shape"/>
</filter>
<filter id="filter3_d" x="125" y="144.459" width="261.415" height="243.75" filterUnits="userSpaceOnUse" color-interpolation-filters="sRGB">
<feFlood flood-opacity="0" result="BackgroundImageFix"/>
<feColorMatrix in="SourceAlpha" type="matrix" values="0 0 0 0 0 0 0 0 0 0 0 0 0 0 0 0 0 0 127 0"/>
<feOffset dy="4"/>
<feGaussianBlur stdDeviation="3"/>
<feColorMatrix type="matrix" values="0 0 0 0 0 0 0 0 0 0 0 0 0 0 0 0 0 0 0.25 0"/>
<feBlend mode="normal" in2="BackgroundImageFix" result="effect1_dropShadow"/>
<feBlend mode="normal" in="SourceGraphic" in2="effect1_dropShadow" result="shape"/>
</filter>
<filter id="filter4_d" x="299.613" y="238" width="45.775" height="81" filterUnits="userSpaceOnUse" color-interpolation-filters="sRGB">
<feFlood flood-opacity="0" result="BackgroundImageFix"/>
<feColorMatrix in="SourceAlpha" type="matrix" values="0 0 0 0 0 0 0 0 0 0 0 0 0 0 0 0 0 0 127 0"/>
<feOffset dx="2" dy="4"/>
<feGaussianBlur stdDeviation="3"/>
<feColorMatrix type="matrix" values="0 0 0 0 0 0 0 0 0 0 0 0 0 0 0 0 0 0 0.25 0"/>
<feBlend mode="normal" in2="BackgroundImageFix" result="effect1_dropShadow"/>
<feBlend mode="normal" in="SourceGraphic" in2="effect1_dropShadow" result="shape"/>
</filter>
<filter id="filter5_d" x="765" y="255" width="41.775" height="51" filterUnits="userSpaceOnUse" color-interpolation-filters="sRGB">
<feFlood flood-opacity="0" result="BackgroundImageFix"/>
<feColorMatrix in="SourceAlpha" type="matrix" values="0 0 0 0 0 0 0 0 0 0 0 0 0 0 0 0 0 0 127 0"/>
<feOffset dx="2" dy="4"/>
<feGaussianBlur stdDeviation="3"/>
<feColorMatrix type="matrix" values="0 0 0 0 0 0 0 0 0 0 0 0 0 0 0 0 0 0 0.25 0"/>
<feBlend mode="normal" in2="BackgroundImageFix" result="effect1_dropShadow"/>
<feBlend mode="normal" in="SourceGraphic" in2="effect1_dropShadow" result="shape"/>
</filter>
<filter id="filter6_d" x="217" y="294" width="41.775" height="54" filterUnits="userSpaceOnUse" color-interpolation-filters="sRGB">
<feFlood flood-opacity="0" result="BackgroundImageFix"/>
<feColorMatrix in="SourceAlpha" type="matrix" values="0 0 0 0 0 0 0 0 0 0 0 0 0 0 0 0 0 0 127 0"/>
<feOffset dx="2" dy="4"/>
<feGaussianBlur stdDeviation="3"/>
<feColorMatrix type="matrix" values="0 0 0 0 0 0 0 0 0 0 0 0 0 0 0 0 0 0 0.25 0"/>
<feBlend mode="normal" in2="BackgroundImageFix" result="effect1_dropShadow"/>
<feBlend mode="normal" in="SourceGraphic" in2="effect1_dropShadow" result="shape"/>
</filter>
<filter id="filter7_d" x="442" y="184" width="41.775" height="76" filterUnits="userSpaceOnUse" color-interpolation-filters="sRGB">
<feFlood flood-opacity="0" result="BackgroundImageFix"/>
<feColorMatrix in="SourceAlpha" type="matrix" values="0 0 0 0 0 0 0 0 0 0 0 0 0 0 0 0 0 0 127 0"/>
<feOffset dx="2" dy="4"/>
<feGaussianBlur stdDeviation="3"/>
<feColorMatrix type="matrix" values="0 0 0 0 0 0 0 0 0 0 0 0 0 0 0 0 0 0 0.25 0"/>
<feBlend mode="normal" in2="BackgroundImageFix" result="effect1_dropShadow"/>
<feBlend mode="normal" in="SourceGraphic" in2="effect1_dropShadow" result="shape"/>
</filter>
<filter id="filter8_d" x="705" y="307" width="51" height="63" filterUnits="userSpaceOnUse" color-interpolation-filters="sRGB">
<feFlood flood-opacity="0" result="BackgroundImageFix"/>
<feColorMatrix in="SourceAlpha" type="matrix" values="0 0 0 0 0 0 0 0 0 0 0 0 0 0 0 0 0 0 127 0"/>
<feOffset dx="2" dy="4"/>
<feGaussianBlur stdDeviation="3"/>
<feColorMatrix type="matrix" values="0 0 0 0 0 0 0 0 0 0 0 0 0 0 0 0 0 0 0.25 0"/>
<feBlend mode="normal" in2="BackgroundImageFix" result="effect1_dropShadow"/>
<feBlend mode="normal" in="SourceGraphic" in2="effect1_dropShadow" result="shape"/>
</filter>
<filter id="filter9_d" x="554" y="238" width="41.775" height="47" filterUnits="userSpaceOnUse" color-interpolation-filters="sRGB">
<feFlood flood-opacity="0" result="BackgroundImageFix"/>
<feColorMatrix in="SourceAlpha" type="matrix" values="0 0 0 0 0 0 0 0 0 0 0 0 0 0 0 0 0 0 127 0"/>
<feOffset dx="2" dy="4"/>
<feGaussianBlur stdDeviation="3"/>
<feColorMatrix type="matrix" values="0 0 0 0 0 0 0 0 0 0 0 0 0 0 0 0 0 0 0.25 0"/>
<feBlend mode="normal" in2="BackgroundImageFix" result="effect1_dropShadow"/>
<feBlend mode="normal" in="SourceGraphic" in2="effect1_dropShadow" result="shape"/>
</filter>
<filter id="filter10_d" x="504" y="294" width="41.775" height="59" filterUnits="userSpaceOnUse" color-interpolation-filters="sRGB">
<feFlood flood-opacity="0" result="BackgroundImageFix"/>
<feColorMatrix in="SourceAlpha" type="matrix" values="0 0 0 0 0 0 0 0 0 0 0 0 0 0 0 0 0 0 127 0"/>
<feOffset dx="2" dy="4"/>
<feGaussianBlur stdDeviation="3"/>
<feColorMatrix type="matrix" values="0 0 0 0 0 0 0 0 0 0 0 0 0 0 0 0 0 0 0.25 0"/>
<feBlend mode="normal" in2="BackgroundImageFix" result="effect1_dropShadow"/>
<feBlend mode="normal" in="SourceGraphic" in2="effect1_dropShadow" result="shape"/>
</filter>
<filter id="filter11_d" x="810" y="251" width="82" height="99" filterUnits="userSpaceOnUse" color-interpolation-filters="sRGB">
<feFlood flood-opacity="0" result="BackgroundImageFix"/>
<feColorMatrix in="SourceAlpha" type="matrix" values="0 0 0 0 0 0 0 0 0 0 0 0 0 0 0 0 0 0 127 0"/>
<feOffset dx="2" dy="4"/>
<feGaussianBlur stdDeviation="3"/>
<feColorMatrix type="matrix" values="0 0 0 0 0 0 0 0 0 0 0 0 0 0 0 0 0 0 0.25 0"/>
<feBlend mode="normal" in2="BackgroundImageFix" result="effect1_dropShadow"/>
<feBlend mode="normal" in="SourceGraphic" in2="effect1_dropShadow" result="shape"/>
</filter>
<filter id="filter12_d" x="159" y="174" width="65.0357" height="99" filterUnits="userSpaceOnUse" color-interpolation-filters="sRGB">
<feFlood flood-opacity="0" result="BackgroundImageFix"/>
<feColorMatrix in="SourceAlpha" type="matrix" values="0 0 0 0 0 0 0 0 0 0 0 0 0 0 0 0 0 0 127 0"/>
<feOffset dx="2" dy="4"/>
<feGaussianBlur stdDeviation="3"/>
<feColorMatrix type="matrix" values="0 0 0 0 0 0 0 0 0 0 0 0 0 0 0 0 0 0 0.25 0"/>
<feBlend mode="normal" in2="BackgroundImageFix" result="effect1_dropShadow"/>
<feBlend mode="normal" in="SourceGraphic" in2="effect1_dropShadow" result="shape"/>
</filter>
<filter id="filter13_d" x="258" y="25" width="112" height="92" filterUnits="userSpaceOnUse" color-interpolation-filters="sRGB">
<feFlood flood-opacity="0" result="BackgroundImageFix"/>
<feColorMatrix in="SourceAlpha" type="matrix" values="0 0 0 0 0 0 0 0 0 0 0 0 0 0 0 0 0 0 127 0"/>
<feOffset dx="2" dy="4"/>
<feGaussianBlur stdDeviation="3"/>
<feColorMatrix type="matrix" values="0 0 0 0 0 0 0 0 0 0 0 0 0 0 0 0 0 0 0.25 0"/>
<feBlend mode="normal" in2="BackgroundImageFix" result="effect1_dropShadow"/>
<feBlend mode="normal" in="SourceGraphic" in2="effect1_dropShadow" result="shape"/>
</filter>
<filter id="filter14_d" x="40" y="173" width="116" height="62" filterUnits="userSpaceOnUse" color-interpolation-filters="sRGB">
<feFlood flood-opacity="0" result="BackgroundImageFix"/>
<feColorMatrix in="SourceAlpha" type="matrix" values="0 0 0 0 0 0 0 0 0 0 0 0 0 0 0 0 0 0 127 0"/>
<feOffset dx="2" dy="4"/>
<feGaussianBlur stdDeviation="3"/>
<feColorMatrix type="matrix" values="0 0 0 0 0 0 0 0 0 0 0 0 0 0 0 0 0 0 0.25 0"/>
<feBlend mode="normal" in2="BackgroundImageFix" result="effect1_dropShadow"/>
<feBlend mode="normal" in="SourceGraphic" in2="effect1_dropShadow" result="shape"/>
</filter>
<filter id="filter15_d" x="584" y="78" width="167" height="85" filterUnits="userSpaceOnUse" color-interpolation-filters="sRGB">
<feFlood flood-opacity="0" result="BackgroundImageFix"/>
<feColorMatrix in="SourceAlpha" type="matrix" values="0 0 0 0 0 0 0 0 0 0 0 0 0 0 0 0 0 0 127 0"/>
<feOffset dx="2" dy="4"/>
<feGaussianBlur stdDeviation="3"/>
<feColorMatrix type="matrix" values="0 0 0 0 0 0 0 0 0 0 0 0 0 0 0 0 0 0 0.25 0"/>
<feBlend mode="normal" in2="BackgroundImageFix" result="effect1_dropShadow"/>
<feBlend mode="normal" in="SourceGraphic" in2="effect1_dropShadow" result="shape"/>
</filter>
<linearGradient id="paint0_linear" x1="467" y1="0" x2="467" y2="500" gradientUnits="userSpaceOnUse">
<stop stop-color="white"/>
<stop offset="1" stop-color="white" stop-opacity="0"/>
</linearGradient>
</defs>
</svg>
