<svg width="934" height="500" viewBox="0 0 934 500" fill="none" xmlns="http://www.w3.org/2000/svg">
<g filter="url(#filter0_d)">
<path d="M191 228H227V263H191V228Z" fill="#F8EE94"/>
<path d="M197 211H208V228H197V211Z" fill="#F8EE94"/>
<path d="M197 199.5C197 203.09 194.314 206 191 206C187.686 206 185 203.09 185 199.5C185 195.91 187.686 193 191 193C194.314 193 197 195.91 197 199.5Z" fill="#F8EE94"/>
<path d="M178 189.5C178 191.433 176.209 193 174 193C171.791 193 170 191.433 170 189.5C170 187.567 171.791 186 174 186C176.209 186 178 187.567 178 189.5Z" fill="#F8EE94"/>
<path d="M203 245H215V262H203V245Z" fill="#F8EE94"/>
<path d="M207.5 208L230.45 232H184.55L207.5 208Z" fill="#F8EE94"/>
<path d="M191 227H190.715L196 221.473V227H191ZM186.89 231L190 227.748V228V231H186.89ZM198 227V219.382L205.059 212H207V227H198ZM202.291 212L198 216.488V212H202.291ZM208 210H206.971L207.5 209.447L208.029 210H208ZM209 211.016L224.285 227H209V211.016ZM208 229H209H226V231H192V229H196H197H208ZM228 231V230.885L228.11 231H228ZM192 233H226V262H216V245V244H215H203H202V245V262H192V233ZM214 246V261H204V246H214ZM196 199.5C196 202.614 193.688 205 191 205C188.312 205 186 202.614 186 199.5C186 196.386 188.312 194 191 194C193.688 194 196 196.386 196 199.5ZM177 189.5C177 190.759 175.786 192 174 192C172.214 192 171 190.759 171 189.5C171 188.241 172.214 187 174 187C175.786 187 177 188.241 177 189.5Z" stroke="white" stroke-width="2"/>
</g>
<path d="M814.84 307.25L832 280.759L849.16 307.25H814.84Z" fill="#4FC7ED" stroke="white" stroke-width="3"/>
<path d="M187.573 231L208 212.046L228.427 231H187.573Z" fill="#F8EE94" stroke="white" stroke-width="3"/>
<rect width="934" height="500" fill="#B4DAE7"/>
<rect width="934" height="500" fill="url(#paint0_linear)" fill-opacity="0.6"/>
<g filter="url(#filter1_d)">
<path d="M507.708 146.459L632.415 378.209H383L507.708 146.459Z" fill="#6CC8A1"/>
</g>
<path d="M483.602 230.874L476.482 203.274L509.957 139.302L531.677 187.613L542.315 211.275L517.582 231.426L502.97 210.636L483.602 230.874Z" fill="white" stroke="white"/>
<g filter="url(#filter2_d)">
<path d="M756.708 146.459L881.415 378.209H632L756.708 146.459Z" fill="#6CC8A1"/>
</g>
<path d="M732.602 230.874L725.482 203.274L758.957 139.302L780.677 187.613L791.315 211.275L766.582 231.426L751.97 210.636L732.602 230.874Z" fill="white" stroke="white"/>
<g filter="url(#filter3_d)">
<path d="M255.708 146.459L380.415 378.209H131L255.708 146.459Z" fill="#6CC8A1"/>
</g>
<path d="M231.602 230.874L224.482 203.274L257.957 139.302L279.677 187.613L290.315 211.275L265.582 231.426L250.97 210.636L231.602 230.874Z" fill="white" stroke="white"/>
<g filter="url(#filter4_d)">
<mask id="path-12-inside-1" fill="white">
<path fill-rule="evenodd" clip-rule="evenodd" d="M337.388 291.75L320.5 240L303.613 291.75H316V309H325V291.75H337.388Z"/>
</mask>
<path fill-rule="evenodd" clip-rule="evenodd" d="M337.388 291.75L320.5 240L303.613 291.75H316V309H325V291.75H337.388Z" fill="#D573C5"/>
<path d="M320.5 240L322.401 239.38L320.5 233.553L318.599 239.38L320.5 240ZM337.388 291.75V293.75H340.144L339.289 291.13L337.388 291.75ZM303.613 291.75L301.711 291.13L300.856 293.75H303.613V291.75ZM316 291.75H318V289.75H316V291.75ZM316 309H314V311H316V309ZM325 309V311H327V309H325ZM325 291.75V289.75H323V291.75H325ZM318.599 240.62L335.486 292.37L339.289 291.13L322.401 239.38L318.599 240.62ZM305.514 292.37L322.401 240.62L318.599 239.38L301.711 291.13L305.514 292.37ZM316 289.75H303.613V293.75H316V289.75ZM318 309V291.75H314V309H318ZM325 307H316V311H325V307ZM323 291.75V309H327V291.75H323ZM337.388 289.75H325V293.75H337.388V289.75Z" fill="white" mask="url(#path-12-inside-1)"/>
</g>
<g filter="url(#filter5_d)">
<mask id="path-14-inside-2" fill="white">
<path fill-rule="evenodd" clip-rule="evenodd" d="M798.775 286.25L783.887 257L769 286.25H779.92V296H787.855V286.25H798.775Z"/>
</mask>
<path fill-rule="evenodd" clip-rule="evenodd" d="M798.775 286.25L783.887 257L769 286.25H779.92V296H787.855V286.25H798.775Z" fill="#F4A5E8"/>
<path d="M783.887 257L785.67 256.093L783.887 252.591L782.105 256.093L783.887 257ZM798.775 286.25V288.25H802.037L800.557 285.343L798.775 286.25ZM769 286.25L767.218 285.343L765.738 288.25H769V286.25ZM779.92 286.25H781.92V284.25H779.92V286.25ZM779.92 296H777.92V298H779.92V296ZM787.855 296V298H789.855V296H787.855ZM787.855 286.25V284.25H785.855V286.25H787.855ZM782.105 257.907L796.993 287.157L800.557 285.343L785.67 256.093L782.105 257.907ZM770.782 287.157L785.67 257.907L782.105 256.093L767.218 285.343L770.782 287.157ZM779.92 284.25H769V288.25H779.92V284.25ZM781.92 296V286.25H777.92V296H781.92ZM787.855 294H779.92V298H787.855V294ZM785.855 286.25V296H789.855V286.25H785.855ZM798.775 284.25H787.855V288.25H798.775V284.25Z" fill="white" mask="url(#path-14-inside-2)"/>
</g>
<g filter="url(#filter6_d)">
<mask id="path-16-inside-3" fill="white">
<path fill-rule="evenodd" clip-rule="evenodd" d="M250.775 327.5L235.887 296L221 327.5H231.92V338H239.855V327.5H250.775Z"/>
</mask>
<path fill-rule="evenodd" clip-rule="evenodd" d="M250.775 327.5L235.887 296L221 327.5H231.92V338H239.855V327.5H250.775Z" fill="#4FC7ED"/>
<path d="M235.887 296L237.696 295.145L235.887 291.319L234.079 295.145L235.887 296ZM250.775 327.5V329.5H253.932L252.583 326.645L250.775 327.5ZM221 327.5L219.192 326.645L217.843 329.5H221V327.5ZM231.92 327.5H233.92V325.5H231.92V327.5ZM231.92 338H229.92V340H231.92V338ZM239.855 338V340H241.855V338H239.855ZM239.855 327.5V325.5H237.855V327.5H239.855ZM234.079 296.855L248.967 328.355L252.583 326.645L237.696 295.145L234.079 296.855ZM222.808 328.355L237.696 296.855L234.079 295.145L219.192 326.645L222.808 328.355ZM231.92 325.5H221V329.5H231.92V325.5ZM233.92 338V327.5H229.92V338H233.92ZM239.855 336H231.92V340H239.855V336ZM237.855 327.5V338H241.855V327.5H237.855ZM250.775 325.5H239.855V329.5H250.775V325.5Z" fill="white" mask="url(#path-16-inside-3)"/>
</g>
<g filter="url(#filter7_d)">
<mask id="path-18-inside-4" fill="white">
<path fill-rule="evenodd" clip-rule="evenodd" d="M475.775 234L460.887 186L446 234H456.92V250H464.855V234H475.775Z"/>
</mask>
<path fill-rule="evenodd" clip-rule="evenodd" d="M475.775 234L460.887 186L446 234H456.92V250H464.855V234H475.775Z" fill="#F8EE94"/>
<path d="M460.887 186L462.798 185.408L460.887 179.249L458.977 185.408L460.887 186ZM475.775 234V236H478.489L477.685 233.408L475.775 234ZM446 234L444.09 233.408L443.286 236H446V234ZM456.92 234H458.92V232H456.92V234ZM456.92 250H454.92V252H456.92V250ZM464.855 250V252H466.855V250H464.855ZM464.855 234V232H462.855V234H464.855ZM458.977 186.592L473.865 234.592L477.685 233.408L462.798 185.408L458.977 186.592ZM447.91 234.592L462.798 186.592L458.977 185.408L444.09 233.408L447.91 234.592ZM456.92 232H446V236H456.92V232ZM458.92 250V234H454.92V250H458.92ZM464.855 248H456.92V252H464.855V248ZM462.855 234V250H466.855V234H462.855ZM475.775 232H464.855V236H475.775V232Z" fill="white" mask="url(#path-18-inside-4)"/>
</g>
<g filter="url(#filter8_d)">
<mask id="path-20-inside-5" fill="white">
<path fill-rule="evenodd" clip-rule="evenodd" d="M748 347.25L728.5 309L709 347.25H723.304V360H733.696V347.25H748Z"/>
</mask>
<path fill-rule="evenodd" clip-rule="evenodd" d="M748 347.25L728.5 309L709 347.25H723.304V360H733.696V347.25H748Z" fill="#7AFFDF"/>
<path d="M728.5 309L730.282 308.092L728.5 304.597L726.718 308.092L728.5 309ZM748 347.25V349.25H751.265L749.782 346.342L748 347.25ZM709 347.25L707.218 346.342L705.735 349.25H709V347.25ZM723.304 347.25H725.304V345.25H723.304V347.25ZM723.304 360H721.304V362H723.304V360ZM733.696 360V362H735.696V360H733.696ZM733.696 347.25V345.25H731.696V347.25H733.696ZM726.718 309.908L746.218 348.158L749.782 346.342L730.282 308.092L726.718 309.908ZM710.782 348.158L730.282 309.908L726.718 308.092L707.218 346.342L710.782 348.158ZM723.304 345.25H709V349.25H723.304V345.25ZM725.304 360V347.25H721.304V360H725.304ZM733.696 358H723.304V362H733.696V358ZM731.696 347.25V360H735.696V347.25H731.696ZM748 345.25H733.696V349.25H748V345.25Z" fill="white" mask="url(#path-20-inside-5)"/>
</g>
<g filter="url(#filter9_d)">
<mask id="path-22-inside-6" fill="white">
<path fill-rule="evenodd" clip-rule="evenodd" d="M587.775 263.25L572.887 240L558 263.25H569V275H577V263.25H587.775Z"/>
</mask>
<path fill-rule="evenodd" clip-rule="evenodd" d="M587.775 263.25L572.887 240L558 263.25H569V275H577V263.25H587.775Z" fill="#A74AF0"/>
<path d="M572.887 240L574.572 238.922L572.887 236.291L571.203 238.922L572.887 240ZM587.775 263.25V265.25H591.431L589.459 262.172L587.775 263.25ZM558 263.25L556.316 262.172L554.344 265.25H558V263.25ZM569 263.25H571V261.25H569V263.25ZM569 275H567V277H569V275ZM577 275V277H579V275H577ZM577 263.25V261.25H575V263.25H577ZM571.203 241.078L586.091 264.328L589.459 262.172L574.572 238.922L571.203 241.078ZM559.684 264.328L574.572 241.078L571.203 238.922L556.316 262.172L559.684 264.328ZM569 261.25H558V265.25H569V261.25ZM571 275V263.25H567V275H571ZM577 273H569V277H577V273ZM575 263.25V275H579V263.25H575ZM587.775 261.25H577V265.25H587.775V261.25Z" fill="white" mask="url(#path-22-inside-6)"/>
</g>
<g filter="url(#filter10_d)">
<mask id="path-24-inside-7" fill="white">
<path fill-rule="evenodd" clip-rule="evenodd" d="M537.775 320L522.887 296L508 320H519V343H527V320H537.775Z"/>
</mask>
<path fill-rule="evenodd" clip-rule="evenodd" d="M537.775 320L522.887 296L508 320H519V343H527V320H537.775Z" fill="#FD983A"/>
<path d="M522.887 296L524.587 294.946L522.887 292.206L521.188 294.946L522.887 296ZM537.775 320V322H541.369L539.475 318.946L537.775 320ZM508 320L506.3 318.946L504.406 322H508V320ZM519 320H521V318H519V320ZM519 343H517V345H519V343ZM527 343V345H529V343H527ZM527 320V318H525V320H527ZM521.188 297.054L536.075 321.054L539.475 318.946L524.587 294.946L521.188 297.054ZM509.7 321.054L524.587 297.054L521.188 294.946L506.3 318.946L509.7 321.054ZM519 318H508V322H519V318ZM521 343V320H517V343H521ZM527 341H519V345H527V341ZM525 320V343H529V320H525ZM537.775 318H527V322H537.775V318Z" fill="white" mask="url(#path-24-inside-7)"/>
</g>
<path d="M844 306.5H845.5H848.5V338.5H839.5V322V320.5H838H826H824.5V322V338.5H815.5V306.5H831.5H833H844ZM836.5 323.5V337.5H827.5V323.5H836.5ZM834.5 289.5H842.5V303.5H834.5V289.5ZM850 281.5C847.626 281.5 845.5 279.377 845.5 276.5C845.5 273.623 847.626 271.5 850 271.5C852.374 271.5 854.5 273.623 854.5 276.5C854.5 279.377 852.374 281.5 850 281.5ZM867 268.5C865.425 268.5 864.5 267.423 864.5 266.5C864.5 265.577 865.425 264.5 867 264.5C868.575 264.5 869.5 265.577 869.5 266.5C869.5 267.423 868.575 268.5 867 268.5ZM882.5 255C882.5 255.015 882.496 255.11 882.331 255.243C882.162 255.378 881.874 255.5 881.5 255.5C881.126 255.5 880.838 255.378 880.669 255.243C880.504 255.11 880.5 255.015 880.5 255C880.5 254.985 880.504 254.89 880.669 254.757C880.838 254.622 881.126 254.5 881.5 254.5C881.874 254.5 882.162 254.622 882.331 254.757C882.496 254.89 882.5 254.985 882.5 255Z" fill="#4FC7ED" stroke="white" stroke-width="3"/>
<g filter="url(#filter11_d)">
<path d="M850 305H814V340H850V305Z" fill="#4FC7ED"/>
<path d="M844 288H833V305H844V288Z" fill="#4FC7ED"/>
<path d="M844 276.5C844 280.09 846.686 283 850 283C853.314 283 856 280.09 856 276.5C856 272.91 853.314 270 850 270C846.686 270 844 272.91 844 276.5Z" fill="#4FC7ED"/>
<path d="M863 266.5C863 268.433 864.791 270 867 270C869.209 270 871 268.433 871 266.5C871 264.567 869.209 263 867 263C864.791 263 863 264.567 863 266.5Z" fill="#4FC7ED"/>
<path d="M838 322H826V339H838V322Z" fill="#4FC7ED"/>
<path d="M884 255C884 256.105 882.881 257 881.5 257C880.119 257 879 256.105 879 255C879 253.895 880.119 253 881.5 253C882.881 253 884 253.895 884 255Z" fill="#4FC7ED"/>
<path d="M844 306.5H845.5H848.5V338.5H839.5V322V320.5H838H826H824.5V322V338.5H815.5V306.5H831.5H833H844ZM836.5 323.5V337.5H827.5V323.5H836.5ZM834.5 289.5H842.5V303.5H834.5V289.5ZM850 281.5C847.626 281.5 845.5 279.377 845.5 276.5C845.5 273.623 847.626 271.5 850 271.5C852.374 271.5 854.5 273.623 854.5 276.5C854.5 279.377 852.374 281.5 850 281.5ZM867 268.5C865.425 268.5 864.5 267.423 864.5 266.5C864.5 265.577 865.425 264.5 867 264.5C868.575 264.5 869.5 265.577 869.5 266.5C869.5 267.423 868.575 268.5 867 268.5ZM882.5 255C882.5 255.015 882.496 255.11 882.331 255.243C882.162 255.378 881.874 255.5 881.5 255.5C881.126 255.5 880.838 255.378 880.669 255.243C880.504 255.11 880.5 255.015 880.5 255C880.5 254.985 880.504 254.89 880.669 254.757C880.838 254.622 881.126 254.5 881.5 254.5C881.874 254.5 882.162 254.622 882.331 254.757C882.496 254.89 882.5 254.985 882.5 255Z" stroke="white" stroke-width="3"/>
</g>
<g filter="url(#filter12_d)">
<path d="M187.75 228H216.036V263H187.75V228Z" fill="#F8EE94"/>
<path d="M192.464 211H201.107V228H192.464V211Z" fill="#F8EE94"/>
<path d="M192.464 199.5C192.464 203.09 190.354 206 187.75 206C185.146 206 183.036 203.09 183.036 199.5C183.036 195.91 185.146 193 187.75 193C190.354 193 192.464 195.91 192.464 199.5Z" fill="#F8EE94"/>
<path d="M177.536 189.5C177.536 191.433 176.129 193 174.393 193C172.657 193 171.25 191.433 171.25 189.5C171.25 187.567 172.657 186 174.393 186C176.129 186 177.536 187.567 177.536 189.5Z" fill="#F8EE94"/>
<path d="M197.179 245H206.607V262H197.179V245Z" fill="#F8EE94"/>
<path d="M193.964 226.5H199.607V212.5H193.964V226.5ZM192.464 229.5H190.964H189.25V261.5H195.679V245V243.5H197.179H206.607H208.107V245V261.5H214.536V229.5H202.607H201.107H192.464ZM198.679 246.5V260.5H205.107V246.5H198.679ZM187.75 204.5C188.452 204.5 189.22 204.111 189.869 203.216C190.517 202.322 190.964 201.013 190.964 199.5C190.964 197.987 190.517 196.678 189.869 195.784C189.22 194.889 188.452 194.5 187.75 194.5C187.048 194.5 186.28 194.889 185.631 195.784C184.983 196.678 184.536 197.987 184.536 199.5C184.536 201.013 184.983 202.322 185.631 203.216C186.28 204.111 187.048 204.5 187.75 204.5ZM174.393 191.5C175.152 191.5 176.036 190.76 176.036 189.5C176.036 188.24 175.152 187.5 174.393 187.5C173.633 187.5 172.75 188.24 172.75 189.5C172.75 190.76 173.633 191.5 174.393 191.5Z" stroke="white" stroke-width="3"/>
</g>
<g filter="url(#filter13_d)">
<ellipse cx="312" cy="67" rx="50" ry="40" fill="#F8EE94"/>
</g>
<g filter="url(#filter14_d)">
<path fill-rule="evenodd" clip-rule="evenodd" d="M132.78 225H59.2195C50.814 225 44 219.627 44 213C44 206.373 50.814 201 59.2195 201H59.8588C59.4415 199.722 59.2195 198.381 59.2195 197C59.2195 188.163 68.3049 181 79.5122 181C83.6785 181 87.5516 181.99 90.7737 183.688C94.8408 178.46 101.911 175 109.951 175C122.559 175 132.78 183.507 132.78 194C132.78 196.472 132.213 198.834 131.181 201H132.78C141.186 201 148 206.373 148 213C148 219.627 141.186 225 132.78 225Z" fill="white"/>
</g>
<g filter="url(#filter15_d)">
<path fill-rule="evenodd" clip-rule="evenodd" d="M588 116.5C588 136.658 609.49 153 636 153H700C723.748 153 743 141.136 743 126.5C743 111.864 723.748 100 700 100C692.995 100 686.382 101.032 680.538 102.863C673.434 89.4599 656.17 80 636 80C609.49 80 588 96.3416 588 116.5Z" fill="white"/>
</g>
<path d="M186.298 231L202.5 212.291L218.702 231H186.298Z" fill="#F8EE94" stroke="white" stroke-width="3"/>
<path d="M811.456 310L831.5 291.064L851.544 310H811.456Z" fill="#4FC7ED" stroke="white" stroke-width="3"/>
<defs>
<filter id="filter0_d" x="166" y="184" width="72.4497" height="89" filterUnits="userSpaceOnUse" color-interpolation-filters="sRGB">
<feFlood flood-opacity="0" result="BackgroundImageFix"/>
<feColorMatrix in="SourceAlpha" type="matrix" values="0 0 0 0 0 0 0 0 0 0 0 0 0 0 0 0 0 0 127 0"/>
<feOffset dx="2" dy="4"/>
<feGaussianBlur stdDeviation="3"/>
<feColorMatrix type="matrix" values="0 0 0 0 0 0 0 0 0 0 0 0 0 0 0 0 0 0 0.25 0"/>
<feBlend mode="normal" in2="BackgroundImageFix" result="effect1_dropShadow"/>
<feBlend mode="normal" in="SourceGraphic" in2="effect1_dropShadow" result="shape"/>
</filter>
<filter id="filter1_d" x="377" y="144.459" width="261.415" height="243.75" filterUnits="userSpaceOnUse" color-interpolation-filters="sRGB">
<feFlood flood-opacity="0" result="BackgroundImageFix"/>
<feColorMatrix in="SourceAlpha" type="matrix" values="0 0 0 0 0 0 0 0 0 0 0 0 0 0 0 0 0 0 127 0"/>
<feOffset dy="4"/>
<feGaussianBlur stdDeviation="3"/>
<feColorMatrix type="matrix" values="0 0 0 0 0 0 0 0 0 0 0 0 0 0 0 0 0 0 0.25 0"/>
<feBlend mode="normal" in2="BackgroundImageFix" result="effect1_dropShadow"/>
<feBlend mode="normal" in="SourceGraphic" in2="effect1_dropShadow" result="shape"/>
</filter>
<filter id="filter2_d" x="626" y="144.459" width="261.415" height="243.75" filterUnits="userSpaceOnUse" color-interpolation-filters="sRGB">
<feFlood flood-opacity="0" result="BackgroundImageFix"/>
<feColorMatrix in="SourceAlpha" type="matrix" values="0 0 0 0 0 0 0 0 0 0 0 0 0 0 0 0 0 0 127 0"/>
<feOffset dy="4"/>
<feGaussianBlur stdDeviation="3"/>
<feColorMatrix type="matrix" values="0 0 0 0 0 0 0 0 0 0 0 0 0 0 0 0 0 0 0.25 0"/>
<feBlend mode="normal" in2="BackgroundImageFix" result="effect1_dropShadow"/>
<feBlend mode="normal" in="SourceGraphic" in2="effect1_dropShadow" result="shape"/>
</filter>
<filter id="filter3_d" x="125" y="144.459" width="261.415" height="243.75" filterUnits="userSpaceOnUse" color-interpolation-filters="sRGB">
<feFlood flood-opacity="0" result="BackgroundImageFix"/>
<feColorMatrix in="SourceAlpha" type="matrix" values="0 0 0 0 0 0 0 0 0 0 0 0 0 0 0 0 0 0 127 0"/>
<feOffset dy="4"/>
<feGaussianBlur stdDeviation="3"/>
<feColorMatrix type="matrix" values="0 0 0 0 0 0 0 0 0 0 0 0 0 0 0 0 0 0 0.25 0"/>
<feBlend mode="normal" in2="BackgroundImageFix" result="effect1_dropShadow"/>
<feBlend mode="normal" in="SourceGraphic" in2="effect1_dropShadow" result="shape"/>
</filter>
<filter id="filter4_d" x="299.613" y="238" width="45.775" height="81" filterUnits="userSpaceOnUse" color-interpolation-filters="sRGB">
<feFlood flood-opacity="0" result="BackgroundImageFix"/>
<feColorMatrix in="SourceAlpha" type="matrix" values="0 0 0 0 0 0 0 0 0 0 0 0 0 0 0 0 0 0 127 0"/>
<feOffset dx="2" dy="4"/>
<feGaussianBlur stdDeviation="3"/>
<feColorMatrix type="matrix" values="0 0 0 0 0 0 0 0 0 0 0 0 0 0 0 0 0 0 0.25 0"/>
<feBlend mode="normal" in2="BackgroundImageFix" result="effect1_dropShadow"/>
<feBlend mode="normal" in="SourceGraphic" in2="effect1_dropShadow" result="shape"/>
</filter>
<filter id="filter5_d" x="765" y="255" width="41.775" height="51" filterUnits="userSpaceOnUse" color-interpolation-filters="sRGB">
<feFlood flood-opacity="0" result="BackgroundImageFix"/>
<feColorMatrix in="SourceAlpha" type="matrix" values="0 0 0 0 0 0 0 0 0 0 0 0 0 0 0 0 0 0 127 0"/>
<feOffset dx="2" dy="4"/>
<feGaussianBlur stdDeviation="3"/>
<feColorMatrix type="matrix" values="0 0 0 0 0 0 0 0 0 0 0 0 0 0 0 0 0 0 0.25 0"/>
<feBlend mode="normal" in2="BackgroundImageFix" result="effect1_dropShadow"/>
<feBlend mode="normal" in="SourceGraphic" in2="effect1_dropShadow" result="shape"/>
</filter>
<filter id="filter6_d" x="217" y="294" width="41.775" height="54" filterUnits="userSpaceOnUse" color-interpolation-filters="sRGB">
<feFlood flood-opacity="0" result="BackgroundImageFix"/>
<feColorMatrix in="SourceAlpha" type="matrix" values="0 0 0 0 0 0 0 0 0 0 0 0 0 0 0 0 0 0 127 0"/>
<feOffset dx="2" dy="4"/>
<feGaussianBlur stdDeviation="3"/>
<feColorMatrix type="matrix" values="0 0 0 0 0 0 0 0 0 0 0 0 0 0 0 0 0 0 0.25 0"/>
<feBlend mode="normal" in2="BackgroundImageFix" result="effect1_dropShadow"/>
<feBlend mode="normal" in="SourceGraphic" in2="effect1_dropShadow" result="shape"/>
</filter>
<filter id="filter7_d" x="442" y="184" width="41.775" height="76" filterUnits="userSpaceOnUse" color-interpolation-filters="sRGB">
<feFlood flood-opacity="0" result="BackgroundImageFix"/>
<feColorMatrix in="SourceAlpha" type="matrix" values="0 0 0 0 0 0 0 0 0 0 0 0 0 0 0 0 0 0 127 0"/>
<feOffset dx="2" dy="4"/>
<feGaussianBlur stdDeviation="3"/>
<feColorMatrix type="matrix" values="0 0 0 0 0 0 0 0 0 0 0 0 0 0 0 0 0 0 0.25 0"/>
<feBlend mode="normal" in2="BackgroundImageFix" result="effect1_dropShadow"/>
<feBlend mode="normal" in="SourceGraphic" in2="effect1_dropShadow" result="shape"/>
</filter>
<filter id="filter8_d" x="705" y="307" width="51" height="63" filterUnits="userSpaceOnUse" color-interpolation-filters="sRGB">
<feFlood flood-opacity="0" result="BackgroundImageFix"/>
<feColorMatrix in="SourceAlpha" type="matrix" values="0 0 0 0 0 0 0 0 0 0 0 0 0 0 0 0 0 0 127 0"/>
<feOffset dx="2" dy="4"/>
<feGaussianBlur stdDeviation="3"/>
<feColorMatrix type="matrix" values="0 0 0 0 0 0 0 0 0 0 0 0 0 0 0 0 0 0 0.25 0"/>
<feBlend mode="normal" in2="BackgroundImageFix" result="effect1_dropShadow"/>
<feBlend mode="normal" in="SourceGraphic" in2="effect1_dropShadow" result="shape"/>
</filter>
<filter id="filter9_d" x="554" y="238" width="41.775" height="47" filterUnits="userSpaceOnUse" color-interpolation-filters="sRGB">
<feFlood flood-opacity="0" result="BackgroundImageFix"/>
<feColorMatrix in="SourceAlpha" type="matrix" values="0 0 0 0 0 0 0 0 0 0 0 0 0 0 0 0 0 0 127 0"/>
<feOffset dx="2" dy="4"/>
<feGaussianBlur stdDeviation="3"/>
<feColorMatrix type="matrix" values="0 0 0 0 0 0 0 0 0 0 0 0 0 0 0 0 0 0 0.25 0"/>
<feBlend mode="normal" in2="BackgroundImageFix" result="effect1_dropShadow"/>
<feBlend mode="normal" in="SourceGraphic" in2="effect1_dropShadow" result="shape"/>
</filter>
<filter id="filter10_d" x="504" y="294" width="41.775" height="59" filterUnits="userSpaceOnUse" color-interpolation-filters="sRGB">
<feFlood flood-opacity="0" result="BackgroundImageFix"/>
<feColorMatrix in="SourceAlpha" type="matrix" values="0 0 0 0 0 0 0 0 0 0 0 0 0 0 0 0 0 0 127 0"/>
<feOffset dx="2" dy="4"/>
<feGaussianBlur stdDeviation="3"/>
<feColorMatrix type="matrix" values="0 0 0 0 0 0 0 0 0 0 0 0 0 0 0 0 0 0 0.25 0"/>
<feBlend mode="normal" in2="BackgroundImageFix" result="effect1_dropShadow"/>
<feBlend mode="normal" in="SourceGraphic" in2="effect1_dropShadow" result="shape"/>
</filter>
<filter id="filter11_d" x="810" y="251" width="82" height="99" filterUnits="userSpaceOnUse" color-interpolation-filters="sRGB">
<feFlood flood-opacity="0" result="BackgroundImageFix"/>
<feColorMatrix in="SourceAlpha" type="matrix" values="0 0 0 0 0 0 0 0 0 0 0 0 0 0 0 0 0 0 127 0"/>
<feOffset dx="2" dy="4"/>
<feGaussianBlur stdDeviation="3"/>
<feColorMatrix type="matrix" values="0 0 0 0 0 0 0 0 0 0 0 0 0 0 0 0 0 0 0.25 0"/>
<feBlend mode="normal" in2="BackgroundImageFix" result="effect1_dropShadow"/>
<feBlend mode="normal" in="SourceGraphic" in2="effect1_dropShadow" result="shape"/>
</filter>
<filter id="filter12_d" x="159" y="174" width="65.0357" height="99" filterUnits="userSpaceOnUse" color-interpolation-filters="sRGB">
<feFlood flood-opacity="0" result="BackgroundImageFix"/>
<feColorMatrix in="SourceAlpha" type="matrix" values="0 0 0 0 0 0 0 0 0 0 0 0 0 0 0 0 0 0 127 0"/>
<feOffset dx="2" dy="4"/>
<feGaussianBlur stdDeviation="3"/>
<feColorMatrix type="matrix" values="0 0 0 0 0 0 0 0 0 0 0 0 0 0 0 0 0 0 0.25 0"/>
<feBlend mode="normal" in2="BackgroundImageFix" result="effect1_dropShadow"/>
<feBlend mode="normal" in="SourceGraphic" in2="effect1_dropShadow" result="shape"/>
</filter>
<filter id="filter13_d" x="258" y="25" width="112" height="92" filterUnits="userSpaceOnUse" color-interpolation-filters="sRGB">
<feFlood flood-opacity="0" result="BackgroundImageFix"/>
<feColorMatrix in="SourceAlpha" type="matrix" values="0 0 0 0 0 0 0 0 0 0 0 0 0 0 0 0 0 0 127 0"/>
<feOffset dx="2" dy="4"/>
<feGaussianBlur stdDeviation="3"/>
<feColorMatrix type="matrix" values="0 0 0 0 0 0 0 0 0 0 0 0 0 0 0 0 0 0 0.25 0"/>
<feBlend mode="normal" in2="BackgroundImageFix" result="effect1_dropShadow"/>
<feBlend mode="normal" in="SourceGraphic" in2="effect1_dropShadow" result="shape"/>
</filter>
<filter id="filter14_d" x="40" y="173" width="116" height="62" filterUnits="userSpaceOnUse" color-interpolation-filters="sRGB">
<feFlood flood-opacity="0" result="BackgroundImageFix"/>
<feColorMatrix in="SourceAlpha" type="matrix" values="0 0 0 0 0 0 0 0 0 0 0 0 0 0 0 0 0 0 127 0"/>
<feOffset dx="2" dy="4"/>
<feGaussianBlur stdDeviation="3"/>
<feColorMatrix type="matrix" values="0 0 0 0 0 0 0 0 0 0 0 0 0 0 0 0 0 0 0.25 0"/>
<feBlend mode="normal" in2="BackgroundImageFix" result="effect1_dropShadow"/>
<feBlend mode="normal" in="SourceGraphic" in2="effect1_dropShadow" result="shape"/>
</filter>
<filter id="filter15_d" x="584" y="78" width="167" height="85" filterUnits="userSpaceOnUse" color-interpolation-filters="sRGB">
<feFlood flood-opacity="0" result="BackgroundImageFix"/>
<feColorMatrix in="SourceAlpha" type="matrix" values="0 0 0 0 0 0 0 0 0 0 0 0 0 0 0 0 0 0 127 0"/>
<feOffset dx="2" dy="4"/>
<feGaussianBlur stdDeviation="3"/>
<feColorMatrix type="matrix" values="0 0 0 0 0 0 0 0 0 0 0 0 0 0 0 0 0 0 0.25 0"/>
<feBlend mode="normal" in2="BackgroundImageFix" result="effect1_dropShadow"/>
<feBlend mode="normal" in="SourceGraphic" in2="effect1_dropShadow" result="shape"/>
</filter>
<linearGradient id="paint0_linear" x1="467" y1="0" x2="467" y2="500" gradientUnits="userSpaceOnUse">
<stop stop-color="white"/>
<stop offset="1" stop-color="white" stop-opacity="0"/>
</linearGradient>
</defs>
</svg>
