<svg width="220" height="50" viewBox="0 0 220 50" fill="none" xmlns="http://www.w3.org/2000/svg">
<rect width="220" height="50" rx="10" fill="#6CC8A1" fill-opacity="0.75"/>
<g style="mix-blend-mode:darken">
<path d="M56.4102 31L53.9942 27.56C53.6955 27.5813 53.4609 27.592 53.2902 27.592H50.5222V31H48.9222V19.8H53.2902C54.7409 19.8 55.8822 20.1467 56.7142 20.84C57.5462 21.5333 57.9622 22.488 57.9622 23.704C57.9622 24.568 57.7489 25.304 57.3222 25.912C56.8955 26.52 56.2875 26.9627 55.4982 27.24L58.1542 31H56.4102ZM53.2422 26.232C54.2555 26.232 55.0289 26.0133 55.5622 25.576C56.0955 25.1387 56.3622 24.5147 56.3622 23.704C56.3622 22.8933 56.0955 22.2747 55.5622 21.848C55.0289 21.4107 54.2555 21.192 53.2422 21.192H50.5222V26.232H53.2422ZM68.6752 29.608V31H60.5472V19.8H68.4512V21.192H62.1472V24.632H67.7632V25.992H62.1472V29.608H68.6752ZM73.4899 21.192H69.6499V19.8H78.9139V21.192H75.0739V31H73.4899V21.192ZM85.0934 31.128C83.6001 31.128 82.4374 30.7013 81.6054 29.848C80.7734 28.9947 80.3574 27.768 80.3574 26.168V19.8H81.9574V26.104C81.9574 28.504 83.0081 29.704 85.1094 29.704C86.1334 29.704 86.9174 29.4107 87.4614 28.824C88.0054 28.2267 88.2774 27.32 88.2774 26.104V19.8H89.8294V26.168C89.8294 27.7787 89.4134 29.0107 88.5814 29.864C87.7494 30.7067 86.5868 31.128 85.0934 31.128ZM100.598 31L98.1817 27.56C97.883 27.5813 97.6484 27.592 97.4777 27.592H94.7097V31H93.1097V19.8H97.4777C98.9284 19.8 100.07 20.1467 100.902 20.84C101.734 21.5333 102.15 22.488 102.15 23.704C102.15 24.568 101.936 25.304 101.51 25.912C101.083 26.52 100.475 26.9627 99.6857 27.24L102.342 31H100.598ZM97.4297 26.232C98.443 26.232 99.2164 26.0133 99.7497 25.576C100.283 25.1387 100.55 24.5147 100.55 23.704C100.55 22.8933 100.283 22.2747 99.7497 21.848C99.2164 21.4107 98.443 21.192 97.4297 21.192H94.7097V26.232H97.4297ZM114.367 19.8V31H113.055L106.335 22.648V31H104.735V19.8H106.047L112.767 28.152V19.8H114.367ZM131.648 19.8V31H130.048V26.008H123.616V31H122.016V19.8H123.616V24.616H130.048V19.8H131.648ZM140.056 31.128C138.926 31.128 137.907 30.8827 137 30.392C136.094 29.8907 135.379 29.2027 134.856 28.328C134.344 27.4533 134.088 26.4773 134.088 25.4C134.088 24.3227 134.344 23.3467 134.856 22.472C135.379 21.5973 136.094 20.9147 137 20.424C137.907 19.9227 138.926 19.672 140.056 19.672C141.176 19.672 142.19 19.9227 143.096 20.424C144.003 20.9147 144.712 21.5973 145.224 22.472C145.736 23.336 145.992 24.312 145.992 25.4C145.992 26.488 145.736 27.4693 145.224 28.344C144.712 29.208 144.003 29.8907 143.096 30.392C142.19 30.8827 141.176 31.128 140.056 31.128ZM140.056 29.704C140.878 29.704 141.614 29.5173 142.264 29.144C142.926 28.7707 143.443 28.2587 143.816 27.608C144.2 26.9467 144.392 26.2107 144.392 25.4C144.392 24.5893 144.2 23.8587 143.816 23.208C143.443 22.5467 142.926 22.0293 142.264 21.656C141.614 21.2827 140.878 21.096 140.056 21.096C139.235 21.096 138.488 21.2827 137.816 21.656C137.155 22.0293 136.632 22.5467 136.248 23.208C135.875 23.8587 135.688 24.5893 135.688 25.4C135.688 26.2107 135.875 26.9467 136.248 27.608C136.632 28.2587 137.155 28.7707 137.816 29.144C138.488 29.5173 139.235 29.704 140.056 29.704ZM158.822 31L158.806 22.84L154.758 29.64H154.022L149.974 22.888V31H148.438V19.8H149.75L154.422 27.672L159.03 19.8H160.342L160.358 31H158.822ZM171.847 29.608V31H163.719V19.8H171.623V21.192H165.319V24.632H170.935V25.992H165.319V29.608H171.847Z" fill="#3AA376"/>
</g>
</svg>
