<svg width="243" height="52" viewBox="0 0 243 52" fill="none" xmlns="http://www.w3.org/2000/svg">
<rect width="243" height="52" rx="8" fill="#6CC8A1"/>
<rect x="24.8795" y="15.2928" width="55.1736" height="23.3847" fill="#6CC8A1" stroke="white" stroke-width="3"/>
<path d="M28.1536 38.4398L51.8082 23.8739L75.4628 38.4398H28.1536Z" fill="#6CC8A1" stroke="white" stroke-width="3"/>
<path d="M28.3863 14.9957L52.3347 30.7748L76.283 14.9957H28.3863Z" fill="#6CC8A1" stroke="white" stroke-width="3"/>
<path d="M108.986 32.2941L108.968 23.1141L104.414 30.7641H103.586L99.0318 23.1681V32.2941H97.3038V19.6941H98.7798L104.036 28.5501L109.22 19.6941H110.696L110.714 32.2941H108.986ZM123.639 30.7281V32.2941H114.495V19.6941H123.387V21.2601H116.295V25.1301H122.613V26.6601H116.295V30.7281H123.639ZM130.226 32.4381C129.278 32.4381 128.36 32.2941 127.472 32.0061C126.596 31.7061 125.906 31.3221 125.402 30.8541L126.068 29.4501C126.548 29.8821 127.16 30.2361 127.904 30.5121C128.66 30.7761 129.434 30.9081 130.226 30.9081C131.27 30.9081 132.05 30.7341 132.566 30.3861C133.082 30.0261 133.34 29.5521 133.34 28.9641C133.34 28.5321 133.196 28.1841 132.908 27.9201C132.632 27.6441 132.284 27.4341 131.864 27.2901C131.456 27.1461 130.874 26.9841 130.118 26.8041C129.17 26.5761 128.402 26.3481 127.814 26.1201C127.238 25.8921 126.74 25.5441 126.32 25.0761C125.912 24.5961 125.708 23.9541 125.708 23.1501C125.708 22.4781 125.882 21.8721 126.23 21.3321C126.59 20.7921 127.13 20.3601 127.85 20.0361C128.57 19.7121 129.464 19.5501 130.532 19.5501C131.276 19.5501 132.008 19.6461 132.728 19.8381C133.448 20.0301 134.066 20.3061 134.582 20.6661L133.988 22.1061C133.46 21.7701 132.896 21.5181 132.296 21.3501C131.696 21.1701 131.108 21.0801 130.532 21.0801C129.512 21.0801 128.744 21.2661 128.228 21.6381C127.724 22.0101 127.472 22.4901 127.472 23.0781C127.472 23.5101 127.616 23.8641 127.904 24.1401C128.192 24.4041 128.546 24.6141 128.966 24.7701C129.398 24.9141 129.98 25.0701 130.712 25.2381C131.66 25.4661 132.422 25.6941 132.998 25.9221C133.574 26.1501 134.066 26.4981 134.474 26.9661C134.894 27.4341 135.104 28.0641 135.104 28.8561C135.104 29.5161 134.924 30.1221 134.564 30.6741C134.204 31.2141 133.658 31.6461 132.926 31.9701C132.194 32.2821 131.294 32.4381 130.226 32.4381ZM141.405 32.4381C140.457 32.4381 139.539 32.2941 138.651 32.0061C137.775 31.7061 137.085 31.3221 136.581 30.8541L137.247 29.4501C137.727 29.8821 138.339 30.2361 139.083 30.5121C139.839 30.7761 140.613 30.9081 141.405 30.9081C142.449 30.9081 143.229 30.7341 143.745 30.3861C144.261 30.0261 144.519 29.5521 144.519 28.9641C144.519 28.5321 144.375 28.1841 144.087 27.9201C143.811 27.6441 143.463 27.4341 143.043 27.2901C142.635 27.1461 142.053 26.9841 141.297 26.8041C140.349 26.5761 139.581 26.3481 138.993 26.1201C138.417 25.8921 137.919 25.5441 137.499 25.0761C137.091 24.5961 136.887 23.9541 136.887 23.1501C136.887 22.4781 137.061 21.8721 137.409 21.3321C137.769 20.7921 138.309 20.3601 139.029 20.0361C139.749 19.7121 140.643 19.5501 141.711 19.5501C142.455 19.5501 143.187 19.6461 143.907 19.8381C144.627 20.0301 145.245 20.3061 145.761 20.6661L145.167 22.1061C144.639 21.7701 144.075 21.5181 143.475 21.3501C142.875 21.1701 142.287 21.0801 141.711 21.0801C140.691 21.0801 139.923 21.2661 139.407 21.6381C138.903 22.0101 138.651 22.4901 138.651 23.0781C138.651 23.5101 138.795 23.8641 139.083 24.1401C139.371 24.4041 139.725 24.6141 140.145 24.7701C140.577 24.9141 141.159 25.0701 141.891 25.2381C142.839 25.4661 143.601 25.6941 144.177 25.9221C144.753 26.1501 145.245 26.4981 145.653 26.9661C146.073 27.4341 146.283 28.0641 146.283 28.8561C146.283 29.5161 146.103 30.1221 145.743 30.6741C145.383 31.2141 144.837 31.6461 144.105 31.9701C143.373 32.2821 142.473 32.4381 141.405 32.4381ZM156.941 29.1441H150.245L148.859 32.2941H147.005L152.711 19.6941H154.493L160.217 32.2941H158.327L156.941 29.1441ZM156.311 27.7041L153.593 21.5301L150.875 27.7041H156.311ZM170.651 25.9221H172.379V30.8361C171.755 31.3521 171.029 31.7481 170.201 32.0241C169.373 32.3001 168.509 32.4381 167.609 32.4381C166.337 32.4381 165.191 32.1621 164.171 31.6101C163.151 31.0461 162.347 30.2781 161.759 29.3061C161.183 28.3221 160.895 27.2181 160.895 25.9941C160.895 24.7701 161.183 23.6661 161.759 22.6821C162.347 21.6981 163.151 20.9301 164.171 20.3781C165.203 19.8261 166.361 19.5501 167.645 19.5501C168.653 19.5501 169.565 19.7181 170.381 20.0541C171.209 20.3781 171.911 20.8581 172.487 21.4941L171.371 22.6101C170.363 21.6381 169.145 21.1521 167.717 21.1521C166.757 21.1521 165.893 21.3621 165.125 21.7821C164.369 22.1901 163.775 22.7661 163.343 23.5101C162.911 24.2421 162.695 25.0701 162.695 25.9941C162.695 26.9061 162.911 27.7341 163.343 28.4781C163.775 29.2101 164.369 29.7861 165.125 30.2061C165.893 30.6261 166.751 30.8361 167.699 30.8361C168.827 30.8361 169.811 30.5661 170.651 30.0261V25.9221ZM184.969 30.7281V32.2941H175.825V19.6941H184.717V21.2601H177.625V25.1301H183.943V26.6601H177.625V30.7281H184.969ZM204.4 32.2941L204.382 23.1141L199.828 30.7641H199L194.446 23.1681V32.2941H192.718V19.6941H194.194L199.45 28.5501L204.634 19.6941H206.11L206.128 32.2941H204.4ZM219.053 30.7281V32.2941H209.909V19.6941H218.801V21.2601H211.709V25.1301H218.027V26.6601H211.709V30.7281H219.053Z" fill="#3AA376"/>
</svg>
