<svg width="238" height="52" viewBox="0 0 238 52" fill="none" xmlns="http://www.w3.org/2000/svg">
<rect width="238" height="51.5667" rx="8" fill="#6CC8A1"/>
<rect x="24.3984" y="15.1779" width="53.9766" height="23.1648" fill="#6CC8A1" stroke="white" stroke-width="3"/>
<path d="M27.6277 38.1069L50.7422 23.6956L73.8567 38.1069H27.6277Z" fill="#6CC8A1" stroke="white" stroke-width="3"/>
<path d="M27.8536 14.8832L51.2578 30.4965L74.662 14.8832H27.8536Z" fill="#6CC8A1" stroke="white" stroke-width="3"/>
<path d="M105.74 32.1666L105.722 22.9866L101.168 30.6366H100.34L95.786 23.0406V32.1666H94.058V19.5666H95.534L100.79 28.4226L105.974 19.5666H107.45L107.468 32.1666H105.74ZM120.393 30.6006V32.1666H111.249V19.5666H120.141V21.1326H113.049V25.0026H119.367V26.5326H113.049V30.6006H120.393ZM126.98 32.3106C126.032 32.3106 125.114 32.1666 124.226 31.8786C123.35 31.5786 122.66 31.1946 122.156 30.7266L122.822 29.3226C123.302 29.7546 123.914 30.1086 124.658 30.3846C125.414 30.6486 126.188 30.7806 126.98 30.7806C128.024 30.7806 128.804 30.6066 129.32 30.2586C129.836 29.8986 130.094 29.4246 130.094 28.8366C130.094 28.4046 129.95 28.0566 129.662 27.7926C129.386 27.5166 129.038 27.3066 128.618 27.1626C128.21 27.0186 127.628 26.8566 126.872 26.6766C125.924 26.4486 125.156 26.2206 124.568 25.9926C123.992 25.7646 123.494 25.4166 123.074 24.9486C122.666 24.4686 122.462 23.8266 122.462 23.0226C122.462 22.3506 122.636 21.7446 122.984 21.2046C123.344 20.6646 123.884 20.2326 124.604 19.9086C125.324 19.5846 126.218 19.4226 127.286 19.4226C128.03 19.4226 128.762 19.5186 129.482 19.7106C130.202 19.9026 130.82 20.1786 131.336 20.5386L130.742 21.9786C130.214 21.6426 129.65 21.3906 129.05 21.2226C128.45 21.0426 127.862 20.9526 127.286 20.9526C126.266 20.9526 125.498 21.1386 124.982 21.5106C124.478 21.8826 124.226 22.3626 124.226 22.9506C124.226 23.3826 124.37 23.7366 124.658 24.0126C124.946 24.2766 125.3 24.4866 125.72 24.6426C126.152 24.7866 126.734 24.9426 127.466 25.1106C128.414 25.3386 129.176 25.5666 129.752 25.7946C130.328 26.0226 130.82 26.3706 131.228 26.8386C131.648 27.3066 131.858 27.9366 131.858 28.7286C131.858 29.3886 131.678 29.9946 131.318 30.5466C130.958 31.0866 130.412 31.5186 129.68 31.8426C128.948 32.1546 128.048 32.3106 126.98 32.3106ZM138.16 32.3106C137.212 32.3106 136.294 32.1666 135.406 31.8786C134.53 31.5786 133.84 31.1946 133.336 30.7266L134.002 29.3226C134.482 29.7546 135.094 30.1086 135.838 30.3846C136.594 30.6486 137.368 30.7806 138.16 30.7806C139.204 30.7806 139.984 30.6066 140.5 30.2586C141.016 29.8986 141.274 29.4246 141.274 28.8366C141.274 28.4046 141.13 28.0566 140.842 27.7926C140.566 27.5166 140.218 27.3066 139.798 27.1626C139.39 27.0186 138.808 26.8566 138.052 26.6766C137.104 26.4486 136.336 26.2206 135.748 25.9926C135.172 25.7646 134.674 25.4166 134.254 24.9486C133.846 24.4686 133.642 23.8266 133.642 23.0226C133.642 22.3506 133.816 21.7446 134.164 21.2046C134.524 20.6646 135.064 20.2326 135.784 19.9086C136.504 19.5846 137.398 19.4226 138.466 19.4226C139.21 19.4226 139.942 19.5186 140.662 19.7106C141.382 19.9026 142 20.1786 142.516 20.5386L141.922 21.9786C141.394 21.6426 140.83 21.3906 140.23 21.2226C139.63 21.0426 139.042 20.9526 138.466 20.9526C137.446 20.9526 136.678 21.1386 136.162 21.5106C135.658 21.8826 135.406 22.3626 135.406 22.9506C135.406 23.3826 135.55 23.7366 135.838 24.0126C136.126 24.2766 136.48 24.4866 136.9 24.6426C137.332 24.7866 137.914 24.9426 138.646 25.1106C139.594 25.3386 140.356 25.5666 140.932 25.7946C141.508 26.0226 142 26.3706 142.408 26.8386C142.828 27.3066 143.038 27.9366 143.038 28.7286C143.038 29.3886 142.858 29.9946 142.498 30.5466C142.138 31.0866 141.592 31.5186 140.86 31.8426C140.128 32.1546 139.228 32.3106 138.16 32.3106ZM153.695 29.0166H146.999L145.613 32.1666H143.759L149.465 19.5666H151.247L156.971 32.1666H155.081L153.695 29.0166ZM153.065 27.5766L150.347 21.4026L147.629 27.5766H153.065ZM167.405 25.7946H169.133V30.7086C168.509 31.2246 167.783 31.6206 166.955 31.8966C166.127 32.1726 165.263 32.3106 164.363 32.3106C163.091 32.3106 161.945 32.0346 160.925 31.4826C159.905 30.9186 159.101 30.1506 158.513 29.1786C157.937 28.1946 157.649 27.0906 157.649 25.8666C157.649 24.6426 157.937 23.5386 158.513 22.5546C159.101 21.5706 159.905 20.8026 160.925 20.2506C161.957 19.6986 163.115 19.4226 164.399 19.4226C165.407 19.4226 166.319 19.5906 167.135 19.9266C167.963 20.2506 168.665 20.7306 169.241 21.3666L168.125 22.4826C167.117 21.5106 165.899 21.0246 164.471 21.0246C163.511 21.0246 162.647 21.2346 161.879 21.6546C161.123 22.0626 160.529 22.6386 160.097 23.3826C159.665 24.1146 159.449 24.9426 159.449 25.8666C159.449 26.7786 159.665 27.6066 160.097 28.3506C160.529 29.0826 161.123 29.6586 161.879 30.0786C162.647 30.4986 163.505 30.7086 164.453 30.7086C165.581 30.7086 166.565 30.4386 167.405 29.8986V25.7946ZM181.723 30.6006V32.1666H172.579V19.5666H181.471V21.1326H174.379V25.0026H180.697V26.5326H174.379V30.6006H181.723ZM201.154 32.1666L201.136 22.9866L196.582 30.6366H195.754L191.2 23.0406V32.1666H189.472V19.5666H190.948L196.204 28.4226L201.388 19.5666H202.864L202.882 32.1666H201.154ZM215.807 30.6006V32.1666H206.663V19.5666H215.555V21.1326H208.463V25.0026H214.781V26.5326H208.463V30.6006H215.807Z" fill="#3AA376"/>
</svg>
