<svg width="160" height="160" viewBox="0 0 160 160" fill="none" xmlns="http://www.w3.org/2000/svg">
<ellipse cx="80" cy="88.5714" rx="80" ry="71.4286" fill="#F4A5E8"/>
<ellipse cx="63.2333" cy="17.9935" rx="20.1548" ry="17.9935" fill="#FFD4AD"/>
<ellipse cx="119.797" cy="79.6075" rx="13.0031" ry="11.9956" fill="#FFD4AD"/>
<mask id="path-4-inside-1" fill="white">
<path fill-rule="evenodd" clip-rule="evenodd" d="M63.2333 57.7972L80.4724 35.9869H83.3881V99.9308L96.3662 119.411H28.8L43.0784 97.9791V35.9869H45.9942L63.2333 57.7972Z"/>
</mask>
<path fill-rule="evenodd" clip-rule="evenodd" d="M63.2333 57.7972L80.4724 35.9869H83.3881V99.9308L96.3662 119.411H28.8L43.0784 97.9791V35.9869H45.9942L63.2333 57.7972Z" fill="#A74AF0"/>
<path d="M80.4724 35.9869V32.9869H79.0196L78.1188 34.1266L80.4724 35.9869ZM63.2333 57.7972L60.8797 59.6575L63.2333 62.6351L65.5868 59.6575L63.2333 57.7972ZM83.3881 35.9869H86.3881V32.9869H83.3881V35.9869ZM83.3881 99.9308H80.3881V100.839L80.8914 101.594L83.3881 99.9308ZM96.3662 119.411V122.411H101.97L98.8629 117.748L96.3662 119.411ZM28.8 119.411L26.3033 117.748L23.1965 122.411H28.8V119.411ZM43.0784 97.9791L45.5751 99.6424L46.0784 98.8869V97.9791H43.0784ZM43.0784 35.9869V32.9869H40.0784V35.9869H43.0784ZM45.9942 35.9869L48.3477 34.1266L47.4469 32.9869H45.9942V35.9869ZM78.1188 34.1266L60.8797 55.9369L65.5868 59.6575L82.8259 37.8472L78.1188 34.1266ZM83.3881 32.9869H80.4724V38.9869H83.3881V32.9869ZM86.3881 99.9308V35.9869H80.3881V99.9308H86.3881ZM80.8914 101.594L93.8696 121.074L98.8629 117.748L85.8848 98.2675L80.8914 101.594ZM96.3662 116.411H28.8V122.411H96.3662V116.411ZM31.2967 121.074L45.5751 99.6424L40.5818 96.3157L26.3033 117.748L31.2967 121.074ZM40.0784 35.9869V97.9791H46.0784V35.9869H40.0784ZM45.9942 32.9869H43.0784V38.9869H45.9942V32.9869ZM65.5868 55.9369L48.3477 34.1266L43.6406 37.8472L60.8797 59.6575L65.5868 55.9369Z" fill="#A74AF0" mask="url(#path-4-inside-1)"/>
<line x1="51.08" y1="119.956" x2="51.08" y2="142.857" stroke="#FFD4AD" stroke-width="3"/>
<line y1="-1.5" x2="26.7714" y2="-1.5" transform="matrix(0.679994 0.733217 -0.837567 0.546334 83.3881 57.7971)" stroke="#FFD4AD" stroke-width="3"/>
<path d="M130 117.23C130 124.142 128.717 130.327 126.708 134.728C124.637 139.262 122.082 141.357 119.797 141.357C117.511 141.357 114.957 139.262 112.886 134.728C110.877 130.327 109.594 124.142 109.594 117.23C109.594 110.318 110.877 104.133 112.886 99.7321C114.957 95.1984 117.511 93.103 119.797 93.103C122.082 93.103 124.637 95.1984 126.708 99.7321C128.717 104.133 130 110.318 130 117.23Z" fill="#F8EE94" stroke="#F8EE94" stroke-width="3"/>
</svg>
