<svg width="200" height="200" viewBox="0 0 200 200" fill="none" xmlns="http://www.w3.org/2000/svg">
<circle cx="100" cy="100" r="100" fill="#F4A5E8"/>
<ellipse cx="83.2333" cy="37.9935" rx="20.1548" ry="17.9935" fill="#FFD4AD"/>
<ellipse cx="139.797" cy="99.6075" rx="13.0031" ry="11.9956" fill="#FFD4AD"/>
<mask id="path-4-inside-1" fill="white">
<path fill-rule="evenodd" clip-rule="evenodd" d="M83.2333 77.7972L100.472 55.9869H103.388V119.931L116.366 139.411H48.8L63.0784 117.979V55.9869H65.9942L83.2333 77.7972Z"/>
</mask>
<path fill-rule="evenodd" clip-rule="evenodd" d="M83.2333 77.7972L100.472 55.9869H103.388V119.931L116.366 139.411H48.8L63.0784 117.979V55.9869H65.9942L83.2333 77.7972Z" fill="#A74AF0"/>
<path d="M100.472 55.9869V52.9869H99.0196L98.1188 54.1266L100.472 55.9869ZM83.2333 77.7972L80.8797 79.6575L83.2333 82.6351L85.5868 79.6575L83.2333 77.7972ZM103.388 55.9869H106.388V52.9869H103.388V55.9869ZM103.388 119.931H100.388V120.839L100.891 121.594L103.388 119.931ZM116.366 139.411V142.411H121.97L118.863 137.748L116.366 139.411ZM48.8 139.411L46.3033 137.748L43.1965 142.411H48.8V139.411ZM63.0784 117.979L65.5751 119.642L66.0784 118.887V117.979H63.0784ZM63.0784 55.9869V52.9869H60.0784V55.9869H63.0784ZM65.9942 55.9869L68.3477 54.1266L67.4469 52.9869H65.9942V55.9869ZM98.1188 54.1266L80.8797 75.9369L85.5868 79.6575L102.826 57.8472L98.1188 54.1266ZM103.388 52.9869H100.472V58.9869H103.388V52.9869ZM106.388 119.931V55.9869H100.388V119.931H106.388ZM100.891 121.594L113.87 141.074L118.863 137.748L105.885 118.267L100.891 121.594ZM116.366 136.411H48.8V142.411H116.366V136.411ZM51.2967 141.074L65.5751 119.642L60.5818 116.316L46.3033 137.748L51.2967 141.074ZM60.0784 55.9869V117.979H66.0784V55.9869H60.0784ZM65.9942 52.9869H63.0784V58.9869H65.9942V52.9869ZM85.5868 75.9369L68.3477 54.1266L63.6406 57.8472L80.8797 79.6575L85.5868 75.9369Z" fill="#A74AF0" mask="url(#path-4-inside-1)"/>
<line x1="71.08" y1="139.956" x2="71.08" y2="162.857" stroke="#FFD4AD" stroke-width="3"/>
<line y1="-1.5" x2="26.7714" y2="-1.5" transform="matrix(0.679994 0.733217 -0.837567 0.546334 103.388 77.7971)" stroke="#FFD4AD" stroke-width="3"/>
<path d="M150 137.23C150 144.142 148.717 150.327 146.708 154.728C144.637 159.262 142.082 161.357 139.797 161.357C137.511 161.357 134.957 159.262 132.886 154.728C130.877 150.327 129.594 144.142 129.594 137.23C129.594 130.318 130.877 124.133 132.886 119.732C134.957 115.198 137.511 113.103 139.797 113.103C142.082 113.103 144.637 115.198 146.708 119.732C148.717 124.133 150 130.318 150 137.23Z" fill="#F8EE94" stroke="#F8EE94" stroke-width="3"/>
</svg>
