<svg width="120" height="120" viewBox="0 0 120 120" fill="none" xmlns="http://www.w3.org/2000/svg">
<ellipse cx="60" cy="66.4285" rx="60" ry="53.5714" fill="#F4A5E8"/>
<ellipse cx="47.425" cy="13.4951" rx="15.1161" ry="13.4951" fill="#FFD4AD"/>
<ellipse cx="89.8477" cy="59.7056" rx="9.75235" ry="8.99673" fill="#FFD4AD"/>
<mask id="path-4-inside-1" fill="white">
<path fill-rule="evenodd" clip-rule="evenodd" d="M47.425 43.3478L60.3543 26.9902H62.5411V74.9481L72.2747 89.5583H21.6L32.3088 73.4843V26.9902H34.4956L47.425 43.3478Z"/>
</mask>
<path fill-rule="evenodd" clip-rule="evenodd" d="M47.425 43.3478L60.3543 26.9902H62.5411V74.9481L72.2747 89.5583H21.6L32.3088 73.4843V26.9902H34.4956L47.425 43.3478Z" fill="#A74AF0"/>
<path d="M60.3543 26.9902V23.9902H58.9015L58.0007 25.1299L60.3543 26.9902ZM47.425 43.3478L45.0714 45.2081L47.425 48.1858L49.7785 45.2081L47.425 43.3478ZM62.5411 26.9902H65.5411V23.9902H62.5411V26.9902ZM62.5411 74.9481H59.5411V75.8559L60.0444 76.6114L62.5411 74.9481ZM72.2747 89.5583V92.5583H77.8781L74.7713 87.895L72.2747 89.5583ZM21.6 89.5583L19.1033 87.895L15.9965 92.5583H21.6V89.5583ZM32.3088 73.4843L34.8055 75.1476L35.3088 74.3921V73.4843H32.3088ZM32.3088 26.9902V23.9902H29.3088V26.9902H32.3088ZM34.4956 26.9902L36.8492 25.1299L35.9484 23.9902H34.4956V26.9902ZM58.0007 25.1299L45.0714 41.4875L49.7785 45.2081L62.7078 28.8505L58.0007 25.1299ZM62.5411 23.9902H60.3543V29.9902H62.5411V23.9902ZM65.5411 74.9481V26.9902H59.5411V74.9481H65.5411ZM60.0444 76.6114L69.778 91.2216L74.7713 87.895L65.0378 73.2848L60.0444 76.6114ZM72.2747 86.5583H21.6V92.5583H72.2747V86.5583ZM24.0967 91.2216L34.8055 75.1476L29.8122 71.8209L19.1033 87.895L24.0967 91.2216ZM29.3088 26.9902V73.4843H35.3088V26.9902H29.3088ZM34.4956 23.9902H32.3088V29.9902H34.4956V23.9902ZM49.7785 41.4875L36.8492 25.1299L32.1421 28.8505L45.0714 45.2081L49.7785 41.4875Z" fill="#A74AF0" mask="url(#path-4-inside-1)"/>
<line x1="38.685" y1="89.9673" x2="38.685" y2="107.143" stroke="#FFD4AD" stroke-width="3"/>
<line y1="-1.5" x2="20.0785" y2="-1.5" transform="matrix(0.679994 0.733217 -0.837567 0.546334 62.5411 43.3478)" stroke="#FFD4AD" stroke-width="3"/>
<path d="M97.1248 87.9226C97.1248 93.0655 96.1698 97.6489 94.6896 100.89C93.1486 104.265 91.3252 105.643 89.8477 105.643C88.3702 105.643 86.5467 104.265 85.0058 100.89C83.5256 97.6489 82.5705 93.0655 82.5705 87.9226C82.5705 82.7796 83.5256 78.1963 85.0058 74.9549C86.5467 71.5805 88.3702 70.2023 89.8477 70.2023C91.3252 70.2023 93.1486 71.5805 94.6896 74.9549C96.1698 78.1963 97.1248 82.7796 97.1248 87.9226Z" fill="#F8EE94" stroke="#F8EE94" stroke-width="3"/>
</svg>
