<svg width="228" height="58" viewBox="0 0 228 58" fill="none" xmlns="http://www.w3.org/2000/svg">
<g filter="url(#filter0_d)">
<rect x="4" width="220" height="50" rx="10" fill="#6CC8A1"/>
</g>
<g style="mix-blend-mode:darken">
<path d="M60.4102 31L57.9942 27.56C57.6955 27.5813 57.4609 27.592 57.2902 27.592H54.5222V31H52.9222V19.8H57.2902C58.7409 19.8 59.8822 20.1467 60.7142 20.84C61.5462 21.5333 61.9622 22.488 61.9622 23.704C61.9622 24.568 61.7489 25.304 61.3222 25.912C60.8955 26.52 60.2875 26.9627 59.4982 27.24L62.1542 31H60.4102ZM57.2422 26.232C58.2555 26.232 59.0289 26.0133 59.5622 25.576C60.0955 25.1387 60.3622 24.5147 60.3622 23.704C60.3622 22.8933 60.0955 22.2747 59.5622 21.848C59.0289 21.4107 58.2555 21.192 57.2422 21.192H54.5222V26.232H57.2422ZM72.6752 29.608V31H64.5472V19.8H72.4512V21.192H66.1472V24.632H71.7632V25.992H66.1472V29.608H72.6752ZM77.4899 21.192H73.6499V19.8H82.9139V21.192H79.0739V31H77.4899V21.192ZM89.0934 31.128C87.6001 31.128 86.4374 30.7013 85.6054 29.848C84.7734 28.9947 84.3574 27.768 84.3574 26.168V19.8H85.9574V26.104C85.9574 28.504 87.0081 29.704 89.1094 29.704C90.1334 29.704 90.9174 29.4107 91.4614 28.824C92.0054 28.2267 92.2774 27.32 92.2774 26.104V19.8H93.8294V26.168C93.8294 27.7787 93.4134 29.0107 92.5814 29.864C91.7494 30.7067 90.5868 31.128 89.0934 31.128ZM104.598 31L102.182 27.56C101.883 27.5813 101.648 27.592 101.478 27.592H98.7097V31H97.1097V19.8H101.478C102.928 19.8 104.07 20.1467 104.902 20.84C105.734 21.5333 106.15 22.488 106.15 23.704C106.15 24.568 105.936 25.304 105.51 25.912C105.083 26.52 104.475 26.9627 103.686 27.24L106.342 31H104.598ZM101.43 26.232C102.443 26.232 103.216 26.0133 103.75 25.576C104.283 25.1387 104.55 24.5147 104.55 23.704C104.55 22.8933 104.283 22.2747 103.75 21.848C103.216 21.4107 102.443 21.192 101.43 21.192H98.7097V26.232H101.43ZM118.367 19.8V31H117.055L110.335 22.648V31H108.735V19.8H110.047L116.767 28.152V19.8H118.367ZM135.648 19.8V31H134.048V26.008H127.616V31H126.016V19.8H127.616V24.616H134.048V19.8H135.648ZM144.056 31.128C142.926 31.128 141.907 30.8827 141 30.392C140.094 29.8907 139.379 29.2027 138.856 28.328C138.344 27.4533 138.088 26.4773 138.088 25.4C138.088 24.3227 138.344 23.3467 138.856 22.472C139.379 21.5973 140.094 20.9147 141 20.424C141.907 19.9227 142.926 19.672 144.056 19.672C145.176 19.672 146.19 19.9227 147.096 20.424C148.003 20.9147 148.712 21.5973 149.224 22.472C149.736 23.336 149.992 24.312 149.992 25.4C149.992 26.488 149.736 27.4693 149.224 28.344C148.712 29.208 148.003 29.8907 147.096 30.392C146.19 30.8827 145.176 31.128 144.056 31.128ZM144.056 29.704C144.878 29.704 145.614 29.5173 146.264 29.144C146.926 28.7707 147.443 28.2587 147.816 27.608C148.2 26.9467 148.392 26.2107 148.392 25.4C148.392 24.5893 148.2 23.8587 147.816 23.208C147.443 22.5467 146.926 22.0293 146.264 21.656C145.614 21.2827 144.878 21.096 144.056 21.096C143.235 21.096 142.488 21.2827 141.816 21.656C141.155 22.0293 140.632 22.5467 140.248 23.208C139.875 23.8587 139.688 24.5893 139.688 25.4C139.688 26.2107 139.875 26.9467 140.248 27.608C140.632 28.2587 141.155 28.7707 141.816 29.144C142.488 29.5173 143.235 29.704 144.056 29.704ZM162.822 31L162.806 22.84L158.758 29.64H158.022L153.974 22.888V31H152.438V19.8H153.75L158.422 27.672L163.03 19.8H164.342L164.358 31H162.822ZM175.847 29.608V31H167.719V19.8H175.623V21.192H169.319V24.632H174.935V25.992H169.319V29.608H175.847Z" fill="#3AA376"/>
</g>
<defs>
<filter id="filter0_d" x="0" y="0" width="228" height="58" filterUnits="userSpaceOnUse" color-interpolation-filters="sRGB">
<feFlood flood-opacity="0" result="BackgroundImageFix"/>
<feColorMatrix in="SourceAlpha" type="matrix" values="0 0 0 0 0 0 0 0 0 0 0 0 0 0 0 0 0 0 127 0"/>
<feOffset dy="4"/>
<feGaussianBlur stdDeviation="2"/>
<feColorMatrix type="matrix" values="0 0 0 0 0 0 0 0 0 0 0 0 0 0 0 0 0 0 0.25 0"/>
<feBlend mode="normal" in2="BackgroundImageFix" result="effect1_dropShadow"/>
<feBlend mode="normal" in="SourceGraphic" in2="effect1_dropShadow" result="shape"/>
</filter>
</defs>
</svg>
