<svg width="232" height="62" viewBox="0 0 232 62" fill="none" xmlns="http://www.w3.org/2000/svg">
<g filter="url(#filter0_d)">
<rect x="6" y="2" width="220" height="50" rx="10" fill="#F0BCE8"/>
</g>
<path d="M64.9549 21.8L60.0429 33H58.4589L53.5309 21.8H55.2589L59.2909 31L63.3549 21.8H64.9549ZM66.3831 21.8H67.9831V33H66.3831V21.8ZM79.4643 31.608V33H71.3363V21.8H79.2403V23.192H72.9363V26.632H78.5523V27.992H72.9363V31.608H79.4643ZM97.7228 21.8L93.9788 33H92.2988L89.2428 24.056L86.1868 33H84.4748L80.7308 21.8H82.3788L85.4028 30.904L88.5548 21.8H90.0268L93.1148 30.952L96.2028 21.8H97.7228ZM108.579 21.8C110.03 21.8 111.171 22.1467 112.003 22.84C112.835 23.5333 113.251 24.488 113.251 25.704C113.251 26.92 112.835 27.8747 112.003 28.568C111.171 29.2613 110.03 29.608 108.579 29.608H105.811V33H104.211V21.8H108.579ZM108.531 28.216C109.545 28.216 110.318 28.0027 110.851 27.576C111.385 27.1387 111.651 26.5147 111.651 25.704C111.651 24.8933 111.385 24.2747 110.851 23.848C110.318 23.4107 109.545 23.192 108.531 23.192H105.811V28.216H108.531ZM123.09 33L120.674 29.56C120.375 29.5813 120.141 29.592 119.97 29.592H117.202V33H115.602V21.8H119.97C121.421 21.8 122.562 22.1467 123.394 22.84C124.226 23.5333 124.642 24.488 124.642 25.704C124.642 26.568 124.429 27.304 124.002 27.912C123.575 28.52 122.967 28.9627 122.178 29.24L124.834 33H123.09ZM119.922 28.232C120.935 28.232 121.709 28.0133 122.242 27.576C122.775 27.1387 123.042 26.5147 123.042 25.704C123.042 24.8933 122.775 24.2747 122.242 23.848C121.709 23.4107 120.935 23.192 119.922 23.192H117.202V28.232H119.922ZM132.283 33.128C131.152 33.128 130.134 32.8827 129.227 32.392C128.32 31.8907 127.606 31.2027 127.083 30.328C126.571 29.4533 126.315 28.4773 126.315 27.4C126.315 26.3227 126.571 25.3467 127.083 24.472C127.606 23.5973 128.32 22.9147 129.227 22.424C130.134 21.9227 131.152 21.672 132.283 21.672C133.403 21.672 134.416 21.9227 135.323 22.424C136.23 22.9147 136.939 23.5973 137.451 24.472C137.963 25.336 138.219 26.312 138.219 27.4C138.219 28.488 137.963 29.4693 137.451 30.344C136.939 31.208 136.23 31.8907 135.323 32.392C134.416 32.8827 133.403 33.128 132.283 33.128ZM132.283 31.704C133.104 31.704 133.84 31.5173 134.491 31.144C135.152 30.7707 135.67 30.2587 136.043 29.608C136.427 28.9467 136.619 28.2107 136.619 27.4C136.619 26.5893 136.427 25.8587 136.043 25.208C135.67 24.5467 135.152 24.0293 134.491 23.656C133.84 23.2827 133.104 23.096 132.283 23.096C131.462 23.096 130.715 23.2827 130.043 23.656C129.382 24.0293 128.859 24.5467 128.475 25.208C128.102 25.8587 127.915 26.5893 127.915 27.4C127.915 28.2107 128.102 28.9467 128.475 29.608C128.859 30.2587 129.382 30.7707 130.043 31.144C130.715 31.5173 131.462 31.704 132.283 31.704ZM141.87 33.128C141.198 33.128 140.574 32.9893 139.998 32.712C139.422 32.424 138.958 32.024 138.606 31.512L139.534 30.424C140.153 31.3093 140.931 31.752 141.87 31.752C142.499 31.752 142.974 31.56 143.294 31.176C143.625 30.792 143.79 30.2267 143.79 29.48V23.192H139.742V21.8H145.374V29.4C145.374 30.6373 145.075 31.5707 144.478 32.2C143.891 32.8187 143.022 33.128 141.87 33.128ZM156.761 31.608V33H148.633V21.8H156.537V23.192H150.233V26.632H155.849V27.992H150.233V31.608H156.761ZM164.313 33.128C163.193 33.128 162.18 32.8827 161.273 32.392C160.377 31.8907 159.673 31.208 159.161 30.344C158.649 29.4693 158.393 28.488 158.393 27.4C158.393 26.312 158.649 25.336 159.161 24.472C159.673 23.5973 160.382 22.9147 161.289 22.424C162.196 21.9227 163.209 21.672 164.329 21.672C165.204 21.672 166.004 21.8213 166.729 22.12C167.454 22.408 168.073 22.84 168.585 23.416L167.545 24.424C166.702 23.5387 165.652 23.096 164.393 23.096C163.561 23.096 162.809 23.2827 162.137 23.656C161.465 24.0293 160.937 24.5467 160.553 25.208C160.18 25.8587 159.993 26.5893 159.993 27.4C159.993 28.2107 160.18 28.9467 160.553 29.608C160.937 30.2587 161.465 30.7707 162.137 31.144C162.809 31.5173 163.561 31.704 164.393 31.704C165.641 31.704 166.692 31.256 167.545 30.36L168.585 31.368C168.073 31.944 167.449 32.3813 166.713 32.68C165.988 32.9787 165.188 33.128 164.313 33.128ZM172.967 23.192H169.127V21.8H178.391V23.192H174.551V33H172.967V23.192Z" fill="#DD33C3"/>
<defs>
<filter id="filter0_d" x="0" y="0" width="232" height="62" filterUnits="userSpaceOnUse" color-interpolation-filters="sRGB">
<feFlood flood-opacity="0" result="BackgroundImageFix"/>
<feColorMatrix in="SourceAlpha" type="matrix" values="0 0 0 0 0 0 0 0 0 0 0 0 0 0 0 0 0 0 127 0"/>
<feOffset dy="4"/>
<feGaussianBlur stdDeviation="3"/>
<feColorMatrix type="matrix" values="0 0 0 0 0.831373 0 0 0 0 0.45098 0 0 0 0 0.772549 0 0 0 0.25 0"/>
<feBlend mode="normal" in2="BackgroundImageFix" result="effect1_dropShadow"/>
<feBlend mode="normal" in="SourceGraphic" in2="effect1_dropShadow" result="shape"/>
</filter>
</defs>
</svg>
