<svg width="243" height="52" viewBox="0 0 243 52" fill="none" xmlns="http://www.w3.org/2000/svg">
<path d="M0 8.00001C0 3.58173 3.58172 0 8 0H230C234.418 0 238 3.58172 238 8V43.57C238 47.9883 234.418 51.57 230 51.57H8C3.58172 51.57 0 47.9883 0 43.57V8.00001Z" fill="#6CC8A1"/>
<mask id="path-2-inside-1" fill="white">
<path fill-rule="evenodd" clip-rule="evenodd" d="M45.9617 14.1083L36.0275 4.33521H14V46.4999H45.9617V14.1083Z"/>
</mask>
<path fill-rule="evenodd" clip-rule="evenodd" d="M45.9617 14.1083L36.0275 4.33521H14V46.4999H45.9617V14.1083Z" fill="#6CC8A1"/>
<path d="M45.9617 14.1083H46.9617V13.6893L46.663 13.3955L45.9617 14.1083ZM36.0275 4.33521L36.7288 3.62235L36.437 3.33521H36.0275V4.33521ZM14 4.33521V3.33521H13V4.33521H14ZM14 46.4999H13V47.4999H14V46.4999ZM45.9617 46.4999V47.4999H46.9617V46.4999H45.9617ZM46.663 13.3955L36.7288 3.62235L35.3262 5.04806L45.2603 14.8212L46.663 13.3955ZM14 5.33521H36.0275V3.33521H14V5.33521ZM15 46.4999V4.33521H13V46.4999H15ZM45.9617 45.4999H14V47.4999H45.9617V45.4999ZM44.9617 14.1083V46.4999H46.9617V14.1083H44.9617Z" fill="white" mask="url(#path-2-inside-1)"/>
<path d="M34.427 15.0994L35.6104 4.9778L45.2527 15.0106L34.427 15.0994Z" fill="white"/>
<line x1="26.6667" y1="16.8923" x2="38" y2="16.8923" stroke="white"/>
<line x1="26.6667" y1="22.3077" x2="38" y2="22.3077" stroke="white"/>
<line x1="26.6667" y1="31.7847" x2="40" y2="31.7847" stroke="white"/>
<line x1="26.6667" y1="29.7539" x2="38" y2="29.7539" stroke="white"/>
<line x1="26.6667" y1="19.6" x2="40.6667" y2="19.6" stroke="white"/>
<line x1="26.6667" y1="26.3693" x2="40.6667" y2="26.3693" stroke="white"/>
<line x1="26.6667" y1="39.9077" x2="39.3333" y2="39.9077" stroke="white"/>
<line x1="26.6667" y1="36.5231" x2="40.6667" y2="36.5231" stroke="white"/>
<line x1="26.6667" y1="42.6154" x2="40.6667" y2="42.6154" stroke="white"/>
<ellipse cx="20.6667" cy="12.2124" rx="2.91667" ry="2.94314" fill="white"/>
<path d="M16 20.4108C16 17.8335 18.0893 15.7441 20.6667 15.7441V15.7441C23.244 15.7441 25.3333 17.8335 25.3333 20.4108V22.8077H16V20.4108Z" fill="white"/>
<mask id="path-16-inside-2" fill="white">
<path fill-rule="evenodd" clip-rule="evenodd" d="M16.6187 29.0278L20.1804 30.5044L23.4356 29.1461C23.3547 30.8571 21.9419 32.2195 20.2109 32.2195H19.8468C18.0761 32.2195 16.6383 30.7939 16.6187 29.0278Z"/>
</mask>
<path fill-rule="evenodd" clip-rule="evenodd" d="M16.6187 29.0278L20.1804 30.5044L23.4356 29.1461C23.3547 30.8571 21.9419 32.2195 20.2109 32.2195H19.8468C18.0761 32.2195 16.6383 30.7939 16.6187 29.0278Z" fill="#6CC8A1"/>
<path d="M16.6187 29.0278L17.0016 28.1041L15.6018 27.5238L15.6187 29.039L16.6187 29.0278ZM20.1804 30.5044L19.7975 31.4282L20.1817 31.5875L20.5655 31.4273L20.1804 30.5044ZM23.4356 29.1461L24.4345 29.1933L24.5091 27.6146L23.0505 28.2232L23.4356 29.1461ZM16.2357 29.9516L19.7975 31.4282L20.5634 29.5807L17.0016 28.1041L16.2357 29.9516ZM20.5655 31.4273L23.8207 30.069L23.0505 28.2232L19.7953 29.5816L20.5655 31.4273ZM22.4367 29.0989C22.3809 30.2791 21.4054 31.2195 20.2109 31.2195V33.2195C22.4784 33.2195 24.3285 31.4351 24.4345 29.1933L22.4367 29.0989ZM20.2109 31.2195H19.8468V33.2195H20.2109V31.2195ZM19.8468 31.2195C18.6247 31.2195 17.6322 30.2355 17.6186 29.0167L15.6187 29.039C15.6445 31.3523 17.5276 33.2195 19.8468 33.2195V31.2195Z" fill="white" mask="url(#path-16-inside-2)"/>
<mask id="path-18-inside-3" fill="white">
<path fill-rule="evenodd" clip-rule="evenodd" d="M24.8266 28.0198L19.6961 25.5L15 27.6278L20.3538 30.0916L24.1324 28.3413L23.8929 30.3524C23.7931 30.4391 23.7283 30.5784 23.7283 30.7356C23.7283 30.9985 23.9095 31.2116 24.1329 31.2116C24.3564 31.2116 24.5376 30.9985 24.5376 30.7356C24.5376 30.6059 24.4935 30.4883 24.422 30.4025V28.2072L24.8266 28.0198ZM24.1701 31.2116C23.852 31.2116 23.5839 31.4491 23.5455 31.7649L23.3815 33.1154H25L24.7922 31.7463C24.7455 31.4388 24.4811 31.2116 24.1701 31.2116Z"/>
</mask>
<path fill-rule="evenodd" clip-rule="evenodd" d="M24.8266 28.0198L19.6961 25.5L15 27.6278L20.3538 30.0916L24.1324 28.3413L23.8929 30.3524C23.7931 30.4391 23.7283 30.5784 23.7283 30.7356C23.7283 30.9985 23.9095 31.2116 24.1329 31.2116C24.3564 31.2116 24.5376 30.9985 24.5376 30.7356C24.5376 30.6059 24.4935 30.4883 24.422 30.4025V28.2072L24.8266 28.0198ZM24.1701 31.2116C23.852 31.2116 23.5839 31.4491 23.5455 31.7649L23.3815 33.1154H25L24.7922 31.7463C24.7455 31.4388 24.4811 31.2116 24.1701 31.2116Z" fill="#6CC8A1"/>
<path d="M19.6961 25.5L20.1369 24.6024L19.7133 24.3943L19.2834 24.5891L19.6961 25.5ZM24.8266 28.0198L25.2469 28.9272L27.1488 28.0462L25.2674 27.1222L24.8266 28.0198ZM15 27.6278L14.5873 26.717L12.5926 27.6208L14.5819 28.5363L15 27.6278ZM20.3538 30.0916L19.9358 31.0001L20.3552 31.1931L20.7741 30.999L20.3538 30.0916ZM24.1324 28.3413L25.1254 28.4596L25.3373 26.6812L23.7121 27.4339L24.1324 28.3413ZM23.8929 30.3524L24.5485 31.1075L24.8402 30.8543L24.8859 30.4707L23.8929 30.3524ZM24.422 30.4025H23.422V30.7644L23.6536 31.0425L24.422 30.4025ZM24.422 28.2072L24.0017 27.2998L23.422 27.5684V28.2072H24.422ZM23.5455 31.7649L24.5382 31.8854L24.5382 31.8854L23.5455 31.7649ZM23.3815 33.1154L22.3888 32.9948L22.2527 34.1154H23.3815V33.1154ZM25 33.1154V34.1154H26.1633L25.9887 32.9653L25 33.1154ZM24.7922 31.7463L25.7808 31.5962L25.7808 31.5962L24.7922 31.7463ZM19.2552 26.3976L24.3857 28.9174L25.2674 27.1222L20.1369 24.6024L19.2552 26.3976ZM15.4127 28.5387L20.1088 26.4109L19.2834 24.5891L14.5873 26.717L15.4127 28.5387ZM20.7719 29.1832L15.4181 26.7194L14.5819 28.5363L19.9358 31.0001L20.7719 29.1832ZM23.7121 27.4339L19.9335 29.1842L20.7741 30.999L24.5528 29.2487L23.7121 27.4339ZM24.8859 30.4707L25.1254 28.4596L23.1395 28.2231L22.8999 30.2341L24.8859 30.4707ZM24.7283 30.7356C24.7283 30.8468 24.6831 30.9907 24.5485 31.1075L23.2373 29.5973C22.9031 29.8874 22.7283 30.3101 22.7283 30.7356H24.7283ZM24.1329 30.2116C24.3552 30.2116 24.52 30.32 24.6087 30.4244C24.6957 30.5267 24.7283 30.6399 24.7283 30.7356H22.7283C22.7283 31.3923 23.2111 32.2116 24.1329 32.2116V30.2116ZM23.5376 30.7356C23.5376 30.6399 23.5702 30.5267 23.6572 30.4244C23.7459 30.32 23.9107 30.2116 24.1329 30.2116V32.2116C25.0548 32.2116 25.5376 31.3923 25.5376 30.7356H23.5376ZM23.6536 31.0425C23.5694 30.9414 23.5376 30.8301 23.5376 30.7356H25.5376C25.5376 30.3817 25.4176 30.0353 25.1903 29.7625L23.6536 31.0425ZM23.422 28.2072V30.4025H25.422V28.2072H23.422ZM24.4063 27.1124L24.0017 27.2998L24.8423 29.1146L25.2469 28.9272L24.4063 27.1124ZM24.5382 31.8854C24.5156 32.0716 24.3576 32.2116 24.1701 32.2116V30.2116C23.3463 30.2116 22.6521 30.8265 22.5528 31.6443L24.5382 31.8854ZM24.3742 33.236L24.5382 31.8854L22.5528 31.6443L22.3888 32.9948L24.3742 33.236ZM25 32.1154H23.3815V34.1154H25V32.1154ZM23.8035 31.8964L24.0113 33.2655L25.9887 32.9653L25.7808 31.5962L23.8035 31.8964ZM24.1701 32.2116C23.9868 32.2116 23.831 32.0776 23.8035 31.8964L25.7808 31.5962C25.66 30.8 24.9755 30.2116 24.1701 30.2116V32.2116Z" fill="white" mask="url(#path-18-inside-3)"/>
<rect x="18" y="37.0231" width="2" height="6.76923" fill="white"/>
<rect x="21" y="34.9923" width="2" height="9.47692" fill="white"/>
<path d="M67.0401 19.4L61.5141 32H59.7321L54.1881 19.4H56.1321L60.6681 29.75L65.2401 19.4H67.0401ZM68.6468 19.4H70.4468V32H68.6468V19.4ZM83.3631 30.434V32H74.2191V19.4H83.1111V20.966H76.0191V24.836H82.3371V26.366H76.0191V30.434H83.3631ZM103.904 19.4L99.6919 32H97.8019L94.3639 21.938L90.9259 32H88.9999L84.7879 19.4H86.6419L90.0439 29.642L93.5899 19.4H95.2459L98.7199 29.696L102.194 19.4H103.904ZM122.885 32L122.867 22.82L118.313 30.47H117.485L112.931 22.874V32H111.203V19.4H112.679L117.935 28.256L123.119 19.4H124.595L124.613 32H122.885ZM133.219 27.644V32H131.437V27.608L126.433 19.4H128.359L132.391 26.042L136.441 19.4H138.223L133.219 27.644ZM153.307 32L150.589 28.13C150.253 28.154 149.989 28.166 149.797 28.166H146.683V32H144.883V19.4H149.797C151.429 19.4 152.713 19.79 153.649 20.57C154.585 21.35 155.053 22.424 155.053 23.792C155.053 24.764 154.813 25.592 154.333 26.276C153.853 26.96 153.169 27.458 152.281 27.77L155.269 32H153.307ZM149.743 26.636C150.883 26.636 151.753 26.39 152.353 25.898C152.953 25.406 153.253 24.704 153.253 23.792C153.253 22.88 152.953 22.184 152.353 21.704C151.753 21.212 150.883 20.966 149.743 20.966H146.683V26.636H149.743ZM167.105 30.434V32H157.961V19.4H166.853V20.966H159.761V24.836H166.079V26.366H159.761V30.434H167.105ZM173.692 32.144C172.744 32.144 171.826 32 170.938 31.712C170.062 31.412 169.372 31.028 168.868 30.56L169.534 29.156C170.014 29.588 170.626 29.942 171.37 30.218C172.126 30.482 172.9 30.614 173.692 30.614C174.736 30.614 175.516 30.44 176.032 30.092C176.548 29.732 176.806 29.258 176.806 28.67C176.806 28.238 176.662 27.89 176.374 27.626C176.098 27.35 175.75 27.14 175.33 26.996C174.922 26.852 174.34 26.69 173.584 26.51C172.636 26.282 171.868 26.054 171.28 25.826C170.704 25.598 170.206 25.25 169.786 24.782C169.378 24.302 169.174 23.66 169.174 22.856C169.174 22.184 169.348 21.578 169.696 21.038C170.056 20.498 170.596 20.066 171.316 19.742C172.036 19.418 172.93 19.256 173.998 19.256C174.742 19.256 175.474 19.352 176.194 19.544C176.914 19.736 177.532 20.012 178.048 20.372L177.454 21.812C176.926 21.476 176.362 21.224 175.762 21.056C175.162 20.876 174.574 20.786 173.998 20.786C172.978 20.786 172.21 20.972 171.694 21.344C171.19 21.716 170.938 22.196 170.938 22.784C170.938 23.216 171.082 23.57 171.37 23.846C171.658 24.11 172.012 24.32 172.432 24.476C172.864 24.62 173.446 24.776 174.178 24.944C175.126 25.172 175.888 25.4 176.464 25.628C177.04 25.856 177.532 26.204 177.94 26.672C178.36 27.14 178.57 27.77 178.57 28.562C178.57 29.222 178.39 29.828 178.03 30.38C177.67 30.92 177.124 31.352 176.392 31.676C175.66 31.988 174.76 32.144 173.692 32.144ZM186.42 32.144C184.74 32.144 183.432 31.664 182.496 30.704C181.56 29.744 181.092 28.364 181.092 26.564V19.4H182.892V26.492C182.892 29.192 184.074 30.542 186.438 30.542C187.59 30.542 188.472 30.212 189.084 29.552C189.696 28.88 190.002 27.86 190.002 26.492V19.4H191.748V26.564C191.748 28.376 191.28 29.762 190.344 30.722C189.408 31.67 188.1 32.144 186.42 32.144ZM207.12 32L207.102 22.82L202.548 30.47H201.72L197.166 22.874V32H195.438V19.4H196.914L202.17 28.256L207.354 19.4H208.83L208.848 32H207.12ZM221.773 30.434V32H212.629V19.4H221.521V20.966H214.429V24.836H220.747V26.366H214.429V30.434H221.773Z" fill="#3AA376"/>
</svg>
