<svg width="170" height="170" viewBox="0 0 170 170" fill="none" xmlns="http://www.w3.org/2000/svg">
<ellipse cx="98.5714" cy="95.4386" rx="71.4286" ry="74.5614" fill="#F8EE94"/>
<path fill-rule="evenodd" clip-rule="evenodd" d="M156.265 70.5003C157.059 66.5909 154.852 62.6937 151.09 61.3645L150.69 61.2229C146.107 59.6037 141.152 62.4104 140.184 67.1729L129.581 119.358C128.824 123.086 125.546 125.765 121.742 125.765H99.4286C95.0103 125.765 91.4286 129.346 91.4286 133.765V136.384C91.4286 140.802 95.0103 144.384 99.4286 144.384H136.286C140.704 144.384 144.286 140.802 144.286 136.384V130.263C144.286 129.728 144.339 129.194 144.446 128.67L156.265 70.5003Z" fill="black"/>
<ellipse cx="70.7143" cy="32.8071" rx="25" ry="26.8421" fill="#FFD4AD"/>
<ellipse rx="21.5914" ry="13.3268" transform="matrix(0.90409 -0.427342 0.39796 0.917403 63.3955 21.4529)" fill="#F8EE94"/>
<ellipse cx="22.8571" cy="23.8597" rx="22.8571" ry="19.386" fill="#F8EE94"/>
<rect width="54.4098" height="14.4986" rx="5" transform="matrix(0.562269 0.826954 -0.803504 0.595299 77.364 67.1053)" fill="#CB78BE"/>
<rect x="91.4286" y="104.386" width="32.8571" height="14.9123" rx="5" fill="#D573C5"/>
<rect x="42.8571" y="67.1053" width="38.5714" height="73.0702" rx="5" fill="#D573C5"/>
</svg>
