<svg width="160" height="160" viewBox="0 0 160 160" fill="none" xmlns="http://www.w3.org/2000/svg">
<ellipse cx="92.7731" cy="89.8245" rx="67.2269" ry="70.1754" fill="#F8EE94"/>
<path fill-rule="evenodd" clip-rule="evenodd" d="M147.038 66.5221C147.806 62.7458 145.674 58.9813 142.04 57.6974V57.6974C137.614 56.1334 132.828 58.8445 131.893 63.4448L122.036 111.96C121.278 115.688 118 118.367 114.196 118.367H94.0504C89.6321 118.367 86.0504 121.949 86.0504 126.367V127.891C86.0504 132.309 89.6321 135.891 94.0504 135.891H127.798C132.217 135.891 135.798 132.309 135.798 127.891V122.648C135.798 122.113 135.852 121.579 135.958 121.055L147.038 66.5221Z" fill="black"/>
<ellipse cx="66.5546" cy="30.8772" rx="23.5294" ry="25.2632" fill="#FFD4AD"/>
<ellipse rx="20.3213" ry="12.5429" transform="matrix(0.90409 -0.427342 0.39796 0.917403 59.6664 20.191)" fill="#F8EE94"/>
<ellipse cx="21.5126" cy="22.4562" rx="21.5126" ry="18.2456" fill="#F8EE94"/>
<rect width="51.2093" height="13.6458" rx="5" transform="matrix(0.56227 0.826954 -0.803504 0.595299 72.8132 63.158)" fill="#CB78BE"/>
<rect x="86.0504" y="98.2457" width="30.9244" height="14.0351" rx="5" fill="#D573C5"/>
<rect x="40.3361" y="63.158" width="36.3025" height="68.7719" rx="5" fill="#D573C5"/>
</svg>
