<svg width="120" height="120" viewBox="0 0 120 120" fill="none" xmlns="http://www.w3.org/2000/svg">
<ellipse cx="69.5798" cy="67.3684" rx="50.4202" ry="52.6316" fill="#F8EE94"/>
<path fill-rule="evenodd" clip-rule="evenodd" d="M110.279 49.8916C110.854 47.0593 109.255 44.236 106.53 43.2731V43.2731C103.211 42.1001 99.6206 44.1334 98.9196 47.5836L91.8521 82.368C91.0947 86.0961 87.8166 88.7751 84.0123 88.7751H71.1092C67.4799 88.7751 64.5378 91.7172 64.5378 95.3465V95.3465C64.5378 98.9758 67.4799 101.918 71.1092 101.918H93.8487C98.267 101.918 101.849 98.3362 101.849 93.9179V92.1868C101.849 91.6518 101.902 91.1182 102.009 90.5939L110.279 49.8916Z" fill="black"/>
<ellipse cx="49.916" cy="23.1579" rx="17.6471" ry="18.9474" fill="#FFD4AD"/>
<ellipse rx="15.241" ry="9.40714" transform="matrix(0.90409 -0.427342 0.39796 0.917403 44.7498 15.1432)" fill="#F8EE94"/>
<ellipse cx="16.1345" cy="16.8421" rx="16.1345" ry="13.6842" fill="#F8EE94"/>
<rect width="38.4069" height="10.2343" rx="5" transform="matrix(0.56227 0.826954 -0.803504 0.595299 54.6099 47.3685)" fill="#CB78BE"/>
<rect x="64.5378" y="73.6843" width="23.1933" height="10.5263" rx="5" fill="#D573C5"/>
<rect x="30.2521" y="47.3685" width="27.2269" height="51.5789" rx="5" fill="#D573C5"/>
</svg>
