<svg width="220" height="50" viewBox="0 0 220 50" fill="none" xmlns="http://www.w3.org/2000/svg">
<rect width="220" height="50" rx="10" fill="#F5CE42"/>
<path d="M58.9549 19.8L54.0429 31H52.4589L47.5309 19.8H49.2589L53.2909 29L57.3549 19.8H58.9549ZM60.3831 19.8H61.9831V31H60.3831V19.8ZM73.4643 29.608V31H65.3363V19.8H73.2403V21.192H66.9363V24.632H72.5523V25.992H66.9363V29.608H73.4643ZM91.7228 19.8L87.9788 31H86.2988L83.2428 22.056L80.1868 31H78.4748L74.7308 19.8H76.3788L79.4028 28.904L82.5548 19.8H84.0268L87.1148 28.952L90.2028 19.8H91.7228ZM102.579 19.8C104.03 19.8 105.171 20.1467 106.003 20.84C106.835 21.5333 107.251 22.488 107.251 23.704C107.251 24.92 106.835 25.8747 106.003 26.568C105.171 27.2613 104.03 27.608 102.579 27.608H99.8113V31H98.2113V19.8H102.579ZM102.531 26.216C103.545 26.216 104.318 26.0027 104.851 25.576C105.385 25.1387 105.651 24.5147 105.651 23.704C105.651 22.8933 105.385 22.2747 104.851 21.848C104.318 21.4107 103.545 21.192 102.531 21.192H99.8113V26.216H102.531ZM117.09 31L114.674 27.56C114.375 27.5813 114.141 27.592 113.97 27.592H111.202V31H109.602V19.8H113.97C115.421 19.8 116.562 20.1467 117.394 20.84C118.226 21.5333 118.642 22.488 118.642 23.704C118.642 24.568 118.429 25.304 118.002 25.912C117.575 26.52 116.967 26.9627 116.178 27.24L118.834 31H117.09ZM113.922 26.232C114.935 26.232 115.709 26.0133 116.242 25.576C116.775 25.1387 117.042 24.5147 117.042 23.704C117.042 22.8933 116.775 22.2747 116.242 21.848C115.709 21.4107 114.935 21.192 113.922 21.192H111.202V26.232H113.922ZM126.283 31.128C125.152 31.128 124.134 30.8827 123.227 30.392C122.32 29.8907 121.606 29.2027 121.083 28.328C120.571 27.4533 120.315 26.4773 120.315 25.4C120.315 24.3227 120.571 23.3467 121.083 22.472C121.606 21.5973 122.32 20.9147 123.227 20.424C124.134 19.9227 125.152 19.672 126.283 19.672C127.403 19.672 128.416 19.9227 129.323 20.424C130.23 20.9147 130.939 21.5973 131.451 22.472C131.963 23.336 132.219 24.312 132.219 25.4C132.219 26.488 131.963 27.4693 131.451 28.344C130.939 29.208 130.23 29.8907 129.323 30.392C128.416 30.8827 127.403 31.128 126.283 31.128ZM126.283 29.704C127.104 29.704 127.84 29.5173 128.491 29.144C129.152 28.7707 129.67 28.2587 130.043 27.608C130.427 26.9467 130.619 26.2107 130.619 25.4C130.619 24.5893 130.427 23.8587 130.043 23.208C129.67 22.5467 129.152 22.0293 128.491 21.656C127.84 21.2827 127.104 21.096 126.283 21.096C125.462 21.096 124.715 21.2827 124.043 21.656C123.382 22.0293 122.859 22.5467 122.475 23.208C122.102 23.8587 121.915 24.5893 121.915 25.4C121.915 26.2107 122.102 26.9467 122.475 27.608C122.859 28.2587 123.382 28.7707 124.043 29.144C124.715 29.5173 125.462 29.704 126.283 29.704ZM135.87 31.128C135.198 31.128 134.574 30.9893 133.998 30.712C133.422 30.424 132.958 30.024 132.606 29.512L133.534 28.424C134.153 29.3093 134.931 29.752 135.87 29.752C136.499 29.752 136.974 29.56 137.294 29.176C137.625 28.792 137.79 28.2267 137.79 27.48V21.192H133.742V19.8H139.374V27.4C139.374 28.6373 139.075 29.5707 138.478 30.2C137.891 30.8187 137.022 31.128 135.87 31.128ZM150.761 29.608V31H142.633V19.8H150.537V21.192H144.233V24.632H149.849V25.992H144.233V29.608H150.761ZM158.313 31.128C157.193 31.128 156.18 30.8827 155.273 30.392C154.377 29.8907 153.673 29.208 153.161 28.344C152.649 27.4693 152.393 26.488 152.393 25.4C152.393 24.312 152.649 23.336 153.161 22.472C153.673 21.5973 154.382 20.9147 155.289 20.424C156.196 19.9227 157.209 19.672 158.329 19.672C159.204 19.672 160.004 19.8213 160.729 20.12C161.454 20.408 162.073 20.84 162.585 21.416L161.545 22.424C160.702 21.5387 159.652 21.096 158.393 21.096C157.561 21.096 156.809 21.2827 156.137 21.656C155.465 22.0293 154.937 22.5467 154.553 23.208C154.18 23.8587 153.993 24.5893 153.993 25.4C153.993 26.2107 154.18 26.9467 154.553 27.608C154.937 28.2587 155.465 28.7707 156.137 29.144C156.809 29.5173 157.561 29.704 158.393 29.704C159.641 29.704 160.692 29.256 161.545 28.36L162.585 29.368C162.073 29.944 161.449 30.3813 160.713 30.68C159.988 30.9787 159.188 31.128 158.313 31.128ZM166.967 21.192H163.127V19.8H172.391V21.192H168.551V31H166.967V21.192Z" fill="#F8EE94"/>
</svg>
