<svg width="220" height="51" viewBox="0 0 220 51" fill="none" xmlns="http://www.w3.org/2000/svg">
<g style="mix-blend-mode:screen">
<rect width="220" height="51" rx="8" fill="#F8EE94"/>
</g>
<g style="mix-blend-mode:darken">
<path d="M58.9549 20.8L54.0429 32H52.4589L47.5309 20.8H49.2589L53.2909 30L57.3549 20.8H58.9549ZM60.3831 20.8H61.9831V32H60.3831V20.8ZM73.4643 30.608V32H65.3363V20.8H73.2403V22.192H66.9363V25.632H72.5523V26.992H66.9363V30.608H73.4643ZM91.7228 20.8L87.9788 32H86.2988L83.2428 23.056L80.1868 32H78.4748L74.7308 20.8H76.3788L79.4028 29.904L82.5548 20.8H84.0268L87.1148 29.952L90.2028 20.8H91.7228ZM102.579 20.8C104.03 20.8 105.171 21.1467 106.003 21.84C106.835 22.5333 107.251 23.488 107.251 24.704C107.251 25.92 106.835 26.8747 106.003 27.568C105.171 28.2613 104.03 28.608 102.579 28.608H99.8113V32H98.2113V20.8H102.579ZM102.531 27.216C103.545 27.216 104.318 27.0027 104.851 26.576C105.385 26.1387 105.651 25.5147 105.651 24.704C105.651 23.8933 105.385 23.2747 104.851 22.848C104.318 22.4107 103.545 22.192 102.531 22.192H99.8113V27.216H102.531ZM117.09 32L114.674 28.56C114.375 28.5813 114.141 28.592 113.97 28.592H111.202V32H109.602V20.8H113.97C115.421 20.8 116.562 21.1467 117.394 21.84C118.226 22.5333 118.642 23.488 118.642 24.704C118.642 25.568 118.429 26.304 118.002 26.912C117.575 27.52 116.967 27.9627 116.178 28.24L118.834 32H117.09ZM113.922 27.232C114.935 27.232 115.709 27.0133 116.242 26.576C116.775 26.1387 117.042 25.5147 117.042 24.704C117.042 23.8933 116.775 23.2747 116.242 22.848C115.709 22.4107 114.935 22.192 113.922 22.192H111.202V27.232H113.922ZM126.283 32.128C125.152 32.128 124.134 31.8827 123.227 31.392C122.32 30.8907 121.606 30.2027 121.083 29.328C120.571 28.4533 120.315 27.4773 120.315 26.4C120.315 25.3227 120.571 24.3467 121.083 23.472C121.606 22.5973 122.32 21.9147 123.227 21.424C124.134 20.9227 125.152 20.672 126.283 20.672C127.403 20.672 128.416 20.9227 129.323 21.424C130.23 21.9147 130.939 22.5973 131.451 23.472C131.963 24.336 132.219 25.312 132.219 26.4C132.219 27.488 131.963 28.4693 131.451 29.344C130.939 30.208 130.23 30.8907 129.323 31.392C128.416 31.8827 127.403 32.128 126.283 32.128ZM126.283 30.704C127.104 30.704 127.84 30.5173 128.491 30.144C129.152 29.7707 129.67 29.2587 130.043 28.608C130.427 27.9467 130.619 27.2107 130.619 26.4C130.619 25.5893 130.427 24.8587 130.043 24.208C129.67 23.5467 129.152 23.0293 128.491 22.656C127.84 22.2827 127.104 22.096 126.283 22.096C125.462 22.096 124.715 22.2827 124.043 22.656C123.382 23.0293 122.859 23.5467 122.475 24.208C122.102 24.8587 121.915 25.5893 121.915 26.4C121.915 27.2107 122.102 27.9467 122.475 28.608C122.859 29.2587 123.382 29.7707 124.043 30.144C124.715 30.5173 125.462 30.704 126.283 30.704ZM135.87 32.128C135.198 32.128 134.574 31.9893 133.998 31.712C133.422 31.424 132.958 31.024 132.606 30.512L133.534 29.424C134.153 30.3093 134.931 30.752 135.87 30.752C136.499 30.752 136.974 30.56 137.294 30.176C137.625 29.792 137.79 29.2267 137.79 28.48V22.192H133.742V20.8H139.374V28.4C139.374 29.6373 139.075 30.5707 138.478 31.2C137.891 31.8187 137.022 32.128 135.87 32.128ZM150.761 30.608V32H142.633V20.8H150.537V22.192H144.233V25.632H149.849V26.992H144.233V30.608H150.761ZM158.313 32.128C157.193 32.128 156.18 31.8827 155.273 31.392C154.377 30.8907 153.673 30.208 153.161 29.344C152.649 28.4693 152.393 27.488 152.393 26.4C152.393 25.312 152.649 24.336 153.161 23.472C153.673 22.5973 154.382 21.9147 155.289 21.424C156.196 20.9227 157.209 20.672 158.329 20.672C159.204 20.672 160.004 20.8213 160.729 21.12C161.454 21.408 162.073 21.84 162.585 22.416L161.545 23.424C160.702 22.5387 159.652 22.096 158.393 22.096C157.561 22.096 156.809 22.2827 156.137 22.656C155.465 23.0293 154.937 23.5467 154.553 24.208C154.18 24.8587 153.993 25.5893 153.993 26.4C153.993 27.2107 154.18 27.9467 154.553 28.608C154.937 29.2587 155.465 29.7707 156.137 30.144C156.809 30.5173 157.561 30.704 158.393 30.704C159.641 30.704 160.692 30.256 161.545 29.36L162.585 30.368C162.073 30.944 161.449 31.3813 160.713 31.68C159.988 31.9787 159.188 32.128 158.313 32.128ZM166.967 22.192H163.127V20.8H172.391V22.192H168.551V32H166.967V22.192Z" fill="#F3DF24"/>
</g>
</svg>
