<svg width="934" height="322" viewBox="0 0 934 322" fill="none" xmlns="http://www.w3.org/2000/svg">
<rect width="934" height="322" fill="#B4DAE7"/>
<rect width="934" height="322" fill="url(#paint0_linear)" fill-opacity="0.6"/>
<g filter="url(#filter0_d)">
<path d="M473.5 104.897L543 255.897H404L473.5 104.897Z" fill="#6CC8A1"/>
<path d="M451.842 197.638L444.396 167.273L474.633 98.1243L496.462 151.501L507.153 177.645L484.146 199.078L469.748 175.977L451.842 197.638Z" fill="white" stroke="white"/>
<mask id="path-4-inside-1" fill="white">
<path fill-rule="evenodd" clip-rule="evenodd" d="M444.078 208.897L429.191 160.897L414.303 208.897H425V227.157H432.934V208.897H444.078Z"/>
</mask>
<path fill-rule="evenodd" clip-rule="evenodd" d="M444.078 208.897L429.191 160.897L414.303 208.897H425V227.157H432.934V208.897H444.078Z" fill="#F8EE94"/>
<path d="M429.191 160.897L431.101 160.304L429.191 154.145L427.28 160.304L429.191 160.897ZM444.078 208.897V210.897H446.792L445.988 208.304L444.078 208.897ZM414.303 208.897L412.393 208.304L411.589 210.897H414.303V208.897ZM425 208.897H427V206.897H425V208.897ZM425 227.157H423V229.157H425V227.157ZM432.934 227.157V229.157H434.934V227.157H432.934ZM432.934 208.897V206.897H430.934V208.897H432.934ZM427.28 161.489L442.168 209.489L445.988 208.304L431.101 160.304L427.28 161.489ZM416.213 209.489L431.101 161.489L427.28 160.304L412.393 208.304L416.213 209.489ZM425 206.897H414.303V210.897H425V206.897ZM427 227.157V208.897H423V227.157H427ZM432.934 225.157H425V229.157H432.934V225.157ZM430.934 208.897V227.157H434.934V208.897H430.934ZM444.078 206.897H432.934V210.897H444.078V206.897Z" fill="white" mask="url(#path-4-inside-1)"/>
<mask id="path-6-inside-2" fill="white">
<path fill-rule="evenodd" clip-rule="evenodd" d="M542.775 228.147L527.887 204.897L513 228.147H524V239.897H532V228.147H542.775Z"/>
</mask>
<path fill-rule="evenodd" clip-rule="evenodd" d="M542.775 228.147L527.887 204.897L513 228.147H524V239.897H532V228.147H542.775Z" fill="#A74AF0"/>
<path d="M527.887 204.897L529.572 203.818L527.887 201.188L526.203 203.818L527.887 204.897ZM542.775 228.147V230.147H546.431L544.459 227.068L542.775 228.147ZM513 228.147L511.316 227.068L509.344 230.147H513V228.147ZM524 228.147H526V226.147H524V228.147ZM524 239.897H522V241.897H524V239.897ZM532 239.897V241.897H534V239.897H532ZM532 228.147V226.147H530V228.147H532ZM526.203 205.975L541.091 229.225L544.459 227.068L529.572 203.818L526.203 205.975ZM514.684 229.225L529.572 205.975L526.203 203.818L511.316 227.068L514.684 229.225ZM524 226.147H513V230.147H524V226.147ZM526 239.897V228.147H522V239.897H526ZM532 237.897H524V241.897H532V237.897ZM530 228.147V239.897H534V228.147H530ZM542.775 226.147H532V230.147H542.775V226.147Z" fill="white" mask="url(#path-6-inside-2)"/>
</g>
<g filter="url(#filter1_d)">
<ellipse cx="276" cy="77" rx="50" ry="40" fill="#F8EE94"/>
</g>
<g filter="url(#filter2_d)">
<path fill-rule="evenodd" clip-rule="evenodd" d="M155.341 238H79.6585C71.0106 238 64 232.305 64 225.28C64 218.255 71.0106 212.56 79.6585 212.56H80.3163C79.8869 211.205 79.6585 209.784 79.6585 208.32C79.6585 198.953 89.006 191.36 100.537 191.36C104.823 191.36 108.808 192.409 112.123 194.209C116.307 188.667 123.581 185 131.854 185C144.826 185 155.341 194.017 155.341 205.14C155.341 207.76 154.758 210.264 153.696 212.56H155.341C163.989 212.56 171 218.255 171 225.28C171 232.305 163.989 238 155.341 238Z" fill="white"/>
</g>
<g filter="url(#filter3_d)">
<path fill-rule="evenodd" clip-rule="evenodd" d="M615 124.5C615 144.658 636.49 161 663 161H727C750.748 161 770 149.136 770 134.5C770 119.864 750.748 108 727 108C719.995 108 713.382 109.032 707.538 110.863C700.434 97.4599 683.17 88 663 88C636.49 88 615 104.342 615 124.5Z" fill="white"/>
</g>
<path d="M433.891 277.2C436.035 277.2 437.715 277.712 438.931 278.736C440.147 279.76 440.755 281.168 440.755 282.96C440.755 284.752 440.147 286.16 438.931 287.184C437.715 288.192 436.035 288.696 433.891 288.696H429.379V294H427.603V277.2H433.891ZM433.843 287.136C435.507 287.136 436.779 286.776 437.659 286.056C438.539 285.32 438.979 284.288 438.979 282.96C438.979 281.6 438.539 280.56 437.659 279.84C436.779 279.104 435.507 278.736 433.843 278.736H429.379V287.136H433.843ZM445.539 283.848C445.939 283 446.531 282.36 447.315 281.928C448.115 281.496 449.099 281.28 450.267 281.28V282.936L449.859 282.912C448.531 282.912 447.491 283.32 446.739 284.136C445.987 284.952 445.611 286.096 445.611 287.568V294H443.907V281.376H445.539V283.848ZM458.395 294.12C457.179 294.12 456.083 293.848 455.107 293.304C454.131 292.744 453.363 291.976 452.803 291C452.243 290.024 451.963 288.92 451.963 287.688C451.963 286.456 452.243 285.352 452.803 284.376C453.363 283.4 454.131 282.64 455.107 282.096C456.083 281.552 457.179 281.28 458.395 281.28C459.611 281.28 460.707 281.552 461.683 282.096C462.659 282.64 463.419 283.4 463.963 284.376C464.523 285.352 464.803 286.456 464.803 287.688C464.803 288.92 464.523 290.024 463.963 291C463.419 291.976 462.659 292.744 461.683 293.304C460.707 293.848 459.611 294.12 458.395 294.12ZM458.395 292.608C459.291 292.608 460.091 292.408 460.795 292.008C461.515 291.592 462.075 291.008 462.475 290.256C462.875 289.504 463.075 288.648 463.075 287.688C463.075 286.728 462.875 285.872 462.475 285.12C462.075 284.368 461.515 283.792 460.795 283.392C460.091 282.976 459.291 282.768 458.395 282.768C457.499 282.768 456.691 282.976 455.971 283.392C455.267 283.792 454.707 284.368 454.291 285.12C453.891 285.872 453.691 286.728 453.691 287.688C453.691 288.648 453.891 289.504 454.291 290.256C454.707 291.008 455.267 291.592 455.971 292.008C456.691 292.408 457.499 292.608 458.395 292.608ZM466.41 298.776C465.882 298.776 465.386 298.704 464.922 298.56C464.442 298.432 464.05 298.232 463.746 297.96L464.346 296.664C464.842 297.096 465.498 297.312 466.314 297.312C466.986 297.312 467.498 297.112 467.85 296.712C468.218 296.312 468.402 295.72 468.402 294.936V281.376H470.106V294.936C470.106 296.12 469.786 297.056 469.146 297.744C468.506 298.432 467.594 298.776 466.41 298.776ZM469.266 278.592C468.914 278.592 468.618 278.472 468.378 278.232C468.138 277.992 468.018 277.704 468.018 277.368C468.018 277.048 468.138 276.768 468.378 276.528C468.618 276.288 468.914 276.168 469.266 276.168C469.618 276.168 469.914 276.288 470.154 276.528C470.394 276.752 470.514 277.024 470.514 277.344C470.514 277.696 470.394 277.992 470.154 278.232C469.914 278.472 469.618 278.592 469.266 278.592ZM485.86 288.216H475.3C475.396 289.528 475.9 290.592 476.812 291.408C477.724 292.208 478.876 292.608 480.268 292.608C481.052 292.608 481.772 292.472 482.428 292.2C483.084 291.912 483.652 291.496 484.132 290.952L485.092 292.056C484.532 292.728 483.828 293.24 482.98 293.592C482.148 293.944 481.228 294.12 480.22 294.12C478.924 294.12 477.772 293.848 476.764 293.304C475.772 292.744 474.996 291.976 474.436 291C473.876 290.024 473.596 288.92 473.596 287.688C473.596 286.456 473.86 285.352 474.388 284.376C474.932 283.4 475.668 282.64 476.596 282.096C477.54 281.552 478.596 281.28 479.764 281.28C480.932 281.28 481.98 281.552 482.908 282.096C483.836 282.64 484.564 283.4 485.092 284.376C485.62 285.336 485.884 286.44 485.884 287.688L485.86 288.216ZM479.764 282.744C478.548 282.744 477.524 283.136 476.692 283.92C475.876 284.688 475.412 285.696 475.3 286.944H484.252C484.14 285.696 483.668 284.688 482.836 283.92C482.02 283.136 480.996 282.744 479.764 282.744ZM494.585 294.12C493.337 294.12 492.217 293.848 491.225 293.304C490.249 292.76 489.481 292 488.921 291.024C488.361 290.032 488.081 288.92 488.081 287.688C488.081 286.456 488.361 285.352 488.921 284.376C489.481 283.4 490.249 282.64 491.225 282.096C492.217 281.552 493.337 281.28 494.585 281.28C495.673 281.28 496.641 281.496 497.489 281.928C498.353 282.344 499.033 282.96 499.529 283.776L498.257 284.64C497.841 284.016 497.313 283.552 496.673 283.248C496.033 282.928 495.337 282.768 494.585 282.768C493.673 282.768 492.849 282.976 492.113 283.392C491.393 283.792 490.825 284.368 490.409 285.12C490.009 285.872 489.809 286.728 489.809 287.688C489.809 288.664 490.009 289.528 490.409 290.28C490.825 291.016 491.393 291.592 492.113 292.008C492.849 292.408 493.673 292.608 494.585 292.608C495.337 292.608 496.033 292.456 496.673 292.152C497.313 291.848 497.841 291.384 498.257 290.76L499.529 291.624C499.033 292.44 498.353 293.064 497.489 293.496C496.625 293.912 495.657 294.12 494.585 294.12ZM509.665 293.232C509.345 293.52 508.945 293.744 508.465 293.904C508.001 294.048 507.513 294.12 507.001 294.12C505.817 294.12 504.905 293.8 504.265 293.16C503.625 292.52 503.305 291.616 503.305 290.448V282.816H501.049V281.376H503.305V278.616H505.009V281.376H508.849V282.816H505.009V290.352C505.009 291.104 505.193 291.68 505.561 292.08C505.945 292.464 506.489 292.656 507.193 292.656C507.545 292.656 507.881 292.6 508.201 292.488C508.537 292.376 508.825 292.216 509.065 292.008L509.665 293.232ZM516.151 294.12C515.127 294.12 514.143 293.976 513.199 293.688C512.271 293.384 511.543 293.008 511.015 292.56L511.783 291.216C512.311 291.632 512.975 291.976 513.775 292.248C514.575 292.504 515.407 292.632 516.271 292.632C517.423 292.632 518.271 292.456 518.815 292.104C519.375 291.736 519.655 291.224 519.655 290.568C519.655 290.104 519.503 289.744 519.199 289.488C518.895 289.216 518.511 289.016 518.047 288.888C517.583 288.744 516.967 288.608 516.199 288.48C515.175 288.288 514.351 288.096 513.727 287.904C513.103 287.696 512.567 287.352 512.119 286.872C511.687 286.392 511.471 285.728 511.471 284.88C511.471 283.824 511.911 282.96 512.791 282.288C513.671 281.616 514.895 281.28 516.463 281.28C517.279 281.28 518.095 281.392 518.911 281.616C519.727 281.824 520.399 282.104 520.927 282.456L520.183 283.824C519.143 283.104 517.903 282.744 516.463 282.744C515.375 282.744 514.551 282.936 513.991 283.32C513.447 283.704 513.175 284.208 513.175 284.832C513.175 285.312 513.327 285.696 513.631 285.984C513.951 286.272 514.343 286.488 514.807 286.632C515.271 286.76 515.911 286.896 516.727 287.04C517.735 287.232 518.543 287.424 519.151 287.616C519.759 287.808 520.279 288.136 520.711 288.6C521.143 289.064 521.359 289.704 521.359 290.52C521.359 291.624 520.895 292.504 519.967 293.16C519.055 293.8 517.783 294.12 516.151 294.12Z" fill="white"/>
<defs>
<filter id="filter0_d" x="400" y="93" width="151" height="172.897" filterUnits="userSpaceOnUse" color-interpolation-filters="sRGB">
<feFlood flood-opacity="0" result="BackgroundImageFix"/>
<feColorMatrix in="SourceAlpha" type="matrix" values="0 0 0 0 0 0 0 0 0 0 0 0 0 0 0 0 0 0 127 0"/>
<feOffset dx="2" dy="4"/>
<feGaussianBlur stdDeviation="3"/>
<feColorMatrix type="matrix" values="0 0 0 0 0 0 0 0 0 0 0 0 0 0 0 0 0 0 0.25 0"/>
<feBlend mode="normal" in2="BackgroundImageFix" result="effect1_dropShadow"/>
<feBlend mode="normal" in="SourceGraphic" in2="effect1_dropShadow" result="shape"/>
</filter>
<filter id="filter1_d" x="222" y="35" width="112" height="92" filterUnits="userSpaceOnUse" color-interpolation-filters="sRGB">
<feFlood flood-opacity="0" result="BackgroundImageFix"/>
<feColorMatrix in="SourceAlpha" type="matrix" values="0 0 0 0 0 0 0 0 0 0 0 0 0 0 0 0 0 0 127 0"/>
<feOffset dx="2" dy="4"/>
<feGaussianBlur stdDeviation="3"/>
<feColorMatrix type="matrix" values="0 0 0 0 0 0 0 0 0 0 0 0 0 0 0 0 0 0 0.25 0"/>
<feBlend mode="normal" in2="BackgroundImageFix" result="effect1_dropShadow"/>
<feBlend mode="normal" in="SourceGraphic" in2="effect1_dropShadow" result="shape"/>
</filter>
<filter id="filter2_d" x="60" y="183" width="119" height="65" filterUnits="userSpaceOnUse" color-interpolation-filters="sRGB">
<feFlood flood-opacity="0" result="BackgroundImageFix"/>
<feColorMatrix in="SourceAlpha" type="matrix" values="0 0 0 0 0 0 0 0 0 0 0 0 0 0 0 0 0 0 127 0"/>
<feOffset dx="2" dy="4"/>
<feGaussianBlur stdDeviation="3"/>
<feColorMatrix type="matrix" values="0 0 0 0 0 0 0 0 0 0 0 0 0 0 0 0 0 0 0.25 0"/>
<feBlend mode="normal" in2="BackgroundImageFix" result="effect1_dropShadow"/>
<feBlend mode="normal" in="SourceGraphic" in2="effect1_dropShadow" result="shape"/>
</filter>
<filter id="filter3_d" x="611" y="86" width="167" height="85" filterUnits="userSpaceOnUse" color-interpolation-filters="sRGB">
<feFlood flood-opacity="0" result="BackgroundImageFix"/>
<feColorMatrix in="SourceAlpha" type="matrix" values="0 0 0 0 0 0 0 0 0 0 0 0 0 0 0 0 0 0 127 0"/>
<feOffset dx="2" dy="4"/>
<feGaussianBlur stdDeviation="3"/>
<feColorMatrix type="matrix" values="0 0 0 0 0 0 0 0 0 0 0 0 0 0 0 0 0 0 0.25 0"/>
<feBlend mode="normal" in2="BackgroundImageFix" result="effect1_dropShadow"/>
<feBlend mode="normal" in="SourceGraphic" in2="effect1_dropShadow" result="shape"/>
</filter>
<linearGradient id="paint0_linear" x1="467" y1="0" x2="467" y2="322" gradientUnits="userSpaceOnUse">
<stop stop-color="white"/>
<stop offset="1" stop-color="white" stop-opacity="0"/>
</linearGradient>
</defs>
</svg>
