<svg width="200" height="200" viewBox="0 0 200 200" fill="none" xmlns="http://www.w3.org/2000/svg">
<circle cx="100" cy="100" r="100" fill="#FD983A"/>
<rect x="35.5" y="43.1" width="125" height="73.5902" rx="8.5" fill="black" stroke="white" stroke-width="3"/>
<mask id="path-3-inside-1" fill="white">
<path fill-rule="evenodd" clip-rule="evenodd" d="M107.143 118.19H90.7819V135.599C78.5741 137.62 69.609 144.326 69.609 152.289C69.609 161.849 82.5356 169.6 98.4812 169.6C114.427 169.6 127.353 161.849 127.353 152.289C127.353 144.537 118.857 137.976 107.143 135.77V118.19Z"/>
</mask>
<path fill-rule="evenodd" clip-rule="evenodd" d="M107.143 118.19H90.7819V135.599C78.5741 137.62 69.609 144.326 69.609 152.289C69.609 161.849 82.5356 169.6 98.4812 169.6C114.427 169.6 127.353 161.849 127.353 152.289C127.353 144.537 118.857 137.976 107.143 135.77V118.19Z" fill="black"/>
<path d="M90.7819 118.19V115.19H87.7819V118.19H90.7819ZM107.143 118.19H110.143V115.19H107.143V118.19ZM90.7819 135.599L91.2717 138.559L93.7819 138.144V135.599H90.7819ZM107.143 135.77H104.143V138.257L106.588 138.718L107.143 135.77ZM90.7819 121.19H107.143V115.19H90.7819V121.19ZM93.7819 135.599V118.19H87.7819V135.599H93.7819ZM72.609 152.289C72.609 149.522 74.1593 146.646 77.4572 144.086C80.748 141.531 85.5453 139.507 91.2717 138.559L90.2921 132.64C83.8107 133.712 78.0215 136.052 73.7779 139.346C69.5413 142.635 66.609 147.092 66.609 152.289H72.609ZM98.4812 166.6C90.9583 166.6 84.2928 164.766 79.6082 161.957C74.8636 159.112 72.609 155.6 72.609 152.289H66.609C66.609 158.538 70.8177 163.682 76.5228 167.103C82.2879 170.559 90.0585 172.6 98.4812 172.6V166.6ZM124.353 152.289C124.353 155.6 122.099 159.112 117.354 161.957C112.67 164.766 106.004 166.6 98.4812 166.6V172.6C106.904 172.6 114.675 170.559 120.44 167.103C126.145 163.682 130.353 158.538 130.353 152.289H124.353ZM106.588 138.718C112.075 139.751 116.639 141.778 119.761 144.288C122.885 146.799 124.353 149.594 124.353 152.289H130.353C130.353 147.232 127.573 142.87 123.521 139.611C119.465 136.351 113.924 133.994 107.698 132.821L106.588 138.718ZM104.143 118.19V135.77H110.143V118.19H104.143Z" fill="white" mask="url(#path-3-inside-1)"/>
<rect width="6.84928" height="41.3686" transform="matrix(0.891429 0.45316 -0.393274 0.919421 104.851 59.2108)" fill="white"/>
<path d="M83.0827 64.6819L63.8346 75.7585L78.2707 94.059" stroke="white" stroke-width="5"/>
<path d="M83.0827 64.6819L63.8346 75.7585L78.2707 94.059" stroke="white" stroke-width="5"/>
<path d="M116.767 95.1082L136.015 84.0316L121.579 65.7312" stroke="white" stroke-width="5"/>
</svg>
