<svg width="228" height="58" viewBox="0 0 228 58" fill="none" xmlns="http://www.w3.org/2000/svg">
<g filter="url(#filter0_d)">
<rect x="4" width="220" height="50" rx="10" fill="#B0F3D7"/>
</g>
<g style="mix-blend-mode:darken">
<path d="M62.9549 19.8L58.0429 31H56.4589L51.5309 19.8H53.2589L57.2909 29L61.3549 19.8H62.9549ZM64.3831 19.8H65.9831V31H64.3831V19.8ZM77.4643 29.608V31H69.3363V19.8H77.2403V21.192H70.9363V24.632H76.5523V25.992H70.9363V29.608H77.4643ZM95.7228 19.8L91.9788 31H90.2988L87.2428 22.056L84.1868 31H82.4748L78.7308 19.8H80.3788L83.4028 28.904L86.5548 19.8H88.0268L91.1148 28.952L94.2028 19.8H95.7228ZM106.579 19.8C108.03 19.8 109.171 20.1467 110.003 20.84C110.835 21.5333 111.251 22.488 111.251 23.704C111.251 24.92 110.835 25.8747 110.003 26.568C109.171 27.2613 108.03 27.608 106.579 27.608H103.811V31H102.211V19.8H106.579ZM106.531 26.216C107.545 26.216 108.318 26.0027 108.851 25.576C109.385 25.1387 109.651 24.5147 109.651 23.704C109.651 22.8933 109.385 22.2747 108.851 21.848C108.318 21.4107 107.545 21.192 106.531 21.192H103.811V26.216H106.531ZM121.09 31L118.674 27.56C118.375 27.5813 118.141 27.592 117.97 27.592H115.202V31H113.602V19.8H117.97C119.421 19.8 120.562 20.1467 121.394 20.84C122.226 21.5333 122.642 22.488 122.642 23.704C122.642 24.568 122.429 25.304 122.002 25.912C121.575 26.52 120.967 26.9627 120.178 27.24L122.834 31H121.09ZM117.922 26.232C118.935 26.232 119.709 26.0133 120.242 25.576C120.775 25.1387 121.042 24.5147 121.042 23.704C121.042 22.8933 120.775 22.2747 120.242 21.848C119.709 21.4107 118.935 21.192 117.922 21.192H115.202V26.232H117.922ZM130.283 31.128C129.152 31.128 128.134 30.8827 127.227 30.392C126.32 29.8907 125.606 29.2027 125.083 28.328C124.571 27.4533 124.315 26.4773 124.315 25.4C124.315 24.3227 124.571 23.3467 125.083 22.472C125.606 21.5973 126.32 20.9147 127.227 20.424C128.134 19.9227 129.152 19.672 130.283 19.672C131.403 19.672 132.416 19.9227 133.323 20.424C134.23 20.9147 134.939 21.5973 135.451 22.472C135.963 23.336 136.219 24.312 136.219 25.4C136.219 26.488 135.963 27.4693 135.451 28.344C134.939 29.208 134.23 29.8907 133.323 30.392C132.416 30.8827 131.403 31.128 130.283 31.128ZM130.283 29.704C131.104 29.704 131.84 29.5173 132.491 29.144C133.152 28.7707 133.67 28.2587 134.043 27.608C134.427 26.9467 134.619 26.2107 134.619 25.4C134.619 24.5893 134.427 23.8587 134.043 23.208C133.67 22.5467 133.152 22.0293 132.491 21.656C131.84 21.2827 131.104 21.096 130.283 21.096C129.462 21.096 128.715 21.2827 128.043 21.656C127.382 22.0293 126.859 22.5467 126.475 23.208C126.102 23.8587 125.915 24.5893 125.915 25.4C125.915 26.2107 126.102 26.9467 126.475 27.608C126.859 28.2587 127.382 28.7707 128.043 29.144C128.715 29.5173 129.462 29.704 130.283 29.704ZM139.87 31.128C139.198 31.128 138.574 30.9893 137.998 30.712C137.422 30.424 136.958 30.024 136.606 29.512L137.534 28.424C138.153 29.3093 138.931 29.752 139.87 29.752C140.499 29.752 140.974 29.56 141.294 29.176C141.625 28.792 141.79 28.2267 141.79 27.48V21.192H137.742V19.8H143.374V27.4C143.374 28.6373 143.075 29.5707 142.478 30.2C141.891 30.8187 141.022 31.128 139.87 31.128ZM154.761 29.608V31H146.633V19.8H154.537V21.192H148.233V24.632H153.849V25.992H148.233V29.608H154.761ZM162.313 31.128C161.193 31.128 160.18 30.8827 159.273 30.392C158.377 29.8907 157.673 29.208 157.161 28.344C156.649 27.4693 156.393 26.488 156.393 25.4C156.393 24.312 156.649 23.336 157.161 22.472C157.673 21.5973 158.382 20.9147 159.289 20.424C160.196 19.9227 161.209 19.672 162.329 19.672C163.204 19.672 164.004 19.8213 164.729 20.12C165.454 20.408 166.073 20.84 166.585 21.416L165.545 22.424C164.702 21.5387 163.652 21.096 162.393 21.096C161.561 21.096 160.809 21.2827 160.137 21.656C159.465 22.0293 158.937 22.5467 158.553 23.208C158.18 23.8587 157.993 24.5893 157.993 25.4C157.993 26.2107 158.18 26.9467 158.553 27.608C158.937 28.2587 159.465 28.7707 160.137 29.144C160.809 29.5173 161.561 29.704 162.393 29.704C163.641 29.704 164.692 29.256 165.545 28.36L166.585 29.368C166.073 29.944 165.449 30.3813 164.713 30.68C163.988 30.9787 163.188 31.128 162.313 31.128ZM170.967 21.192H167.127V19.8H176.391V21.192H172.551V31H170.967V21.192Z" fill="#3AA376"/>
</g>
<defs>
<filter id="filter0_d" x="0" y="0" width="228" height="58" filterUnits="userSpaceOnUse" color-interpolation-filters="sRGB">
<feFlood flood-opacity="0" result="BackgroundImageFix"/>
<feColorMatrix in="SourceAlpha" type="matrix" values="0 0 0 0 0 0 0 0 0 0 0 0 0 0 0 0 0 0 127 0"/>
<feOffset dy="4"/>
<feGaussianBlur stdDeviation="2"/>
<feColorMatrix type="matrix" values="0 0 0 0 0 0 0 0 0 0 0 0 0 0 0 0 0 0 0.25 0"/>
<feBlend mode="normal" in2="BackgroundImageFix" result="effect1_dropShadow"/>
<feBlend mode="normal" in="SourceGraphic" in2="effect1_dropShadow" result="shape"/>
</filter>
</defs>
</svg>
