<svg width="934" height="322" viewBox="0 0 934 322" fill="none" xmlns="http://www.w3.org/2000/svg">
<rect width="934" height="322" fill="#B4DAE7"/>
<rect width="934" height="322" fill="url(#paint0_linear)" fill-opacity="0.6"/>
<g filter="url(#filter0_d)">
<path d="M473.5 104.897L543 255.897H404L473.5 104.897Z" fill="#6CC8A1"/>
<path d="M451.842 197.638L444.396 167.273L474.633 98.1243L496.462 151.501L507.153 177.645L484.146 199.078L469.748 175.977L451.842 197.638Z" fill="white" stroke="white"/>
<mask id="path-4-inside-1" fill="white">
<path fill-rule="evenodd" clip-rule="evenodd" d="M444.078 208.897L429.191 160.897L414.303 208.897H425V227.157H432.934V208.897H444.078Z"/>
</mask>
<path fill-rule="evenodd" clip-rule="evenodd" d="M444.078 208.897L429.191 160.897L414.303 208.897H425V227.157H432.934V208.897H444.078Z" fill="#F8EE94"/>
<path d="M429.191 160.897L431.101 160.304L429.191 154.145L427.28 160.304L429.191 160.897ZM444.078 208.897V210.897H446.792L445.988 208.304L444.078 208.897ZM414.303 208.897L412.393 208.304L411.589 210.897H414.303V208.897ZM425 208.897H427V206.897H425V208.897ZM425 227.157H423V229.157H425V227.157ZM432.934 227.157V229.157H434.934V227.157H432.934ZM432.934 208.897V206.897H430.934V208.897H432.934ZM427.28 161.489L442.168 209.489L445.988 208.304L431.101 160.304L427.28 161.489ZM416.213 209.489L431.101 161.489L427.28 160.304L412.393 208.304L416.213 209.489ZM425 206.897H414.303V210.897H425V206.897ZM427 227.157V208.897H423V227.157H427ZM432.934 225.157H425V229.157H432.934V225.157ZM430.934 208.897V227.157H434.934V208.897H430.934ZM444.078 206.897H432.934V210.897H444.078V206.897Z" fill="white" mask="url(#path-4-inside-1)"/>
<mask id="path-6-inside-2" fill="white">
<path fill-rule="evenodd" clip-rule="evenodd" d="M542.775 228.147L527.887 204.897L513 228.147H524V239.897H532V228.147H542.775Z"/>
</mask>
<path fill-rule="evenodd" clip-rule="evenodd" d="M542.775 228.147L527.887 204.897L513 228.147H524V239.897H532V228.147H542.775Z" fill="#A74AF0"/>
<path d="M527.887 204.897L529.572 203.818L527.887 201.188L526.203 203.818L527.887 204.897ZM542.775 228.147V230.147H546.431L544.459 227.068L542.775 228.147ZM513 228.147L511.316 227.068L509.344 230.147H513V228.147ZM524 228.147H526V226.147H524V228.147ZM524 239.897H522V241.897H524V239.897ZM532 239.897V241.897H534V239.897H532ZM532 228.147V226.147H530V228.147H532ZM526.203 205.975L541.091 229.225L544.459 227.068L529.572 203.818L526.203 205.975ZM514.684 229.225L529.572 205.975L526.203 203.818L511.316 227.068L514.684 229.225ZM524 226.147H513V230.147H524V226.147ZM526 239.897V228.147H522V239.897H526ZM532 237.897H524V241.897H532V237.897ZM530 228.147V239.897H534V228.147H530ZM542.775 226.147H532V230.147H542.775V226.147Z" fill="white" mask="url(#path-6-inside-2)"/>
</g>
<g filter="url(#filter1_d)">
<ellipse cx="276" cy="77" rx="50" ry="40" fill="#F8EE94"/>
</g>
<g filter="url(#filter2_d)">
<path fill-rule="evenodd" clip-rule="evenodd" d="M155.341 238H79.6585C71.0106 238 64 232.305 64 225.28C64 218.255 71.0106 212.56 79.6585 212.56H80.3163C79.8869 211.205 79.6585 209.784 79.6585 208.32C79.6585 198.953 89.006 191.36 100.537 191.36C104.823 191.36 108.808 192.409 112.123 194.209C116.307 188.667 123.581 185 131.854 185C144.826 185 155.341 194.017 155.341 205.14C155.341 207.76 154.758 210.264 153.696 212.56H155.341C163.989 212.56 171 218.255 171 225.28C171 232.305 163.989 238 155.341 238Z" fill="white"/>
</g>
<g filter="url(#filter3_d)">
<path fill-rule="evenodd" clip-rule="evenodd" d="M615 124.5C615 144.658 636.49 161 663 161H727C750.748 161 770 149.136 770 134.5C770 119.864 750.748 108 727 108C719.995 108 713.382 109.032 707.538 110.863C700.434 97.4599 683.17 88 663 88C636.49 88 615 104.342 615 124.5Z" fill="white"/>
</g>
<path d="M389.291 280.6C391.256 280.6 392.796 281.069 393.911 282.008C395.025 282.947 395.583 284.237 395.583 285.88C395.583 287.523 395.025 288.813 393.911 289.752C392.796 290.676 391.256 291.138 389.291 291.138H385.155V296H383.527V280.6H389.291ZM389.247 289.708C390.772 289.708 391.938 289.378 392.745 288.718C393.551 288.043 393.955 287.097 393.955 285.88C393.955 284.633 393.551 283.68 392.745 283.02C391.938 282.345 390.772 282.008 389.247 282.008H385.155V289.708H389.247ZM402.713 284.34C404.224 284.34 405.383 284.721 406.189 285.484C406.996 286.232 407.399 287.347 407.399 288.828V296H405.903V294.196C405.551 294.797 405.031 295.267 404.341 295.604C403.667 295.941 402.86 296.11 401.921 296.11C400.631 296.11 399.604 295.802 398.841 295.186C398.079 294.57 397.697 293.756 397.697 292.744C397.697 291.761 398.049 290.969 398.753 290.368C399.472 289.767 400.609 289.466 402.163 289.466H405.837V288.762C405.837 287.765 405.559 287.009 405.001 286.496C404.444 285.968 403.63 285.704 402.559 285.704C401.826 285.704 401.122 285.829 400.447 286.078C399.773 286.313 399.193 286.643 398.709 287.068L398.005 285.902C398.592 285.403 399.296 285.022 400.117 284.758C400.939 284.479 401.804 284.34 402.713 284.34ZM402.163 294.878C403.043 294.878 403.799 294.68 404.429 294.284C405.06 293.873 405.529 293.287 405.837 292.524V290.632H402.207C400.227 290.632 399.237 291.321 399.237 292.7C399.237 293.375 399.494 293.91 400.007 294.306C400.521 294.687 401.239 294.878 402.163 294.878ZM422.399 284.428V294.592C422.399 296.557 421.915 298.009 420.947 298.948C419.994 299.901 418.549 300.378 416.613 300.378C415.542 300.378 414.523 300.217 413.555 299.894C412.602 299.586 411.824 299.153 411.223 298.596L412.015 297.408C412.572 297.907 413.247 298.295 414.039 298.574C414.846 298.853 415.689 298.992 416.569 298.992C418.036 298.992 419.114 298.647 419.803 297.958C420.492 297.283 420.837 296.227 420.837 294.79V293.316C420.353 294.049 419.715 294.607 418.923 294.988C418.146 295.369 417.28 295.56 416.327 295.56C415.242 295.56 414.252 295.325 413.357 294.856C412.477 294.372 411.78 293.705 411.267 292.854C410.768 291.989 410.519 291.013 410.519 289.928C410.519 288.843 410.768 287.875 411.267 287.024C411.78 286.173 412.477 285.513 413.357 285.044C414.237 284.575 415.227 284.34 416.327 284.34C417.31 284.34 418.197 284.538 418.989 284.934C419.781 285.33 420.419 285.902 420.903 286.65V284.428H422.399ZM416.481 294.174C417.317 294.174 418.072 293.998 418.747 293.646C419.422 293.279 419.942 292.773 420.309 292.128C420.69 291.483 420.881 290.749 420.881 289.928C420.881 289.107 420.69 288.381 420.309 287.75C419.942 287.105 419.422 286.606 418.747 286.254C418.087 285.887 417.332 285.704 416.481 285.704C415.645 285.704 414.89 285.88 414.215 286.232C413.555 286.584 413.034 287.083 412.653 287.728C412.286 288.373 412.103 289.107 412.103 289.928C412.103 290.749 412.286 291.483 412.653 292.128C413.034 292.773 413.555 293.279 414.215 293.646C414.89 293.998 415.645 294.174 416.481 294.174ZM436.843 290.698H427.163C427.251 291.901 427.713 292.876 428.549 293.624C429.385 294.357 430.441 294.724 431.717 294.724C432.436 294.724 433.096 294.599 433.697 294.35C434.298 294.086 434.819 293.705 435.259 293.206L436.139 294.218C435.626 294.834 434.98 295.303 434.203 295.626C433.44 295.949 432.597 296.11 431.673 296.11C430.485 296.11 429.429 295.861 428.505 295.362C427.596 294.849 426.884 294.145 426.371 293.25C425.858 292.355 425.601 291.343 425.601 290.214C425.601 289.085 425.843 288.073 426.327 287.178C426.826 286.283 427.5 285.587 428.351 285.088C429.216 284.589 430.184 284.34 431.255 284.34C432.326 284.34 433.286 284.589 434.137 285.088C434.988 285.587 435.655 286.283 436.139 287.178C436.623 288.058 436.865 289.07 436.865 290.214L436.843 290.698ZM431.255 285.682C430.14 285.682 429.202 286.041 428.439 286.76C427.691 287.464 427.266 288.388 427.163 289.532H435.369C435.266 288.388 434.834 287.464 434.071 286.76C433.323 286.041 432.384 285.682 431.255 285.682ZM459.002 280.6V296H457.66L447.76 283.504V296H446.132V280.6H447.474L457.396 293.096V280.6H459.002ZM468.429 296.11C467.314 296.11 466.309 295.861 465.415 295.362C464.52 294.849 463.816 294.145 463.303 293.25C462.789 292.355 462.533 291.343 462.533 290.214C462.533 289.085 462.789 288.073 463.303 287.178C463.816 286.283 464.52 285.587 465.415 285.088C466.309 284.589 467.314 284.34 468.429 284.34C469.543 284.34 470.548 284.589 471.443 285.088C472.337 285.587 473.034 286.283 473.533 287.178C474.046 288.073 474.303 289.085 474.303 290.214C474.303 291.343 474.046 292.355 473.533 293.25C473.034 294.145 472.337 294.849 471.443 295.362C470.548 295.861 469.543 296.11 468.429 296.11ZM468.429 294.724C469.25 294.724 469.983 294.541 470.629 294.174C471.289 293.793 471.802 293.257 472.169 292.568C472.535 291.879 472.719 291.094 472.719 290.214C472.719 289.334 472.535 288.549 472.169 287.86C471.802 287.171 471.289 286.643 470.629 286.276C469.983 285.895 469.25 285.704 468.429 285.704C467.607 285.704 466.867 285.895 466.207 286.276C465.561 286.643 465.048 287.171 464.667 287.86C464.3 288.549 464.117 289.334 464.117 290.214C464.117 291.094 464.3 291.879 464.667 292.568C465.048 293.257 465.561 293.793 466.207 294.174C466.867 294.541 467.607 294.724 468.429 294.724ZM483.585 295.296C483.292 295.56 482.925 295.765 482.485 295.912C482.06 296.044 481.613 296.11 481.143 296.11C480.058 296.11 479.222 295.817 478.635 295.23C478.049 294.643 477.755 293.815 477.755 292.744V285.748H475.687V284.428H477.755V281.898H479.317V284.428H482.837V285.748H479.317V292.656C479.317 293.345 479.486 293.873 479.823 294.24C480.175 294.592 480.674 294.768 481.319 294.768C481.642 294.768 481.95 294.717 482.243 294.614C482.551 294.511 482.815 294.365 483.035 294.174L483.585 295.296ZM494.145 282.008V288.058H502.109V289.466H494.145V296H492.517V280.6H503.077V282.008H494.145ZM510.452 296.11C509.337 296.11 508.333 295.861 507.438 295.362C506.543 294.849 505.839 294.145 505.326 293.25C504.813 292.355 504.556 291.343 504.556 290.214C504.556 289.085 504.813 288.073 505.326 287.178C505.839 286.283 506.543 285.587 507.438 285.088C508.333 284.589 509.337 284.34 510.452 284.34C511.567 284.34 512.571 284.589 513.466 285.088C514.361 285.587 515.057 286.283 515.556 287.178C516.069 288.073 516.326 289.085 516.326 290.214C516.326 291.343 516.069 292.355 515.556 293.25C515.057 294.145 514.361 294.849 513.466 295.362C512.571 295.861 511.567 296.11 510.452 296.11ZM510.452 294.724C511.273 294.724 512.007 294.541 512.652 294.174C513.312 293.793 513.825 293.257 514.192 292.568C514.559 291.879 514.742 291.094 514.742 290.214C514.742 289.334 514.559 288.549 514.192 287.86C513.825 287.171 513.312 286.643 512.652 286.276C512.007 285.895 511.273 285.704 510.452 285.704C509.631 285.704 508.89 285.895 508.23 286.276C507.585 286.643 507.071 287.171 506.69 287.86C506.323 288.549 506.14 289.334 506.14 290.214C506.14 291.094 506.323 291.879 506.69 292.568C507.071 293.257 507.585 293.793 508.23 294.174C508.89 294.541 509.631 294.724 510.452 294.724ZM529.943 284.428V296H528.447V293.888C528.036 294.592 527.472 295.142 526.753 295.538C526.034 295.919 525.213 296.11 524.289 296.11C522.778 296.11 521.583 295.692 520.703 294.856C519.838 294.005 519.405 292.766 519.405 291.138V284.428H520.967V290.984C520.967 292.201 521.268 293.125 521.869 293.756C522.47 294.387 523.328 294.702 524.443 294.702C525.66 294.702 526.621 294.335 527.325 293.602C528.029 292.854 528.381 291.82 528.381 290.5V284.428H529.943ZM540.214 284.34C541.666 284.34 542.817 284.765 543.668 285.616C544.533 286.452 544.966 287.677 544.966 289.29V296H543.404V289.444C543.404 288.241 543.103 287.325 542.502 286.694C541.9 286.063 541.042 285.748 539.928 285.748C538.681 285.748 537.691 286.122 536.958 286.87C536.239 287.603 535.88 288.623 535.88 289.928V296H534.318V284.428H535.814V286.562C536.239 285.858 536.826 285.315 537.574 284.934C538.336 284.538 539.216 284.34 540.214 284.34ZM559.809 279.676V296H558.313V293.712C557.844 294.489 557.221 295.083 556.443 295.494C555.681 295.905 554.815 296.11 553.847 296.11C552.762 296.11 551.779 295.861 550.899 295.362C550.019 294.863 549.33 294.167 548.831 293.272C548.333 292.377 548.083 291.358 548.083 290.214C548.083 289.07 548.333 288.051 548.831 287.156C549.33 286.261 550.019 285.572 550.899 285.088C551.779 284.589 552.762 284.34 553.847 284.34C554.786 284.34 555.629 284.538 556.377 284.934C557.14 285.315 557.763 285.88 558.247 286.628V279.676H559.809ZM553.979 294.724C554.786 294.724 555.512 294.541 556.157 294.174C556.817 293.793 557.331 293.257 557.697 292.568C558.079 291.879 558.269 291.094 558.269 290.214C558.269 289.334 558.079 288.549 557.697 287.86C557.331 287.171 556.817 286.643 556.157 286.276C555.512 285.895 554.786 285.704 553.979 285.704C553.158 285.704 552.417 285.895 551.757 286.276C551.112 286.643 550.599 287.171 550.217 287.86C549.851 288.549 549.667 289.334 549.667 290.214C549.667 291.094 549.851 291.879 550.217 292.568C550.599 293.257 551.112 293.793 551.757 294.174C552.417 294.541 553.158 294.724 553.979 294.724Z" fill="white"/>
<defs>
<filter id="filter0_d" x="400" y="91.6612" width="151" height="174.235" filterUnits="userSpaceOnUse" color-interpolation-filters="sRGB">
<feFlood flood-opacity="0" result="BackgroundImageFix"/>
<feColorMatrix in="SourceAlpha" type="matrix" values="0 0 0 0 0 0 0 0 0 0 0 0 0 0 0 0 0 0 127 0"/>
<feOffset dx="2" dy="4"/>
<feGaussianBlur stdDeviation="3"/>
<feColorMatrix type="matrix" values="0 0 0 0 0 0 0 0 0 0 0 0 0 0 0 0 0 0 0.25 0"/>
<feBlend mode="normal" in2="BackgroundImageFix" result="effect1_dropShadow"/>
<feBlend mode="normal" in="SourceGraphic" in2="effect1_dropShadow" result="shape"/>
</filter>
<filter id="filter1_d" x="222" y="35" width="112" height="92" filterUnits="userSpaceOnUse" color-interpolation-filters="sRGB">
<feFlood flood-opacity="0" result="BackgroundImageFix"/>
<feColorMatrix in="SourceAlpha" type="matrix" values="0 0 0 0 0 0 0 0 0 0 0 0 0 0 0 0 0 0 127 0"/>
<feOffset dx="2" dy="4"/>
<feGaussianBlur stdDeviation="3"/>
<feColorMatrix type="matrix" values="0 0 0 0 0 0 0 0 0 0 0 0 0 0 0 0 0 0 0.25 0"/>
<feBlend mode="normal" in2="BackgroundImageFix" result="effect1_dropShadow"/>
<feBlend mode="normal" in="SourceGraphic" in2="effect1_dropShadow" result="shape"/>
</filter>
<filter id="filter2_d" x="60" y="183" width="119" height="65" filterUnits="userSpaceOnUse" color-interpolation-filters="sRGB">
<feFlood flood-opacity="0" result="BackgroundImageFix"/>
<feColorMatrix in="SourceAlpha" type="matrix" values="0 0 0 0 0 0 0 0 0 0 0 0 0 0 0 0 0 0 127 0"/>
<feOffset dx="2" dy="4"/>
<feGaussianBlur stdDeviation="3"/>
<feColorMatrix type="matrix" values="0 0 0 0 0 0 0 0 0 0 0 0 0 0 0 0 0 0 0.25 0"/>
<feBlend mode="normal" in2="BackgroundImageFix" result="effect1_dropShadow"/>
<feBlend mode="normal" in="SourceGraphic" in2="effect1_dropShadow" result="shape"/>
</filter>
<filter id="filter3_d" x="611" y="86" width="167" height="85" filterUnits="userSpaceOnUse" color-interpolation-filters="sRGB">
<feFlood flood-opacity="0" result="BackgroundImageFix"/>
<feColorMatrix in="SourceAlpha" type="matrix" values="0 0 0 0 0 0 0 0 0 0 0 0 0 0 0 0 0 0 127 0"/>
<feOffset dx="2" dy="4"/>
<feGaussianBlur stdDeviation="3"/>
<feColorMatrix type="matrix" values="0 0 0 0 0 0 0 0 0 0 0 0 0 0 0 0 0 0 0.25 0"/>
<feBlend mode="normal" in2="BackgroundImageFix" result="effect1_dropShadow"/>
<feBlend mode="normal" in="SourceGraphic" in2="effect1_dropShadow" result="shape"/>
</filter>
<linearGradient id="paint0_linear" x1="467" y1="0" x2="467" y2="322" gradientUnits="userSpaceOnUse">
<stop stop-color="white"/>
<stop offset="1" stop-color="white" stop-opacity="0"/>
</linearGradient>
</defs>
</svg>
