<svg width="243" height="52" viewBox="0 0 243 52" fill="none" xmlns="http://www.w3.org/2000/svg">
<rect width="243" height="52" rx="8" fill="#6CC8A1"/>
<path d="M65.0401 19.4L59.5141 32H57.7321L52.1881 19.4H54.1321L58.6681 29.75L63.2401 19.4H65.0401ZM66.6468 19.4H68.4468V32H66.6468V19.4ZM81.3631 30.434V32H72.2191V19.4H81.1111V20.966H74.0191V24.836H80.3371V26.366H74.0191V30.434H81.3631ZM101.904 19.4L97.6919 32H95.8019L92.3639 21.938L88.9259 32H86.9999L82.7879 19.4H84.6419L88.0439 29.642L91.5899 19.4H93.2459L96.7199 29.696L100.194 19.4H101.904ZM120.885 32L120.867 22.82L116.313 30.47H115.485L110.931 22.874V32H109.203V19.4H110.679L115.935 28.256L121.119 19.4H122.595L122.613 32H120.885ZM131.219 27.644V32H129.437V27.608L124.433 19.4H126.359L130.391 26.042L134.441 19.4H136.223L131.219 27.644ZM151.307 32L148.589 28.13C148.253 28.154 147.989 28.166 147.797 28.166H144.683V32H142.883V19.4H147.797C149.429 19.4 150.713 19.79 151.649 20.57C152.585 21.35 153.053 22.424 153.053 23.792C153.053 24.764 152.813 25.592 152.333 26.276C151.853 26.96 151.169 27.458 150.281 27.77L153.269 32H151.307ZM147.743 26.636C148.883 26.636 149.753 26.39 150.353 25.898C150.953 25.406 151.253 24.704 151.253 23.792C151.253 22.88 150.953 22.184 150.353 21.704C149.753 21.212 148.883 20.966 147.743 20.966H144.683V26.636H147.743ZM165.105 30.434V32H155.961V19.4H164.853V20.966H157.761V24.836H164.079V26.366H157.761V30.434H165.105ZM171.692 32.144C170.744 32.144 169.826 32 168.938 31.712C168.062 31.412 167.372 31.028 166.868 30.56L167.534 29.156C168.014 29.588 168.626 29.942 169.37 30.218C170.126 30.482 170.9 30.614 171.692 30.614C172.736 30.614 173.516 30.44 174.032 30.092C174.548 29.732 174.806 29.258 174.806 28.67C174.806 28.238 174.662 27.89 174.374 27.626C174.098 27.35 173.75 27.14 173.33 26.996C172.922 26.852 172.34 26.69 171.584 26.51C170.636 26.282 169.868 26.054 169.28 25.826C168.704 25.598 168.206 25.25 167.786 24.782C167.378 24.302 167.174 23.66 167.174 22.856C167.174 22.184 167.348 21.578 167.696 21.038C168.056 20.498 168.596 20.066 169.316 19.742C170.036 19.418 170.93 19.256 171.998 19.256C172.742 19.256 173.474 19.352 174.194 19.544C174.914 19.736 175.532 20.012 176.048 20.372L175.454 21.812C174.926 21.476 174.362 21.224 173.762 21.056C173.162 20.876 172.574 20.786 171.998 20.786C170.978 20.786 170.21 20.972 169.694 21.344C169.19 21.716 168.938 22.196 168.938 22.784C168.938 23.216 169.082 23.57 169.37 23.846C169.658 24.11 170.012 24.32 170.432 24.476C170.864 24.62 171.446 24.776 172.178 24.944C173.126 25.172 173.888 25.4 174.464 25.628C175.04 25.856 175.532 26.204 175.94 26.672C176.36 27.14 176.57 27.77 176.57 28.562C176.57 29.222 176.39 29.828 176.03 30.38C175.67 30.92 175.124 31.352 174.392 31.676C173.66 31.988 172.76 32.144 171.692 32.144ZM184.42 32.144C182.74 32.144 181.432 31.664 180.496 30.704C179.56 29.744 179.092 28.364 179.092 26.564V19.4H180.892V26.492C180.892 29.192 182.074 30.542 184.438 30.542C185.59 30.542 186.472 30.212 187.084 29.552C187.696 28.88 188.002 27.86 188.002 26.492V19.4H189.748V26.564C189.748 28.376 189.28 29.762 188.344 30.722C187.408 31.67 186.1 32.144 184.42 32.144ZM205.12 32L205.102 22.82L200.548 30.47H199.72L195.166 22.874V32H193.438V19.4H194.914L200.17 28.256L205.354 19.4H206.83L206.848 32H205.12ZM219.773 30.434V32H210.629V19.4H219.521V20.966H212.429V24.836H218.747V26.366H212.429V30.434H219.773Z" fill="#3AA376"/>
<mask id="path-3-inside-1" fill="white">
<path fill-rule="evenodd" clip-rule="evenodd" d="M44.9617 15.6083L35.0275 5.83521H13V47.9999H44.9617V15.6083Z"/>
</mask>
<path fill-rule="evenodd" clip-rule="evenodd" d="M44.9617 15.6083L35.0275 5.83521H13V47.9999H44.9617V15.6083Z" fill="#6CC8A1"/>
<path d="M44.9617 15.6083H45.9617V15.1893L45.663 14.8955L44.9617 15.6083ZM35.0275 5.83521L35.7288 5.12235L35.437 4.83521H35.0275V5.83521ZM13 5.83521V4.83521H12V5.83521H13ZM13 47.9999H12V48.9999H13V47.9999ZM44.9617 47.9999V48.9999H45.9617V47.9999H44.9617ZM45.663 14.8955L35.7288 5.12235L34.3262 6.54806L44.2603 16.3212L45.663 14.8955ZM13 6.83521H35.0275V4.83521H13V6.83521ZM14 47.9999V5.83521H12V47.9999H14ZM44.9617 46.9999H13V48.9999H44.9617V46.9999ZM43.9617 15.6083V47.9999H45.9617V15.6083H43.9617Z" fill="white" mask="url(#path-3-inside-1)"/>
<path d="M33.427 16.5994L34.6104 6.4778L44.2527 16.5106L33.427 16.5994Z" fill="white"/>
<line x1="25.6667" y1="18.3923" x2="37" y2="18.3923" stroke="white"/>
<line x1="25.6667" y1="23.8077" x2="37" y2="23.8077" stroke="white"/>
<line x1="25.6667" y1="33.2847" x2="39" y2="33.2847" stroke="white"/>
<line x1="25.6667" y1="31.2539" x2="37" y2="31.2539" stroke="white"/>
<line x1="25.6667" y1="21.1" x2="39.6667" y2="21.1" stroke="white"/>
<line x1="25.6667" y1="27.8693" x2="39.6667" y2="27.8693" stroke="white"/>
<line x1="25.6667" y1="41.4077" x2="38.3333" y2="41.4077" stroke="white"/>
<line x1="25.6667" y1="38.0231" x2="39.6667" y2="38.0231" stroke="white"/>
<line x1="25.6667" y1="44.1154" x2="39.6667" y2="44.1154" stroke="white"/>
<ellipse cx="19.6667" cy="13.7124" rx="2.91667" ry="2.94314" fill="white"/>
<path d="M15 21.9108C15 19.3335 17.0893 17.2441 19.6667 17.2441V17.2441C22.244 17.2441 24.3333 19.3335 24.3333 21.9108V24.3077H15V21.9108Z" fill="white"/>
<mask id="path-17-inside-2" fill="white">
<path fill-rule="evenodd" clip-rule="evenodd" d="M15.6186 30.5278L19.1804 32.0044L22.4356 30.6461C22.3547 32.3571 20.9419 33.7195 19.2108 33.7195H18.8468C17.0761 33.7195 15.6383 32.2939 15.6186 30.5278Z"/>
</mask>
<path fill-rule="evenodd" clip-rule="evenodd" d="M15.6186 30.5278L19.1804 32.0044L22.4356 30.6461C22.3547 32.3571 20.9419 33.7195 19.2108 33.7195H18.8468C17.0761 33.7195 15.6383 32.2939 15.6186 30.5278Z" fill="#6CC8A1"/>
<path d="M15.6186 30.5278L16.0016 29.6041L14.6018 29.0238L14.6187 30.539L15.6186 30.5278ZM19.1804 32.0044L18.7974 32.9282L19.1817 33.0875L19.5655 32.9273L19.1804 32.0044ZM22.4356 30.6461L23.4345 30.6933L23.5091 29.1146L22.0505 29.7232L22.4356 30.6461ZM15.2357 31.4516L18.7974 32.9282L19.5634 31.0807L16.0016 29.6041L15.2357 31.4516ZM19.5655 32.9273L22.8207 31.569L22.0505 29.7232L18.7953 31.0816L19.5655 32.9273ZM21.4367 30.5989C21.3809 31.7791 20.4054 32.7195 19.2108 32.7195V34.7195C21.4784 34.7195 23.3285 32.9351 23.4345 30.6933L21.4367 30.5989ZM19.2108 32.7195H18.8468V34.7195H19.2108V32.7195ZM18.8468 32.7195C17.6246 32.7195 16.6322 31.7355 16.6186 30.5167L14.6187 30.539C14.6445 32.8523 16.5275 34.7195 18.8468 34.7195V32.7195Z" fill="white" mask="url(#path-17-inside-2)"/>
<mask id="path-19-inside-3" fill="white">
<path fill-rule="evenodd" clip-rule="evenodd" d="M23.8266 29.5198L18.6961 27L14 29.1278L19.3538 31.5916L23.1324 29.8413L22.8929 31.8524C22.7931 31.9391 22.7283 32.0784 22.7283 32.2356C22.7283 32.4985 22.9095 32.7116 23.1329 32.7116C23.3564 32.7116 23.5376 32.4985 23.5376 32.2356C23.5376 32.1059 23.4935 31.9883 23.422 31.9025V29.7072L23.8266 29.5198ZM23.1701 32.7116C22.852 32.7116 22.5839 32.9491 22.5455 33.2649L22.3815 34.6154H24L23.7922 33.2463C23.7455 32.9388 23.4811 32.7116 23.1701 32.7116Z"/>
</mask>
<path fill-rule="evenodd" clip-rule="evenodd" d="M23.8266 29.5198L18.6961 27L14 29.1278L19.3538 31.5916L23.1324 29.8413L22.8929 31.8524C22.7931 31.9391 22.7283 32.0784 22.7283 32.2356C22.7283 32.4985 22.9095 32.7116 23.1329 32.7116C23.3564 32.7116 23.5376 32.4985 23.5376 32.2356C23.5376 32.1059 23.4935 31.9883 23.422 31.9025V29.7072L23.8266 29.5198ZM23.1701 32.7116C22.852 32.7116 22.5839 32.9491 22.5455 33.2649L22.3815 34.6154H24L23.7922 33.2463C23.7455 32.9388 23.4811 32.7116 23.1701 32.7116Z" fill="#6CC8A1"/>
<path d="M18.6961 27L19.1369 26.1024L18.7133 25.8943L18.2834 26.0891L18.6961 27ZM23.8266 29.5198L24.2469 30.4272L26.1488 29.5462L24.2674 28.6222L23.8266 29.5198ZM14 29.1278L13.5873 28.217L11.5926 29.1208L13.5819 30.0363L14 29.1278ZM19.3538 31.5916L18.9358 32.5001L19.3552 32.6931L19.7741 32.499L19.3538 31.5916ZM23.1324 29.8413L24.1254 29.9596L24.3373 28.1812L22.7121 28.9339L23.1324 29.8413ZM22.8929 31.8524L23.5485 32.6075L23.8402 32.3543L23.8859 31.9707L22.8929 31.8524ZM23.422 31.9025H22.422V32.2644L22.6536 32.5425L23.422 31.9025ZM23.422 29.7072L23.0017 28.7998L22.422 29.0684V29.7072H23.422ZM22.5455 33.2649L23.5382 33.3854L23.5382 33.3854L22.5455 33.2649ZM22.3815 34.6154L21.3888 34.4948L21.2527 35.6154H22.3815V34.6154ZM24 34.6154V35.6154H25.1633L24.9887 34.4653L24 34.6154ZM23.7922 33.2463L24.7808 33.0962L24.7808 33.0962L23.7922 33.2463ZM18.2552 27.8976L23.3857 30.4174L24.2674 28.6222L19.1369 26.1024L18.2552 27.8976ZM14.4127 30.0387L19.1088 27.9109L18.2834 26.0891L13.5873 28.217L14.4127 30.0387ZM19.7719 30.6832L14.4181 28.2194L13.5819 30.0363L18.9358 32.5001L19.7719 30.6832ZM22.7121 28.9339L18.9335 30.6842L19.7741 32.499L23.5528 30.7487L22.7121 28.9339ZM23.8859 31.9707L24.1254 29.9596L22.1395 29.7231L21.8999 31.7341L23.8859 31.9707ZM23.7283 32.2356C23.7283 32.3468 23.6831 32.4907 23.5485 32.6075L22.2373 31.0973C21.9031 31.3874 21.7283 31.8101 21.7283 32.2356H23.7283ZM23.1329 31.7116C23.3552 31.7116 23.52 31.82 23.6087 31.9244C23.6957 32.0267 23.7283 32.1399 23.7283 32.2356H21.7283C21.7283 32.8923 22.2111 33.7116 23.1329 33.7116V31.7116ZM22.5376 32.2356C22.5376 32.1399 22.5702 32.0267 22.6572 31.9244C22.7459 31.82 22.9107 31.7116 23.1329 31.7116V33.7116C24.0548 33.7116 24.5376 32.8923 24.5376 32.2356H22.5376ZM22.6536 32.5425C22.5694 32.4414 22.5376 32.3301 22.5376 32.2356H24.5376C24.5376 31.8817 24.4176 31.5353 24.1903 31.2625L22.6536 32.5425ZM22.422 29.7072V31.9025H24.422V29.7072H22.422ZM23.4063 28.6124L23.0017 28.7998L23.8423 30.6146L24.2469 30.4272L23.4063 28.6124ZM23.5382 33.3854C23.5156 33.5716 23.3576 33.7116 23.1701 33.7116V31.7116C22.3463 31.7116 21.6521 32.3265 21.5528 33.1443L23.5382 33.3854ZM23.3742 34.736L23.5382 33.3854L21.5528 33.1443L21.3888 34.4948L23.3742 34.736ZM24 33.6154H22.3815V35.6154H24V33.6154ZM22.8035 33.3964L23.0113 34.7655L24.9887 34.4653L24.7808 33.0962L22.8035 33.3964ZM23.1701 33.7116C22.9868 33.7116 22.831 33.5776 22.8035 33.3964L24.7808 33.0962C24.66 32.3 23.9755 31.7116 23.1701 31.7116V33.7116Z" fill="white" mask="url(#path-19-inside-3)"/>
<rect x="17" y="38.5231" width="2" height="6.76923" fill="white"/>
<rect x="20" y="36.4923" width="2" height="9.47692" fill="white"/>
</svg>
