<svg width="200" height="200" viewBox="0 0 200 200" fill="none" xmlns="http://www.w3.org/2000/svg">
<circle cx="100" cy="100" r="100" fill="#7AFFDF"/>
<path fill-rule="evenodd" clip-rule="evenodd" d="M184.265 85.5003C185.059 81.5909 182.852 77.6937 179.09 76.3645L178.69 76.2229C174.107 74.6037 169.152 77.4104 168.184 82.1729L157.581 134.358C156.824 138.086 153.546 140.765 149.742 140.765H127.429C123.01 140.765 119.429 144.346 119.429 148.765V151.384C119.429 155.802 123.01 159.384 127.429 159.384H164.286C168.704 159.384 172.286 155.802 172.286 151.384V145.263C172.286 144.728 172.339 144.194 172.446 143.67L184.265 85.5003Z" fill="black"/>
<ellipse cx="98.7143" cy="47.8071" rx="25" ry="26.8421" fill="#FFD4AD"/>
<ellipse rx="21.5914" ry="13.3268" transform="matrix(0.90409 -0.427342 0.39796 0.917403 91.3955 36.4529)" fill="#F8EE94"/>
<rect width="54.4098" height="14.4986" rx="5" transform="matrix(0.562269 0.826954 -0.803504 0.595299 105.364 82.1053)" fill="#CB78BE"/>
<rect x="119.429" y="119.386" width="32.8571" height="14.9123" rx="5" fill="#D573C5"/>
<rect x="70.8571" y="82.1053" width="38.5714" height="73.0702" rx="5" fill="#D573C5"/>
<path d="M26.0297 46.4909C23.0836 61.0354 3.57072 60.8875 22.3435 64.69C41.1162 68.4925 58.7227 59.7843 61.6688 45.2398C64.6148 30.6953 84.1277 30.8432 65.355 27.0407C46.5822 23.2382 28.9757 31.9464 26.0297 46.4909Z" fill="#F8EE94"/>
</svg>
